font.ufo
<glyph name="exclam" format="1">
  <advance width="244"/>
  <unicode hex="0021"/>
  <outline>
    <contour>
      <point x="85" y="671" type="line"/>
      <point x="93" y="170" type="line"/>
      <point x="150" y="170" type="line"/>
      <point x="159" y="671" type="line"/>
    </contour>
    <contour>
      <point x="80" y="38" type="curve" smooth="yes"/>
      <point x="80" y="11"/>
      <point x="91" y="-6"/>
      <point x="122" y="-6" type="curve" smooth="yes"/>
      <point x="152" y="-6"/>
      <point x="164" y="11"/>
      <point x="164" y="38" type="curve" smooth="yes"/>
      <point x="164" y="65"/>
      <point x="152" y="83"/>
      <point x="122" y="83" type="curve" smooth="yes"/>
      <point x="91" y="83"/>
      <point x="80" y="65"/>
    </contour>
  </outline>
</glyph>
<glyph name="quotedbl" format="1">
  <advance width="342"/>
  <unicode hex="0022"/>
  <outline>
    <contour>
      <point x="200" y="743" type="line"/>
      <point x="200" y="543" type="line"/>
      <point x="260" y="543" type="line"/>
      <point x="260" y="743" type="line"/>
    </contour>
    <contour>
      <point x="81" y="743" type="line"/>
      <point x="81" y="543" type="line"/>
      <point x="141" y="543" type="line"/>
      <point x="141" y="743" type="line"/>
    </contour>
  </outline>
</glyph>
<glyph name="numbersign" format="1">
  <advance width="527"/>
  <unicode hex="0023"/>
  <outline>
    <contour>
      <point x="391" y="653" type="line"/>
      <point x="296" y="0" type="line"/>
      <point x="355" y="0" type="line"/>
      <point x="450" y="653" type="line"/>
    </contour>
    <contour>
      <point x="37" y="219" type="line"/>
      <point x="37" y="167" type="line"/>
      <point x="464" y="167" type="line"/>
      <point x="464" y="219" type="line"/>
    </contour>
    <contour>
      <point x="188" y="653" type="line"/>
      <point x="93" y="0" type="line"/>
      <point x="151" y="0" type="line"/>
      <point x="246" y="653" type="line"/>
    </contour>
    <contour>
      <point x="76" y="485" type="line"/>
      <point x="76" y="434" type="line"/>
      <point x="503" y="434" type="line"/>
      <point x="503" y="485" type="line"/>
    </contour>
  </outline>
</glyph>
<glyph name="dollar" format="1">
  <advance width="386"/>
  <unicode hex="0024"/>
  <outline>
    <contour>
      <point x="160" y="735" type="line"/>
      <point x="160" y="650" type="line"/>
      <point x="222" y="650" type="line"/>
      <point x="222" y="735" type="line"/>
    </contour>
    <contour>
      <point x="151" y="10" type="line"/>
      <point x="151" y="-75" type="line"/>
      <point x="213" y="-75" type="line"/>
      <point x="213" y="10" type="line"/>
    </contour>
    <component base="S"/>
  </outline>
</glyph>
<glyph name="percent" format="1">
  <advance width="561"/>
  <unicode hex="0025"/>
  <outline>
    <contour>
      <point x="388" y="671" type="line"/>
      <point x="121" y="0" type="line"/>
      <point x="173" y="0" type="line"/>
      <point x="440" y="671" type="line"/>
    </contour>
    <contour>
      <point x="199" y="539" type="curve" smooth="yes"/>
      <point x="199" y="476"/>
      <point x="180" y="448"/>
      <point x="144" y="448" type="curve" smooth="yes"/>
      <point x="108" y="448"/>
      <point x="90" y="476"/>
      <point x="90" y="539" type="curve" smooth="yes"/>
      <point x="90" y="601"/>
      <point x="108" y="629"/>
      <point x="144" y="629" type="curve" smooth="yes"/>
      <point x="180" y="629"/>
      <point x="199" y="601"/>
    </contour>
    <contour>
      <point x="35" y="539" type="curve" smooth="yes"/>
      <point x="35" y="450"/>
      <point x="72" y="397"/>
      <point x="144" y="397" type="curve" smooth="yes"/>
      <point x="217" y="397"/>
      <point x="254" y="450"/>
      <point x="254" y="539" type="curve" smooth="yes"/>
      <point x="254" y="627"/>
      <point x="217" y="680"/>
      <point x="144" y="680" type="curve" smooth="yes"/>
      <point x="72" y="680"/>
      <point x="35" y="627"/>
    </contour>
    <contour>
      <point x="470" y="132" type="curve"/>
      <point x="470" y="70"/>
      <point x="452" y="42"/>
      <point x="416" y="42" type="curve" smooth="yes"/>
      <point x="380" y="42"/>
      <point x="362" y="70"/>
      <point x="362" y="132" type="curve" smooth="yes"/>
      <point x="362" y="195"/>
      <point x="380" y="223"/>
      <point x="416" y="223" type="curve" smooth="yes"/>
      <point x="452" y="223"/>
      <point x="470" y="195"/>
    </contour>
    <contour>
      <point x="307" y="132" type="curve"/>
      <point x="307" y="43"/>
      <point x="343" y="-9"/>
      <point x="416" y="-9" type="curve" smooth="yes"/>
      <point x="489" y="-9"/>
      <point x="526" y="43"/>
      <point x="526" y="132" type="curve" smooth="yes"/>
      <point x="526" y="221"/>
      <point x="489" y="274"/>
      <point x="416" y="274" type="curve" smooth="yes"/>
      <point x="343" y="274"/>
      <point x="307" y="221"/>
    </contour>
  </outline>
</glyph>
<glyph name="ampersand" format="1">
  <advance width="455"/>
  <unicode hex="0026"/>
  <outline>
    <contour>
      <point x="54" y="527" type="curve"/>
      <point x="54" y="472" type="line" smooth="yes"/>
      <point x="54" y="410"/>
      <point x="79" y="365"/>
      <point x="131" y="345" type="curve"/>
      <point x="78" y="326"/>
      <point x="53" y="281"/>
      <point x="53" y="219" type="curve" smooth="yes"/>
      <point x="53" y="148" type="line" smooth="yes"/>
      <point x="53" y="59"/>
      <point x="112" y="-9"/>
      <point x="227" y="-9" type="curve" smooth="yes"/>
      <point x="343" y="-9"/>
      <point x="398" y="59"/>
      <point x="398" y="148" type="curve" smooth="yes"/>
      <point x="398" y="433" type="line"/>
      <point x="332" y="433" type="line"/>
      <point x="332" y="149" type="line" smooth="yes"/>
      <point x="332" y="91"/>
      <point x="300" y="51"/>
      <point x="227" y="51" type="curve" smooth="yes"/>
      <point x="155" y="51"/>
      <point x="121" y="91"/>
      <point x="121" y="149" type="curve" smooth="yes"/>
      <point x="121" y="218" type="line" smooth="yes"/>
      <point x="121" y="274"/>
      <point x="145" y="315"/>
      <point x="214" y="315" type="curve" smooth="yes"/>
      <point x="440" y="315" type="line"/>
      <point x="440" y="375" type="line"/>
      <point x="212" y="375" type="line" smooth="yes"/>
      <point x="144" y="375"/>
      <point x="122" y="414"/>
      <point x="122" y="473" type="curve" smooth="yes"/>
      <point x="122" y="524" type="line" smooth="yes"/>
      <point x="122" y="574"/>
      <point x="146" y="612"/>
      <point x="242" y="612" type="curve" smooth="yes"/>
      <point x="291" y="612"/>
      <point x="335" y="603"/>
      <point x="367" y="592" type="curve"/>
      <point x="367" y="658" type="line"/>
      <point x="339" y="667"/>
      <point x="294" y="676"/>
      <point x="241" y="676" type="curve" smooth="yes"/>
      <point x="109" y="676"/>
      <point x="54" y="614"/>
    </contour>
  </outline>
</glyph>
<glyph name="quotesingle" format="1">
  <advance width="222"/>
  <unicode hex="0027"/>
  <outline>
    <contour>
      <point x="81" y="743" type="line"/>
      <point x="81" y="543" type="line"/>
      <point x="141" y="543" type="line"/>
      <point x="141" y="743" type="line"/>
    </contour>
  </outline>
</glyph>
<glyph name="parenleft" format="1">
  <advance width="281"/>
  <unicode hex="0028"/>
  <outline>
    <contour>
      <point x="162" y="779" type="line"/>
      <point x="103" y="652"/>
      <point x="69" y="474"/>
      <point x="69" y="324" type="curve" smooth="yes"/>
      <point x="69" y="176"/>
      <point x="103" y="-4"/>
      <point x="162" y="-130" type="curve"/>
      <point x="222" y="-130" type="line"/>
      <point x="165" y="4"/>
      <point x="129" y="176"/>
      <point x="129" y="324" type="curve" smooth="yes"/>
      <point x="129" y="473"/>
      <point x="165" y="644"/>
      <point x="222" y="779" type="curve"/>
    </contour>
  </outline>
</glyph>
<glyph name="parenright" format="1">
  <advance width="281"/>
  <unicode hex="0029"/>
  <outline>
    <contour>
      <point x="59" y="779" type="line"/>
      <point x="116" y="644"/>
      <point x="152" y="473"/>
      <point x="152" y="324" type="curve" smooth="yes"/>
      <point x="152" y="176"/>
      <point x="116" y="4"/>
      <point x="59" y="-130" type="curve"/>
      <point x="119" y="-130" type="line"/>
      <point x="178" y="-4"/>
      <point x="212" y="176"/>
      <point x="212" y="324" type="curve" smooth="yes"/>
      <point x="212" y="474"/>
      <point x="178" y="652"/>
      <point x="119" y="779" type="curve"/>
    </contour>
  </outline>
</glyph>
<glyph name="asterisk" format="1">
  <advance width="493"/>
  <unicode hex="002A"/>
  <outline>
    <contour>
      <point x="274" y="511" type="curve" smooth="yes"/>
      <point x="334" y="429" type="line"/>
      <point x="381" y="464" type="line"/>
      <point x="321" y="546" type="line" smooth="yes"/>
      <point x="279" y="603"/>
      <point x="248" y="597"/>
      <point x="248" y="597" type="curve"/>
      <point x="248" y="597"/>
      <point x="232" y="568"/>
    </contour>
    <contour>
      <point x="175" y="545" type="curve" smooth="yes"/>
      <point x="115" y="464" type="line"/>
      <point x="162" y="429" type="line"/>
      <point x="222" y="512" type="line" smooth="yes"/>
      <point x="263" y="568"/>
      <point x="248" y="597"/>
      <point x="248" y="597" type="curve"/>
      <point x="248" y="597"/>
      <point x="216" y="603"/>
    </contour>
    <contour>
      <point x="62" y="626" type="line"/>
      <point x="159" y="595" type="line" smooth="yes"/>
      <point x="226" y="573"/>
      <point x="248" y="597"/>
      <point x="248" y="597" type="curve"/>
      <point x="248" y="597"/>
      <point x="243" y="629"/>
      <point x="176" y="651" type="curve" smooth="yes"/>
      <point x="80" y="682" type="line"/>
    </contour>
    <contour>
      <point x="219" y="783" type="line"/>
      <point x="219" y="682" type="line"/>
      <point x="219" y="611"/>
      <point x="248" y="597"/>
      <point x="248" y="597" type="curve"/>
      <point x="248" y="597"/>
      <point x="277" y="611"/>
      <point x="277" y="682" type="curve"/>
      <point x="277" y="783" type="line"/>
    </contour>
    <contour>
      <point x="319" y="651" type="line"/>
      <point x="252" y="629"/>
      <point x="248" y="597"/>
      <point x="248" y="597" type="curve"/>
      <point x="248" y="597"/>
      <point x="270" y="573"/>
      <point x="338" y="596" type="curve" smooth="yes"/>
      <point x="434" y="627" type="line"/>
      <point x="416" y="683" type="line"/>
    </contour>
  </outline>
</glyph>
<glyph name="plus" format="1">
  <advance width="436"/>
  <unicode hex="002B"/>
  <outline>
    <contour>
      <point x="187" y="501" type="line"/>
      <point x="187" y="147" type="line"/>
      <point x="249" y="147" type="line"/>
      <point x="249" y="501" type="line"/>
    </contour>
    <contour>
      <point x="41" y="353" type="line"/>
      <point x="41" y="297" type="line"/>
      <point x="395" y="297" type="line"/>
      <point x="395" y="353" type="line"/>
    </contour>
  </outline>
</glyph>
<glyph name="comma" format="1">
  <advance width="143"/>
  <unicode hex="002C"/>
  <outline>
    <contour>
      <point x="47" y="82" type="line"/>
      <point x="6" y="-126" type="line"/>
      <point x="46" y="-126" type="line"/>
      <point x="68" y="-84"/>
      <point x="115" y="14"/>
      <point x="115" y="51" type="curve" smooth="yes"/>
      <point x="115" y="72"/>
      <point x="101" y="82"/>
      <point x="81" y="82" type="curve" smooth="yes"/>
    </contour>
  </outline>
</glyph>
<glyph name="hyphen" format="1">
  <advance width="225"/>
  <unicode hex="002D"/>
  <outline>
    <contour>
      <point x="40" y="353" type="line"/>
      <point x="40" y="297" type="line"/>
      <point x="190" y="297" type="line"/>
      <point x="190" y="353" type="line"/>
    </contour>
  </outline>
</glyph>
<glyph name="period" format="1">
  <advance width="147"/>
  <unicode hex="002E"/>
  <outline>
    <contour>
      <point x="31" y="38" type="curve" smooth="yes"/>
      <point x="31" y="11"/>
      <point x="42" y="-6"/>
      <point x="73" y="-6" type="curve" smooth="yes"/>
      <point x="104" y="-6"/>
      <point x="115" y="11"/>
      <point x="115" y="38" type="curve" smooth="yes"/>
      <point x="115" y="65"/>
      <point x="104" y="83"/>
      <point x="73" y="83" type="curve" smooth="yes"/>
      <point x="42" y="83"/>
      <point x="31" y="65"/>
    </contour>
  </outline>
</glyph>
<glyph name="slash" format="1">
  <advance width="375"/>
  <unicode hex="002F"/>
  <outline>
    <contour>
      <point x="299" y="780" type="line"/>
      <point x="32" y="-130" type="line"/>
      <point x="92" y="-130" type="line"/>
      <point x="359" y="780" type="line"/>
    </contour>
  </outline>
</glyph>
<glyph name="two" format="1">
  <advance width="399"/>
  <unicode hex="0032"/>
  <outline>
    <contour>
      <point x="54" y="659" type="curve"/>
      <point x="54" y="593" type="line"/>
      <point x="85" y="604"/>
      <point x="129" y="613"/>
      <point x="176" y="613" type="curve" smooth="yes"/>
      <point x="266" y="613"/>
      <point x="284" y="581"/>
      <point x="284" y="532" type="curve" smooth="yes"/>
      <point x="284" y="482" type="line"/>
      <point x="284" y="430"/>
      <point x="273" y="401"/>
      <point x="230" y="373" type="curve" smooth="yes"/>
      <point x="152" y="318" type="line" smooth="yes"/>
      <point x="88" y="275"/>
      <point x="43" y="236"/>
      <point x="43" y="144" type="curve" smooth="yes"/>
      <point x="43" y="0" type="line"/>
      <point x="354" y="0" type="line"/>
      <point x="354" y="63" type="line"/>
      <point x="111" y="63" type="line"/>
      <point x="111" y="142" type="line" smooth="yes"/>
      <point x="111" y="205"/>
      <point x="135" y="228"/>
      <point x="197" y="270" type="curve" smooth="yes"/>
      <point x="274" y="324" type="line" smooth="yes"/>
      <point x="332" y="363"/>
      <point x="351" y="403"/>
      <point x="352" y="478" type="curve" smooth="yes"/>
      <point x="352" y="535" type="line" smooth="yes"/>
      <point x="352" y="622"/>
      <point x="301" y="676"/>
      <point x="177" y="676" type="curve" smooth="yes"/>
      <point x="126" y="676"/>
      <point x="78" y="667"/>
    </contour>
  </outline>
</glyph>
<glyph name="four" format="1">
  <advance width="403"/>
  <unicode hex="0034"/>
  <outline>
    <contour>
      <point x="224" y="671" type="line"/>
      <point x="10" y="188" type="line"/>
      <point x="10" y="126" type="line"/>
      <point x="398" y="126" type="line"/>
      <point x="398" y="186" type="line"/>
      <point x="74" y="186" type="line"/>
      <point x="289" y="671" type="line"/>
    </contour>
    <contour>
      <point x="265" y="671" type="line"/>
      <point x="265" y="178" type="line"/>
      <point x="264" y="169" type="line"/>
      <point x="264" y="0" type="line"/>
      <point x="330" y="0" type="line"/>
      <point x="330" y="671" type="line"/>
    </contour>
  </outline>
</glyph>
<glyph name="seven" format="1">
  <advance width="327"/>
  <unicode hex="0037"/>
  <outline>
    <contour>
      <point x="5" y="671" type="line"/>
      <point x="5" y="609" type="line"/>
      <point x="231" y="609" type="line"/>
      <point x="169" y="414" type="line"/>
      <point x="133" y="301"/>
      <point x="112" y="221"/>
      <point x="112" y="101" type="curve"/>
      <point x="112" y="0" type="line"/>
      <point x="181" y="0" type="line"/>
      <point x="181" y="98" type="line"/>
      <point x="181" y="216"/>
      <point x="201" y="295"/>
      <point x="237" y="410" type="curve"/>
      <point x="303" y="617" type="line"/>
      <point x="303" y="671" type="line"/>
    </contour>
  </outline>
</glyph>
<glyph name="nine" format="1">
  <advance width="432"/>
  <unicode hex="0039"/>
  <outline>
    <contour>
      <point x="46" y="523" type="curve" smooth="yes"/>
      <point x="46" y="392" type="line" smooth="yes"/>
      <point x="46" y="299"/>
      <point x="103" y="245"/>
      <point x="197" y="245" type="curve" smooth="yes"/>
      <point x="238" y="245"/>
      <point x="276" y="251"/>
      <point x="305" y="266" type="curve"/>
      <point x="305" y="150" type="line" smooth="yes"/>
      <point x="305" y="100"/>
      <point x="279" y="57"/>
      <point x="192" y="57" type="curve" smooth="yes"/>
      <point x="142" y="57"/>
      <point x="97" y="68"/>
      <point x="65" y="80" type="curve"/>
      <point x="65" y="14" type="line"/>
      <point x="91" y="6"/>
      <point x="138" y="-5"/>
      <point x="193" y="-5" type="curve" smooth="yes"/>
      <point x="318" y="-5"/>
      <point x="372" y="60"/>
      <point x="372" y="147" type="curve"/>
      <point x="372" y="523" type="line"/>
      <point x="372" y="613"/>
      <point x="325" y="681"/>
      <point x="209" y="681" type="curve" smooth="yes"/>
      <point x="94" y="681"/>
      <point x="46" y="613"/>
    </contour>
    <contour>
      <point x="305" y="523" type="curve"/>
      <point x="305" y="330" type="line"/>
      <point x="281" y="314"/>
      <point x="244" y="306"/>
      <point x="205" y="306" type="curve" smooth="yes"/>
      <point x="147" y="306"/>
      <point x="114" y="334"/>
      <point x="114" y="395" type="curve" smooth="yes"/>
      <point x="114" y="523" type="line" smooth="yes"/>
      <point x="114" y="581"/>
      <point x="137" y="620"/>
      <point x="209" y="620" type="curve" smooth="yes"/>
      <point x="282" y="620"/>
      <point x="305" y="581"/>
    </contour>
  </outline>
</glyph>
<glyph name="colon" format="1">
  <advance width="200"/>
  <unicode hex="003A"/>
  <outline>
    <contour>
      <point x="31" y="389" type="curve" smooth="yes"/>
      <point x="31" y="362"/>
      <point x="42" y="344"/>
      <point x="73" y="344" type="curve" smooth="yes"/>
      <point x="104" y="344"/>
      <point x="115" y="362"/>
      <point x="115" y="389" type="curve" smooth="yes"/>
      <point x="115" y="416"/>
      <point x="104" y="433"/>
      <point x="73" y="433" type="curve" smooth="yes"/>
      <point x="42" y="433"/>
      <point x="31" y="416"/>
    </contour>
    <contour>
      <point x="31" y="38" type="curve" smooth="yes"/>
      <point x="31" y="11"/>
      <point x="42" y="-6"/>
      <point x="73" y="-6" type="curve" smooth="yes"/>
      <point x="104" y="-6"/>
      <point x="115" y="11"/>
      <point x="115" y="38" type="curve" smooth="yes"/>
      <point x="115" y="65"/>
      <point x="104" y="83"/>
      <point x="73" y="83" type="curve" smooth="yes"/>
      <point x="42" y="83"/>
      <point x="31" y="65"/>
    </contour>
  </outline>
</glyph>
<glyph name="semicolon" format="1">
  <advance width="197"/>
  <unicode hex="003B"/>
  <outline>
    <contour>
      <point x="47" y="82" type="line"/>
      <point x="6" y="-126" type="line"/>
      <point x="46" y="-126" type="line"/>
      <point x="68" y="-84"/>
      <point x="115" y="14"/>
      <point x="115" y="51" type="curve" smooth="yes"/>
      <point x="115" y="72"/>
      <point x="101" y="82"/>
      <point x="81" y="82" type="curve" smooth="yes"/>
    </contour>
    <contour>
      <point x="31" y="389" type="curve" smooth="yes"/>
      <point x="31" y="362"/>
      <point x="42" y="344"/>
      <point x="73" y="344" type="curve" smooth="yes"/>
      <point x="104" y="344"/>
      <point x="115" y="362"/>
      <point x="115" y="389" type="curve" smooth="yes"/>
      <point x="115" y="416"/>
      <point x="104" y="433"/>
      <point x="73" y="433" type="curve" smooth="yes"/>
      <point x="42" y="433"/>
      <point x="31" y="416"/>
    </contour>
  </outline>
</glyph>
<glyph name="less" format="1">
  <advance width="458"/>
  <unicode hex="003C"/>
  <outline>
    <contour>
      <point x="43" y="361" type="line"/>
      <point x="43" y="304" type="line"/>
      <point x="399" y="439" type="line"/>
      <point x="399" y="500" type="line"/>
    </contour>
    <contour>
      <point x="43" y="287" type="line"/>
      <point x="399" y="148" type="line"/>
      <point x="399" y="209" type="line"/>
      <point x="43" y="344" type="line"/>
    </contour>
  </outline>
</glyph>
<glyph name="equal" format="1">
  <advance width="435"/>
  <unicode hex="003D"/>
  <outline>
    <contour>
      <point x="39" y="441" type="line"/>
      <point x="39" y="385" type="line"/>
      <point x="395" y="385" type="line"/>
      <point x="395" y="441" type="line"/>
    </contour>
    <contour>
      <point x="39" y="263" type="line"/>
      <point x="39" y="207" type="line"/>
      <point x="395" y="207" type="line"/>
      <point x="395" y="263" type="line"/>
    </contour>
  </outline>
</glyph>
<glyph name="greater" format="1">
  <advance width="457"/>
  <unicode hex="003E"/>
  <outline>
    <contour>
      <point x="56" y="439" type="line"/>
      <point x="413" y="304" type="line"/>
      <point x="413" y="361" type="line"/>
      <point x="56" y="500" type="line"/>
    </contour>
    <contour>
      <point x="56" y="209" type="line"/>
      <point x="56" y="148" type="line"/>
      <point x="413" y="287" type="line"/>
      <point x="413" y="344" type="line"/>
    </contour>
  </outline>
</glyph>
<glyph name="question" format="1">
  <advance width="377"/>
  <unicode hex="003F"/>
  <outline>
    <contour>
      <point x="35" y="667" type="curve"/>
      <point x="35" y="600" type="line"/>
      <point x="66" y="610"/>
      <point x="110" y="617"/>
      <point x="153" y="617" type="curve" smooth="yes"/>
      <point x="239" y="617"/>
      <point x="261" y="589"/>
      <point x="261" y="538" type="curve" smooth="yes"/>
      <point x="261" y="442" type="line" smooth="yes"/>
      <point x="261" y="383"/>
      <point x="236" y="346"/>
      <point x="164" y="346" type="curve" smooth="yes"/>
      <point x="109" y="346" type="line"/>
      <point x="113" y="170" type="line"/>
      <point x="171" y="170" type="line"/>
      <point x="176" y="288" type="line"/>
      <point x="292" y="291"/>
      <point x="328" y="358"/>
      <point x="328" y="442" type="curve" smooth="yes"/>
      <point x="328" y="541" type="line" smooth="yes"/>
      <point x="328" y="628"/>
      <point x="275" y="681"/>
      <point x="152" y="681" type="curve" smooth="yes"/>
      <point x="104" y="681"/>
      <point x="61" y="674"/>
    </contour>
    <contour>
      <point x="100" y="38" type="curve" smooth="yes"/>
      <point x="100" y="11"/>
      <point x="111" y="-6"/>
      <point x="142" y="-6" type="curve" smooth="yes"/>
      <point x="173" y="-6"/>
      <point x="184" y="11"/>
      <point x="184" y="38" type="curve" smooth="yes"/>
      <point x="184" y="65"/>
      <point x="173" y="83"/>
      <point x="142" y="83" type="curve" smooth="yes"/>
      <point x="111" y="83"/>
      <point x="100" y="65"/>
    </contour>
  </outline>
</glyph>
<glyph name="at" format="1">
  <advance width="854"/>
  <unicode hex="0040"/>
  <outline>
    <contour>
      <point x="73" y="273" type="curve" smooth="yes"/>
      <point x="73" y="34"/>
      <point x="165" y="-112"/>
      <point x="431" y="-112" type="curve" smooth="yes"/>
      <point x="517" y="-112" type="line"/>
      <point x="517" y="-57" type="line"/>
      <point x="431" y="-57" type="line" smooth="yes"/>
      <point x="203" y="-57"/>
      <point x="134" y="68"/>
      <point x="134" y="273" type="curve" smooth="yes"/>
      <point x="134" y="479"/>
      <point x="202" y="604"/>
      <point x="431" y="604" type="curve" smooth="yes"/>
      <point x="661" y="604"/>
      <point x="729" y="489"/>
      <point x="729" y="283" type="curve" smooth="yes"/>
      <point x="729" y="127"/>
      <point x="690" y="83"/>
      <point x="634" y="83" type="curve" smooth="yes"/>
      <point x="586" y="83"/>
      <point x="563" y="105"/>
      <point x="563" y="161" type="curve" smooth="yes"/>
      <point x="563" y="388" type="line" smooth="yes"/>
      <point x="563" y="461"/>
      <point x="525" y="511"/>
      <point x="431" y="511" type="curve" smooth="yes"/>
      <point x="387" y="511"/>
      <point x="343" y="503"/>
      <point x="309" y="494" type="curve"/>
      <point x="309" y="440" type="line"/>
      <point x="360" y="452"/>
      <point x="390" y="458"/>
      <point x="431" y="458" type="curve" smooth="yes"/>
      <point x="492" y="458"/>
      <point x="506" y="428"/>
      <point x="506" y="387" type="curve" smooth="yes"/>
      <point x="506" y="331" type="line"/>
      <point x="400" y="298" type="line" smooth="yes"/>
      <point x="331" y="276"/>
      <point x="285" y="248"/>
      <point x="285" y="173" type="curve" smooth="yes"/>
      <point x="285" y="159" type="line" smooth="yes"/>
      <point x="285" y="86"/>
      <point x="330" y="46"/>
      <point x="408" y="46" type="curve" smooth="yes"/>
      <point x="495" y="46"/>
      <point x="532" y="83"/>
      <point x="532" y="83" type="curve"/>
      <point x="511" y="115" type="line"/>
      <point x="520" y="64"/>
      <point x="557" y="28"/>
      <point x="633" y="28" type="curve" smooth="yes"/>
      <point x="731" y="28"/>
      <point x="790" y="97"/>
      <point x="790" y="283" type="curve" smooth="yes"/>
      <point x="790" y="523"/>
      <point x="698" y="659"/>
      <point x="431" y="659" type="curve" smooth="yes"/>
      <point x="169" y="659"/>
      <point x="73" y="513"/>
    </contour>
    <contour>
      <point x="506" y="126" type="line"/>
      <point x="506" y="126"/>
      <point x="473" y="97"/>
      <point x="413" y="97" type="curve" smooth="yes"/>
      <point x="371" y="97"/>
      <point x="346" y="114"/>
      <point x="346" y="159" type="curve" smooth="yes"/>
      <point x="346" y="174" type="line" smooth="yes"/>
      <point x="346" y="224"/>
      <point x="371" y="235"/>
      <point x="416" y="249" type="curve" smooth="yes"/>
      <point x="506" y="276" type="line"/>
    </contour>
  </outline>
</glyph>
<glyph name="A" format="1">
  <advance width="436"/>
  <unicode hex="0041"/>
  <outline>
    <contour>
      <point x="202" y="671" type="line"/>
      <point x="350" y="0" type="line"/>
      <point x="418" y="0" type="line"/>
      <point x="266" y="671" type="line"/>
    </contour>
    <contour>
      <point x="93" y="248" type="line"/>
      <point x="93" y="189" type="line"/>
      <point x="335" y="189" type="line"/>
      <point x="335" y="248" type="line"/>
    </contour>
    <contour>
      <point x="170" y="671" type="line"/>
      <point x="17" y="0" type="line"/>
      <point x="85" y="0" type="line"/>
      <point x="232" y="671" type="line"/>
    </contour>
  </outline>
</glyph>
<glyph name="B" format="1">
  <advance width="467"/>
  <unicode hex="0042"/>
  <outline>
    <contour>
      <point x="115" y="348" type="line"/>
      <point x="115" y="307" type="line"/>
      <point x="242" y="307" type="line" smooth="yes"/>
      <point x="312" y="307"/>
      <point x="340" y="271"/>
      <point x="340" y="213" type="curve" smooth="yes"/>
      <point x="340" y="153" type="line" smooth="yes"/>
      <point x="340" y="95"/>
      <point x="312" y="59"/>
      <point x="242" y="59" type="curve" smooth="yes"/>
      <point x="107" y="59" type="line"/>
      <point x="107" y="0" type="line"/>
      <point x="246" y="0" type="line" smooth="yes"/>
      <point x="355" y="0"/>
      <point x="407" y="60"/>
      <point x="407" y="152" type="curve" smooth="yes"/>
      <point x="407" y="211" type="line" smooth="yes"/>
      <point x="407" y="294"/>
      <point x="363" y="348"/>
      <point x="259" y="348" type="curve" smooth="yes"/>
    </contour>
    <contour>
      <point x="70" y="671" type="line"/>
      <point x="70" y="0" type="line"/>
      <point x="137" y="0" type="line"/>
      <point x="137" y="671" type="line"/>
    </contour>
    <contour>
      <point x="107" y="671" type="line"/>
      <point x="107" y="611" type="line"/>
      <point x="236" y="611" type="line" smooth="yes"/>
      <point x="306" y="611"/>
      <point x="334" y="576"/>
      <point x="334" y="517" type="curve" smooth="yes"/>
      <point x="334" y="461" type="line" smooth="yes"/>
      <point x="334" y="403"/>
      <point x="306" y="367"/>
      <point x="236" y="367" type="curve" smooth="yes"/>
      <point x="115" y="367" type="line"/>
      <point x="115" y="326" type="line"/>
      <point x="253" y="326" type="line" smooth="yes"/>
      <point x="357" y="326"/>
      <point x="401" y="380"/>
      <point x="401" y="463" type="curve" smooth="yes"/>
      <point x="401" y="519" type="line" smooth="yes"/>
      <point x="401" y="610"/>
      <point x="349" y="671"/>
      <point x="240" y="671" type="curve" smooth="yes"/>
    </contour>
  </outline>
</glyph>
<glyph name="C" format="1">
  <advance width="393"/>
  <unicode hex="0043"/>
  <outline>
    <contour>
      <point x="60" y="535" type="curve" smooth="yes"/>
      <point x="60" y="136" type="line" smooth="yes"/>
      <point x="60" y="48"/>
      <point x="115" y="-5"/>
      <point x="238" y="-5" type="curve" smooth="yes"/>
      <point x="283" y="-5"/>
      <point x="328" y="2"/>
      <point x="356" y="11" type="curve"/>
      <point x="356" y="73" type="line"/>
      <point x="325" y="64"/>
      <point x="281" y="57"/>
      <point x="239" y="57" type="curve" smooth="yes"/>
      <point x="152" y="57"/>
      <point x="128" y="88"/>
      <point x="128" y="138" type="curve" smooth="yes"/>
      <point x="128" y="532" type="line" smooth="yes"/>
      <point x="128" y="583"/>
      <point x="152" y="614"/>
      <point x="239" y="614" type="curve" smooth="yes"/>
      <point x="281" y="614"/>
      <point x="323" y="606"/>
      <point x="354" y="597" type="curve"/>
      <point x="354" y="660" type="line"/>
      <point x="325" y="668"/>
      <point x="284" y="676"/>
      <point x="238" y="676" type="curve" smooth="yes"/>
      <point x="115" y="676"/>
      <point x="60" y="622"/>
    </contour>
  </outline>
</glyph>
<glyph name="D" format="1">
  <advance width="464"/>
  <unicode hex="0044"/>
  <outline>
    <contour>
      <point x="70" y="671" type="line"/>
      <point x="70" y="0" type="line"/>
      <point x="245" y="0" type="line" smooth="yes"/>
      <point x="356" y="0"/>
      <point x="405" y="63"/>
      <point x="405" y="152" type="curve" smooth="yes"/>
      <point x="405" y="520" type="line" smooth="yes"/>
      <point x="405" y="609"/>
      <point x="353" y="671"/>
      <point x="244" y="671" type="curve" smooth="yes"/>
    </contour>
    <contour>
      <point x="337" y="519" type="curve"/>
      <point x="337" y="154" type="line" smooth="yes"/>
      <point x="337" y="98"/>
      <point x="311" y="60"/>
      <point x="240" y="60" type="curve" smooth="yes"/>
      <point x="137" y="60" type="line"/>
      <point x="137" y="612" type="line"/>
      <point x="240" y="612" type="line" smooth="yes"/>
      <point x="311" y="612"/>
      <point x="337" y="575"/>
    </contour>
  </outline>
</glyph>
<glyph name="E" format="1">
  <advance width="396"/>
  <unicode hex="0045"/>
  <outline>
    <contour>
      <point x="70" y="671" type="line"/>
      <point x="70" y="0" type="line"/>
      <point x="359" y="0" type="line"/>
      <point x="359" y="60" type="line"/>
      <point x="137" y="60" type="line"/>
      <point x="137" y="308" type="line"/>
      <point x="330" y="308" type="line"/>
      <point x="330" y="368" type="line"/>
      <point x="137" y="368" type="line"/>
      <point x="137" y="611" type="line"/>
      <point x="359" y="611" type="line"/>
      <point x="359" y="671" type="line"/>
    </contour>
  </outline>
</glyph>
<glyph name="F" format="1">
  <advance width="369"/>
  <unicode hex="0046"/>
  <outline>
    <contour>
      <point x="70" y="671" type="line"/>
      <point x="70" y="0" type="line"/>
      <point x="138" y="0" type="line"/>
      <point x="138" y="295" type="line"/>
      <point x="340" y="295" type="line"/>
      <point x="340" y="356" type="line"/>
      <point x="138" y="356" type="line"/>
      <point x="138" y="611" type="line"/>
      <point x="350" y="611" type="line"/>
      <point x="350" y="671" type="line"/>
    </contour>
  </outline>
</glyph>
<glyph name="G" format="1">
  <advance width="447"/>
  <unicode hex="0047"/>
  <outline>
    <contour>
      <point x="60" y="529" type="curve" smooth="yes"/>
      <point x="60" y="136" type="line" smooth="yes"/>
      <point x="60" y="33"/>
      <point x="131" y="-5"/>
      <point x="225" y="-5" type="curve" smooth="yes"/>
      <point x="314" y="-5"/>
      <point x="355" y="18"/>
      <point x="385" y="35" type="curve"/>
      <point x="385" y="328" type="line"/>
      <point x="318" y="328" type="line"/>
      <point x="318" y="77" type="line"/>
      <point x="308" y="71"/>
      <point x="273" y="56"/>
      <point x="225" y="56" type="curve" smooth="yes"/>
      <point x="163" y="56"/>
      <point x="128" y="79"/>
      <point x="128" y="139" type="curve" smooth="yes"/>
      <point x="128" y="526" type="line" smooth="yes"/>
      <point x="128" y="581"/>
      <point x="157" y="613"/>
      <point x="245" y="613" type="curve" smooth="yes"/>
      <point x="292" y="613"/>
      <point x="333" y="604"/>
      <point x="365" y="594" type="curve"/>
      <point x="365" y="659" type="line"/>
      <point x="337" y="667"/>
      <point x="292" y="676"/>
      <point x="244" y="676" type="curve" smooth="yes"/>
      <point x="113" y="676"/>
      <point x="60" y="617"/>
    </contour>
  </outline>
</glyph>
<glyph name="H" format="1">
  <advance width="493"/>
  <unicode hex="0048"/>
  <outline>
    <contour>
      <point x="355" y="671" type="line"/>
      <point x="355" y="0" type="line"/>
      <point x="424" y="0" type="line"/>
      <point x="424" y="671" type="line"/>
    </contour>
    <contour>
      <point x="70" y="671" type="line"/>
      <point x="70" y="0" type="line"/>
      <point x="138" y="0" type="line"/>
      <point x="138" y="671" type="line"/>
    </contour>
    <contour>
      <point x="121" y="359" type="line"/>
      <point x="121" y="299" type="line"/>
      <point x="370" y="299" type="line"/>
      <point x="370" y="359" type="line"/>
    </contour>
  </outline>
</glyph>
<glyph name="I" format="1">
  <advance width="207"/>
  <unicode hex="0049"/>
  <outline>
    <contour>
      <point x="70" y="671" type="line"/>
      <point x="70" y="0" type="line"/>
      <point x="138" y="0" type="line"/>
      <point x="138" y="671" type="line"/>
    </contour>
  </outline>
</glyph>
<glyph name="J" format="1">
  <advance width="208"/>
  <unicode hex="004A"/>
  <outline>
    <contour>
      <point x="71" y="671" type="line"/>
      <point x="71" y="196" type="line" smooth="yes"/>
      <point x="71" y="97"/>
      <point x="57" y="34"/>
      <point x="35" y="-44" type="curve" smooth="yes"/>
      <point x="5" y="-149" type="line"/>
      <point x="74" y="-149" type="line"/>
      <point x="105" y="-44" type="line" smooth="yes"/>
      <point x="123" y="16"/>
      <point x="139" y="84"/>
      <point x="139" y="197" type="curve" smooth="yes"/>
      <point x="139" y="671" type="line"/>
    </contour>
  </outline>
</glyph>
<glyph name="K" format="1">
  <advance width="431"/>
  <unicode hex="004B"/>
  <outline>
    <contour>
      <point x="332" y="671" type="line"/>
      <point x="191" y="335" type="line"/>
      <point x="338" y="0" type="line"/>
      <point x="414" y="0" type="line"/>
      <point x="264" y="337" type="line"/>
      <point x="406" y="671" type="line"/>
    </contour>
    <contour>
      <point x="70" y="671" type="line"/>
      <point x="70" y="0" type="line"/>
      <point x="137" y="0" type="line"/>
      <point x="137" y="671" type="line"/>
    </contour>
  </outline>
</glyph>
<glyph name="L" format="1">
  <advance width="347"/>
  <unicode hex="004C"/>
  <outline>
    <contour>
      <point x="70" y="671" type="line"/>
      <point x="70" y="0" type="line"/>
      <point x="342" y="0" type="line"/>
      <point x="342" y="59" type="line"/>
      <point x="138" y="59" type="line"/>
      <point x="138" y="671" type="line"/>
    </contour>
  </outline>
</glyph>
<glyph name="M" format="1">
  <advance width="609"/>
  <unicode hex="004D"/>
  <outline>
    <contour>
      <point x="457" y="671" type="line"/>
      <point x="304" y="247" type="line"/>
      <point x="151" y="671" type="line"/>
      <point x="70" y="671" type="line"/>
      <point x="70" y="0" type="line"/>
      <point x="134" y="0" type="line"/>
      <point x="134" y="360" type="line"/>
      <point x="134" y="464"/>
      <point x="127" y="558"/>
      <point x="127" y="558" type="curve"/>
      <point x="268" y="179" type="line"/>
      <point x="341" y="179" type="line"/>
      <point x="480" y="558" type="line"/>
      <point x="480" y="558"/>
      <point x="475" y="475"/>
      <point x="475" y="359" type="curve"/>
      <point x="475" y="0" type="line"/>
      <point x="540" y="0" type="line"/>
      <point x="540" y="671" type="line"/>
    </contour>
  </outline>
</glyph>
<glyph name="N" format="1">
  <advance width="498"/>
  <unicode hex="004E"/>
  <outline>
    <contour>
      <point x="361" y="671" type="line"/>
      <point x="361" y="327" type="line"/>
      <point x="362" y="236"/>
      <point x="366" y="164"/>
      <point x="367" y="109" type="curve"/>
      <point x="346" y="165"/>
      <point x="320" y="234"/>
      <point x="288" y="318" type="curve"/>
      <point x="149" y="671" type="line"/>
      <point x="70" y="671" type="line"/>
      <point x="70" y="0" type="line"/>
      <point x="136" y="0" type="line"/>
      <point x="136" y="344" type="line"/>
      <point x="135" y="435"/>
      <point x="131" y="506"/>
      <point x="130" y="561" type="curve"/>
      <point x="152" y="505"/>
      <point x="177" y="436"/>
      <point x="210" y="352" type="curve"/>
      <point x="349" y="0" type="line"/>
      <point x="429" y="0" type="line"/>
      <point x="429" y="671" type="line"/>
    </contour>
  </outline>
</glyph>
<glyph name="O" format="1">
  <advance width="455"/>
  <unicode hex="004F"/>
  <outline>
    <contour>
      <point x="60" y="523" type="curve" smooth="yes"/>
      <point x="60" y="148" type="line" smooth="yes"/>
      <point x="60" y="58"/>
      <point x="112" y="-10"/>
      <point x="228" y="-10" type="curve" smooth="yes"/>
      <point x="343" y="-10"/>
      <point x="396" y="58"/>
      <point x="396" y="148" type="curve" smooth="yes"/>
      <point x="396" y="523" type="line" smooth="yes"/>
      <point x="396" y="613"/>
      <point x="343" y="681"/>
      <point x="228" y="681" type="curve" smooth="yes"/>
      <point x="112" y="681"/>
      <point x="60" y="613"/>
    </contour>
    <contour>
      <point x="328" y="522" type="curve" smooth="yes"/>
      <point x="328" y="149" type="line" smooth="yes"/>
      <point x="328" y="91"/>
      <point x="300" y="51"/>
      <point x="228" y="51" type="curve" smooth="yes"/>
      <point x="155" y="51"/>
      <point x="127" y="91"/>
      <point x="127" y="149" type="curve" smooth="yes"/>
      <point x="127" y="522" type="line" smooth="yes"/>
      <point x="127" y="580"/>
      <point x="155" y="619"/>
      <point x="228" y="619" type="curve" smooth="yes"/>
      <point x="300" y="619"/>
      <point x="328" y="580"/>
    </contour>
  </outline>
</glyph>
<glyph name="P" format="1">
  <advance width="438"/>
  <unicode hex="0050"/>
  <outline>
    <contour>
      <point x="70" y="671" type="line"/>
      <point x="70" y="0" type="line"/>
      <point x="138" y="0" type="line"/>
      <point x="138" y="232" type="line"/>
      <point x="231" y="232" type="line" smooth="yes"/>
      <point x="340" y="232"/>
      <point x="392" y="294"/>
      <point x="392" y="383" type="curve" smooth="yes"/>
      <point x="392" y="520" type="line" smooth="yes"/>
      <point x="392" y="609"/>
      <point x="340" y="671"/>
      <point x="231" y="671" type="curve" smooth="yes"/>
    </contour>
    <contour>
      <point x="325" y="517" type="curve" smooth="yes"/>
      <point x="325" y="386" type="line" smooth="yes"/>
      <point x="325" y="328"/>
      <point x="298" y="292"/>
      <point x="227" y="292" type="curve" smooth="yes"/>
      <point x="138" y="292" type="line"/>
      <point x="138" y="611" type="line"/>
      <point x="227" y="611" type="line" smooth="yes"/>
      <point x="298" y="611"/>
      <point x="325" y="575"/>
    </contour>
  </outline>
</glyph>
<glyph name="Q" format="1">
  <advance width="455"/>
  <unicode hex="0051"/>
  <outline>
    <contour>
      <point x="220" y="50" type="line"/>
      <point x="357" y="-101" type="line"/>
      <point x="441" y="-101" type="line"/>
      <point x="304" y="50" type="line"/>
    </contour>
    <component base="O"/>
  </outline>
</glyph>
<glyph name="T" format="1">
  <advance width="348"/>
  <unicode hex="0054"/>
  <outline>
    <contour>
      <point x="140" y="671" type="line"/>
      <point x="140" y="0" type="line"/>
      <point x="208" y="0" type="line"/>
      <point x="208" y="671" type="line"/>
    </contour>
    <contour>
      <point x="9" y="671" type="line"/>
      <point x="9" y="611" type="line"/>
      <point x="339" y="611" type="line"/>
      <point x="339" y="671" type="line"/>
    </contour>
  </outline>
</glyph>
<glyph name="U" format="1">
  <advance width="465"/>
  <unicode hex="0055"/>
  <outline>
    <contour>
      <point x="332" y="671" type="line"/>
      <point x="332" y="149" type="line" smooth="yes"/>
      <point x="332" y="91"/>
      <point x="305" y="51"/>
      <point x="232" y="51" type="curve" smooth="yes"/>
      <point x="160" y="51"/>
      <point x="132" y="91"/>
      <point x="132" y="149" type="curve" smooth="yes"/>
      <point x="132" y="671" type="line"/>
      <point x="65" y="671" type="line"/>
      <point x="65" y="148" type="line" smooth="yes"/>
      <point x="65" y="58"/>
      <point x="117" y="-10"/>
      <point x="232" y="-10" type="curve" smooth="yes"/>
      <point x="348" y="-10"/>
      <point x="400" y="58"/>
      <point x="400" y="148" type="curve" smooth="yes"/>
      <point x="400" y="671" type="line"/>
    </contour>
  </outline>
</glyph>
<glyph name="V" format="1">
  <advance width="417"/>
  <unicode hex="0056"/>
  <outline>
    <contour>
      <point x="333" y="671" type="line"/>
      <point x="262" y="336" type="line"/>
      <point x="244" y="246"/>
      <point x="224" y="141"/>
      <point x="209" y="67" type="curve"/>
      <point x="193" y="141"/>
      <point x="173" y="245"/>
      <point x="155" y="336" type="curve"/>
      <point x="83" y="671" type="line"/>
      <point x="13" y="671" type="line"/>
      <point x="160" y="0" type="line"/>
      <point x="257" y="0" type="line"/>
      <point x="403" y="671" type="line"/>
    </contour>
  </outline>
</glyph>
<glyph name="W" format="1">
  <advance width="609"/>
  <unicode hex="0057"/>
  <outline>
    <contour>
      <point x="522" y="671" type="line"/>
      <point x="456" y="263" type="line" smooth="yes"/>
      <point x="444" y="193"/>
      <point x="431" y="87"/>
      <point x="431" y="87" type="curve"/>
      <point x="431" y="87"/>
      <point x="417" y="193"/>
      <point x="406" y="263" type="curve" smooth="yes"/>
      <point x="341" y="671" type="line"/>
      <point x="270" y="671" type="line"/>
      <point x="204" y="264" type="line" smooth="yes"/>
      <point x="189" y="175"/>
      <point x="178" y="86"/>
      <point x="178" y="86" type="curve"/>
      <point x="178" y="86"/>
      <point x="168" y="176"/>
      <point x="154" y="263" type="curve" smooth="yes"/>
      <point x="87" y="671" type="line"/>
      <point x="21" y="671" type="line"/>
      <point x="133" y="0" type="line"/>
      <point x="217" y="0" type="line"/>
      <point x="275" y="338" type="line" smooth="yes"/>
      <point x="295" y="456"/>
      <point x="305" y="565"/>
      <point x="305" y="565" type="curve"/>
      <point x="305" y="565"/>
      <point x="315" y="459"/>
      <point x="336" y="337" type="curve" smooth="yes"/>
      <point x="393" y="0" type="line"/>
      <point x="476" y="0" type="line"/>
      <point x="588" y="671" type="line"/>
    </contour>
  </outline>
</glyph>
<glyph name="X" format="1">
  <advance width="389"/>
  <unicode hex="0058"/>
  <outline>
    <contour>
      <point x="302" y="671" type="line"/>
      <point x="195" y="412" type="line"/>
      <point x="87" y="671" type="line"/>
      <point x="13" y="671" type="line"/>
      <point x="159" y="335" type="line"/>
      <point x="13" y="0" type="line"/>
      <point x="87" y="0" type="line"/>
      <point x="195" y="257" type="line"/>
      <point x="302" y="0" type="line"/>
      <point x="376" y="0" type="line"/>
      <point x="229" y="335" type="line"/>
      <point x="376" y="671" type="line"/>
    </contour>
  </outline>
</glyph>
<glyph name="Y" format="1">
  <advance width="406"/>
  <unicode hex="0059"/>
  <outline>
    <contour>
      <point x="333" y="671" type="line"/>
      <point x="265" y="485" type="line"/>
      <point x="242" y="420"/>
      <point x="223" y="363"/>
      <point x="204" y="307" type="curve"/>
      <point x="185" y="363"/>
      <point x="167" y="420"/>
      <point x="143" y="485" type="curve"/>
      <point x="74" y="671" type="line"/>
      <point x="4" y="671" type="line"/>
      <point x="169" y="227" type="line"/>
      <point x="169" y="0" type="line"/>
      <point x="237" y="0" type="line"/>
      <point x="237" y="227" type="line"/>
      <point x="402" y="671" type="line"/>
    </contour>
  </outline>
</glyph>
<glyph name="Z" format="1">
  <advance width="381"/>
  <unicode hex="005A"/>
  <outline>
    <contour>
      <point x="34" y="671" type="line"/>
      <point x="34" y="611" type="line"/>
      <point x="279" y="611" type="line"/>
      <point x="28" y="60" type="line"/>
      <point x="28" y="0" type="line"/>
      <point x="347" y="0" type="line"/>
      <point x="347" y="60" type="line"/>
      <point x="100" y="60" type="line"/>
      <point x="352" y="612" type="line"/>
      <point x="352" y="671" type="line"/>
    </contour>
  </outline>
</glyph>
<glyph name="bracketleft" format="1">
  <advance width="293"/>
  <unicode hex="005B"/>
  <outline>
    <contour>
      <point x="81" y="411" type="line"/>
      <point x="81" y="-131" type="line"/>
      <point x="263" y="-131" type="line"/>
      <point x="263" y="-77" type="line"/>
      <point x="140" y="-77" type="line"/>
      <point x="140" y="411" type="line"/>
    </contour>
    <contour>
      <point x="81" y="783" type="line"/>
      <point x="81" y="410" type="line"/>
      <point x="140" y="410" type="line"/>
      <point x="140" y="729" type="line"/>
      <point x="263" y="729" type="line"/>
      <point x="263" y="783" type="line"/>
    </contour>
  </outline>
</glyph>
<glyph name="backslash" format="1">
  <advance width="388"/>
  <unicode hex="005C"/>
  <outline>
    <contour>
      <point x="32" y="783" type="line"/>
      <point x="302" y="-131" type="line"/>
      <point x="363" y="-131" type="line"/>
      <point x="93" y="783" type="line"/>
    </contour>
  </outline>
</glyph>
<glyph name="asciicircum" format="1">
  <advance width="313"/>
  <unicode hex="005E"/>
  <outline>
    <contour>
      <point x="142" y="660" type="line"/>
      <point x="240" y="379" type="line"/>
      <point x="305" y="379" type="line"/>
      <point x="199" y="660" type="line"/>
    </contour>
    <contour>
      <point x="110" y="660" type="line"/>
      <point x="3" y="379" type="line"/>
      <point x="68" y="379" type="line"/>
      <point x="166" y="660" type="line"/>
    </contour>
  </outline>
</glyph>
<glyph name="underscore" format="1">
  <advance width="473"/>
  <unicode hex="005F"/>
  <outline>
    <contour>
      <point x="2" y="-12" type="line"/>
      <point x="2" y="-67" type="line"/>
      <point x="471" y="-67" type="line"/>
      <point x="471" y="-12" type="line"/>
    </contour>
  </outline>
</glyph>
<glyph name="grave" format="1">
  <advance width="350"/>
  <unicode hex="0060"/>
  <outline>
    <contour>
      <point x="124" y="719" type="line"/>
      <point x="182" y="612" type="line"/>
      <point x="226" y="612" type="line"/>
      <point x="188" y="719" type="line"/>
    </contour>
  </outline>
</glyph>
<glyph name="a" format="1">
  <advance width="425"/>
  <unicode hex="0061"/>
  <outline>
    <contour>
      <point x="59" y="555" type="curve"/>
      <point x="59" y="490" type="line"/>
      <point x="88" y="500"/>
      <point x="139" y="510"/>
      <point x="188" y="510" type="curve" smooth="yes"/>
      <point x="273" y="510"/>
      <point x="294" y="481"/>
      <point x="294" y="429" type="curve" smooth="yes"/>
      <point x="294" y="341" type="line"/>
      <point x="153" y="302" type="line" smooth="yes"/>
      <point x="69" y="278"/>
      <point x="32" y="233"/>
      <point x="32" y="165" type="curve" smooth="yes"/>
      <point x="32" y="132" type="line" smooth="yes"/>
      <point x="32" y="47"/>
      <point x="73" y="-4"/>
      <point x="171" y="-4" type="curve" smooth="yes"/>
      <point x="237" y="-4"/>
      <point x="267" y="17"/>
      <point x="295" y="41" type="curve"/>
      <point x="295" y="0" type="line"/>
      <point x="360" y="0" type="line"/>
      <point x="360" y="429" type="line" smooth="yes"/>
      <point x="360" y="519"/>
      <point x="313" y="573"/>
      <point x="191" y="573" type="curve" smooth="yes"/>
      <point x="138" y="573"/>
      <point x="87" y="564"/>
    </contour>
    <contour>
      <point x="294" y="92" type="line"/>
      <point x="269" y="71"/>
      <point x="229" y="52"/>
      <point x="182" y="52" type="curve" smooth="yes"/>
      <point x="120" y="52"/>
      <point x="99" y="79"/>
      <point x="99" y="131" type="curve" smooth="yes"/>
      <point x="99" y="162" type="line" smooth="yes"/>
      <point x="99" y="207"/>
      <point x="115" y="231"/>
      <point x="177" y="249" type="curve" smooth="yes"/>
      <point x="294" y="281" type="line"/>
    </contour>
  </outline>
</glyph>
<glyph name="b" format="1">
  <advance width="447"/>
  <unicode hex="0062"/>
  <outline>
    <contour>
      <point x="70" y="719" type="line"/>
      <point x="70" y="0" type="line"/>
      <point x="239" y="0" type="line"/>
      <point x="327" y="0"/>
      <point x="387" y="51"/>
      <point x="387" y="148" type="curve" smooth="yes"/>
      <point x="387" y="438" type="line" smooth="yes"/>
      <point x="387" y="524"/>
      <point x="334" y="571"/>
      <point x="253" y="571" type="curve" smooth="yes"/>
      <point x="207" y="571"/>
      <point x="161" y="555"/>
      <point x="137" y="546" type="curve"/>
      <point x="137" y="719" type="line"/>
    </contour>
    <contour>
      <point x="319" y="432" type="curve" smooth="yes"/>
      <point x="319" y="152" type="line" smooth="yes"/>
      <point x="319" y="90"/>
      <point x="284" y="62"/>
      <point x="223" y="62" type="curve" smooth="yes"/>
      <point x="138" y="62" type="line"/>
      <point x="138" y="483" type="line"/>
      <point x="171" y="495"/>
      <point x="206" y="507"/>
      <point x="244" y="507" type="curve" smooth="yes"/>
      <point x="291" y="507"/>
      <point x="319" y="484"/>
    </contour>
  </outline>
</glyph>
<glyph name="c" format="1">
  <advance width="370"/>
  <unicode hex="0063"/>
  <outline>
    <contour>
      <point x="60" y="431" type="curve" smooth="yes"/>
      <point x="60" y="136" type="line" smooth="yes"/>
      <point x="60" y="46"/>
      <point x="108" y="-5"/>
      <point x="227" y="-5" type="curve" smooth="yes"/>
      <point x="273" y="-5"/>
      <point x="307" y="2"/>
      <point x="334" y="9" type="curve"/>
      <point x="334" y="72" type="line"/>
      <point x="308" y="64"/>
      <point x="273" y="57"/>
      <point x="231" y="57" type="curve" smooth="yes"/>
      <point x="147" y="57"/>
      <point x="128" y="86"/>
      <point x="128" y="138" type="curve" smooth="yes"/>
      <point x="128" y="429" type="line" smooth="yes"/>
      <point x="128" y="481"/>
      <point x="147" y="510"/>
      <point x="231" y="510" type="curve" smooth="yes"/>
      <point x="269" y="510"/>
      <point x="306" y="505"/>
      <point x="332" y="497" type="curve"/>
      <point x="332" y="559" type="line"/>
      <point x="307" y="567"/>
      <point x="273" y="573"/>
      <point x="227" y="573" type="curve" smooth="yes"/>
      <point x="108" y="573"/>
      <point x="60" y="521"/>
    </contour>
  </outline>
</glyph>
<glyph name="d" format="1">
  <advance width="446"/>
  <unicode hex="0064"/>
  <outline>
    <contour>
      <point x="309" y="719" type="line"/>
      <point x="309" y="568" type="line"/>
      <point x="213" y="568" type="line"/>
      <point x="122" y="568"/>
      <point x="60" y="516"/>
      <point x="60" y="419" type="curve"/>
      <point x="60" y="140" type="line" smooth="yes"/>
      <point x="60" y="49"/>
      <point x="108" y="-3"/>
      <point x="201" y="-3" type="curve"/>
      <point x="259" y="-3"/>
      <point x="290" y="16"/>
      <point x="310" y="33" type="curve"/>
      <point x="310" y="0" type="line"/>
      <point x="377" y="0" type="line"/>
      <point x="377" y="719" type="line"/>
    </contour>
    <contour>
      <point x="309" y="93" type="line"/>
      <point x="291" y="76"/>
      <point x="257" y="58"/>
      <point x="211" y="58" type="curve"/>
      <point x="155" y="58"/>
      <point x="128" y="86"/>
      <point x="128" y="144" type="curve" smooth="yes"/>
      <point x="128" y="418" type="line" smooth="yes"/>
      <point x="128" y="477"/>
      <point x="162" y="506"/>
      <point x="225" y="506" type="curve" smooth="yes"/>
      <point x="309" y="506" type="line"/>
    </contour>
  </outline>
</glyph>
<glyph name="e" format="1">
  <advance width="436"/>
  <unicode hex="0065"/>
  <outline>
    <contour>
      <point x="60" y="423" type="curve" smooth="yes"/>
      <point x="60" y="173" type="line"/>
      <point x="127" y="173" type="line"/>
      <point x="127" y="422" type="line" smooth="yes"/>
      <point x="127" y="479"/>
      <point x="152" y="519"/>
      <point x="222" y="519" type="curve" smooth="yes"/>
      <point x="291" y="519"/>
      <point x="317" y="479"/>
      <point x="317" y="422" type="curve" smooth="yes"/>
      <point x="317" y="266" type="line"/>
      <point x="382" y="266" type="line"/>
      <point x="382" y="423" type="line" smooth="yes"/>
      <point x="382" y="511"/>
      <point x="335" y="578"/>
      <point x="222" y="578" type="curve" smooth="yes"/>
      <point x="108" y="578"/>
      <point x="60" y="511"/>
    </contour>
    <contour>
      <point x="60" y="189" type="line"/>
      <point x="60" y="144" type="line" smooth="yes"/>
      <point x="60" y="46"/>
      <point x="119" y="-5"/>
      <point x="247" y="-5" type="curve" smooth="yes"/>
      <point x="300" y="-5"/>
      <point x="337" y="2"/>
      <point x="365" y="11" type="curve"/>
      <point x="365" y="74" type="line"/>
      <point x="337" y="66"/>
      <point x="296" y="57"/>
      <point x="250" y="57" type="curve" smooth="yes"/>
      <point x="160" y="57"/>
      <point x="127" y="88"/>
      <point x="127" y="146" type="curve" smooth="yes"/>
      <point x="127" y="189" type="line"/>
    </contour>
    <contour>
      <point x="107" y="307" type="line"/>
      <point x="107" y="249" type="line"/>
      <point x="382" y="249" type="line"/>
      <point x="382" y="307" type="line"/>
    </contour>
  </outline>
</glyph>
<glyph name="f" format="1">
  <advance width="272"/>
  <unicode hex="0066"/>
  <outline>
    <contour>
      <point x="91" y="604" type="curve" smooth="yes"/>
      <point x="91" y="568" type="line"/>
      <point x="34" y="568" type="line"/>
      <point x="34" y="510" type="line"/>
      <point x="91" y="510" type="line"/>
      <point x="91" y="0" type="line"/>
      <point x="159" y="0" type="line"/>
      <point x="159" y="510" type="line"/>
      <point x="265" y="510" type="line"/>
      <point x="265" y="568" type="line"/>
      <point x="159" y="568" type="line"/>
      <point x="159" y="604" type="line" smooth="yes"/>
      <point x="159" y="659"/>
      <point x="186" y="680"/>
      <point x="232" y="680" type="curve" smooth="yes"/>
      <point x="246" y="680"/>
      <point x="261" y="679"/>
      <point x="272" y="676" type="curve"/>
      <point x="272" y="735" type="line"/>
      <point x="259" y="737"/>
      <point x="242" y="738"/>
      <point x="228" y="738" type="curve" smooth="yes"/>
      <point x="136" y="738"/>
      <point x="91" y="689"/>
    </contour>
  </outline>
</glyph>
<glyph name="g" format="1">
  <advance width="446"/>
  <unicode hex="0067"/>
  <outline>
    <contour>
      <point x="93" y="150" type="curve" smooth="yes"/>
      <point x="93" y="134" type="line" smooth="yes"/>
      <point x="93" y="78"/>
      <point x="137" y="48"/>
      <point x="216" y="48" type="curve" smooth="yes"/>
      <point x="276" y="48" type="line" smooth="yes"/>
      <point x="341" y="48"/>
      <point x="350" y="23"/>
      <point x="350" y="-13" type="curve" smooth="yes"/>
      <point x="350" y="-22" type="line" smooth="yes"/>
      <point x="350" y="-64"/>
      <point x="321" y="-90"/>
      <point x="231" y="-90" type="curve" smooth="yes"/>
      <point x="195" y="-90" type="line" smooth="yes"/>
      <point x="125" y="-90"/>
      <point x="79" y="-76"/>
      <point x="40" y="-53" type="curve"/>
      <point x="40" y="-118" type="line"/>
      <point x="70" y="-135"/>
      <point x="122" y="-149"/>
      <point x="195" y="-149" type="curve" smooth="yes"/>
      <point x="236" y="-149" type="line" smooth="yes"/>
      <point x="366" y="-149"/>
      <point x="416" y="-100"/>
      <point x="416" y="-22" type="curve" smooth="yes"/>
      <point x="416" y="-10" type="line" smooth="yes"/>
      <point x="416" y="65"/>
      <point x="377" y="106"/>
      <point x="279" y="106" type="curve" smooth="yes"/>
      <point x="221" y="106" type="line" smooth="yes"/>
      <point x="171" y="106"/>
      <point x="154" y="121"/>
      <point x="154" y="153" type="curve" smooth="yes"/>
      <point x="154" y="190"/>
      <point x="174" y="207"/>
      <point x="212" y="207" type="curve"/>
      <point x="199" y="212"/>
      <point x="184" y="218"/>
      <point x="168" y="218" type="curve"/>
      <point x="130" y="220"/>
      <point x="93" y="195"/>
    </contour>
    <contour>
      <point x="44" y="432" type="curve" smooth="yes"/>
      <point x="44" y="353" type="line" smooth="yes"/>
      <point x="44" y="265"/>
      <point x="96" y="207"/>
      <point x="211" y="207" type="curve" smooth="yes"/>
      <point x="325" y="207"/>
      <point x="377" y="265"/>
      <point x="377" y="353" type="curve" smooth="yes"/>
      <point x="377" y="432" type="line" smooth="yes"/>
      <point x="377" y="520"/>
      <point x="325" y="578"/>
      <point x="211" y="578" type="curve" smooth="yes"/>
      <point x="96" y="578"/>
      <point x="44" y="520"/>
    </contour>
    <contour>
      <point x="309" y="432" type="curve" smooth="yes"/>
      <point x="309" y="353" type="line" smooth="yes"/>
      <point x="309" y="296"/>
      <point x="281" y="266"/>
      <point x="211" y="266" type="curve" smooth="yes"/>
      <point x="140" y="266"/>
      <point x="112" y="296"/>
      <point x="112" y="353" type="curve" smooth="yes"/>
      <point x="112" y="432" type="line" smooth="yes"/>
      <point x="112" y="489"/>
      <point x="140" y="520"/>
      <point x="211" y="520" type="curve" smooth="yes"/>
      <point x="281" y="520"/>
      <point x="309" y="489"/>
    </contour>
    <contour>
      <point x="409" y="610" type="line"/>
      <point x="359" y="610"/>
      <point x="324" y="585"/>
      <point x="316" y="533" type="curve"/>
      <point x="331" y="516" type="line"/>
      <point x="344" y="532"/>
      <point x="363" y="544"/>
      <point x="391" y="544" type="curve" smooth="yes"/>
      <point x="425" y="544" type="line"/>
      <point x="425" y="610" type="line"/>
    </contour>
  </outline>
</glyph>
<glyph name="h" format="1">
  <advance width="451"/>
  <unicode hex="0068"/>
  <outline>
    <contour>
      <point x="70" y="719" type="line"/>
      <point x="70" y="0" type="line"/>
      <point x="138" y="0" type="line"/>
      <point x="138" y="481" type="line"/>
      <point x="165" y="494"/>
      <point x="205" y="507"/>
      <point x="243" y="507" type="curve" smooth="yes"/>
      <point x="290" y="507"/>
      <point x="318" y="484"/>
      <point x="318" y="432" type="curve" smooth="yes"/>
      <point x="318" y="0" type="line"/>
      <point x="386" y="0" type="line"/>
      <point x="386" y="438" type="line" smooth="yes"/>
      <point x="386" y="525"/>
      <point x="332" y="570"/>
      <point x="250" y="570" type="curve" smooth="yes"/>
      <point x="207" y="570"/>
      <point x="167" y="558"/>
      <point x="137" y="545" type="curve"/>
      <point x="137" y="719" type="line"/>
    </contour>
  </outline>
</glyph>
<glyph name="i" format="1">
  <advance width="207"/>
  <unicode hex="0069"/>
  <outline>
    <contour>
      <point x="70" y="565" type="line"/>
      <point x="70" y="0" type="line"/>
      <point x="138" y="0" type="line"/>
      <point x="138" y="565" type="line"/>
    </contour>
    <contour>
      <point x="62" y="678" type="curve" smooth="yes"/>
      <point x="62" y="652"/>
      <point x="73" y="634"/>
      <point x="104" y="634" type="curve" smooth="yes"/>
      <point x="134" y="634"/>
      <point x="146" y="652"/>
      <point x="146" y="678" type="curve" smooth="yes"/>
      <point x="146" y="705"/>
      <point x="134" y="723"/>
      <point x="104" y="723" type="curve" smooth="yes"/>
      <point x="73" y="723"/>
      <point x="62" y="705"/>
    </contour>
  </outline>
</glyph>
<glyph name="j" format="1">
  <advance width="207"/>
  <unicode hex="006A"/>
  <outline>
    <contour>
      <point x="70" y="565" type="line"/>
      <point x="70" y="-11" type="line" smooth="yes"/>
      <point x="70" y="-67"/>
      <point x="49" y="-89"/>
      <point x="2" y="-89" type="curve" smooth="yes"/>
      <point x="-7" y="-89"/>
      <point x="-17" y="-88"/>
      <point x="-25" y="-87" type="curve"/>
      <point x="-25" y="-148" type="line"/>
      <point x="-15" y="-150"/>
      <point x="-5" y="-151"/>
      <point x="4" y="-151" type="curve" smooth="yes"/>
      <point x="93" y="-151"/>
      <point x="138" y="-98"/>
      <point x="138" y="-11" type="curve" smooth="yes"/>
      <point x="138" y="565" type="line"/>
    </contour>
    <contour>
      <point x="62" y="678" type="curve" smooth="yes"/>
      <point x="62" y="652"/>
      <point x="73" y="634"/>
      <point x="104" y="634" type="curve" smooth="yes"/>
      <point x="134" y="634"/>
      <point x="146" y="652"/>
      <point x="146" y="678" type="curve" smooth="yes"/>
      <point x="146" y="705"/>
      <point x="134" y="723"/>
      <point x="104" y="723" type="curve" smooth="yes"/>
      <point x="73" y="723"/>
      <point x="62" y="705"/>
    </contour>
  </outline>
</glyph>
<glyph name="k" format="1">
  <advance width="401"/>
  <unicode hex="006B"/>
  <outline>
    <contour>
      <point x="302" y="568" type="line"/>
      <point x="175" y="294" type="line"/>
      <point x="309" y="0" type="line"/>
      <point x="384" y="0" type="line"/>
      <point x="248" y="295" type="line"/>
      <point x="374" y="568" type="line"/>
    </contour>
    <contour>
      <point x="70" y="719" type="line"/>
      <point x="70" y="0" type="line"/>
      <point x="137" y="0" type="line"/>
      <point x="137" y="719" type="line"/>
    </contour>
  </outline>
</glyph>
<glyph name="l" format="1">
  <advance width="207"/>
  <unicode hex="006C"/>
  <outline>
    <contour>
      <point x="70" y="719" type="line"/>
      <point x="70" y="0" type="line"/>
      <point x="138" y="0" type="line"/>
      <point x="138" y="719" type="line"/>
    </contour>
  </outline>
</glyph>
<glyph name="m" format="1">
  <advance width="699"/>
  <unicode hex="006D"/>
  <outline>
    <contour>
      <point x="356" y="529" type="curve"/>
      <point x="333" y="556"/>
      <point x="296" y="570"/>
      <point x="252" y="570" type="curve" smooth="yes"/>
      <point x="205" y="570"/>
      <point x="159" y="552"/>
      <point x="135" y="542" type="curve"/>
      <point x="135" y="568" type="line"/>
      <point x="70" y="568" type="line"/>
      <point x="70" y="0" type="line"/>
      <point x="138" y="0" type="line"/>
      <point x="138" y="481" type="line"/>
      <point x="171" y="496"/>
      <point x="204" y="507"/>
      <point x="242" y="507" type="curve" smooth="yes"/>
      <point x="289" y="507"/>
      <point x="318" y="484"/>
      <point x="318" y="432" type="curve" smooth="yes"/>
      <point x="318" y="0" type="line"/>
      <point x="386" y="0" type="line"/>
      <point x="386" y="432" type="line" smooth="yes"/>
      <point x="386" y="447"/>
      <point x="384" y="461"/>
      <point x="380" y="473" type="curve"/>
      <point x="417" y="496"/>
      <point x="453" y="507"/>
      <point x="491" y="507" type="curve" smooth="yes"/>
      <point x="538" y="507"/>
      <point x="566" y="484"/>
      <point x="566" y="432" type="curve" smooth="yes"/>
      <point x="566" y="0" type="line"/>
      <point x="634" y="0" type="line"/>
      <point x="634" y="438" type="line" smooth="yes"/>
      <point x="634" y="524"/>
      <point x="581" y="570"/>
      <point x="500" y="570" type="curve" smooth="yes"/>
      <point x="456" y="570"/>
      <point x="406" y="558"/>
    </contour>
  </outline>
</glyph>
<glyph name="n" format="1">
  <advance width="451"/>
  <unicode hex="006E"/>
  <outline>
    <contour>
      <point x="135" y="542" type="curve"/>
      <point x="135" y="568" type="line"/>
      <point x="70" y="568" type="line"/>
      <point x="70" y="0" type="line"/>
      <point x="138" y="0" type="line"/>
      <point x="138" y="481" type="line"/>
      <point x="171" y="496"/>
      <point x="204" y="507"/>
      <point x="242" y="507" type="curve"/>
      <point x="289" y="507"/>
      <point x="318" y="484"/>
      <point x="318" y="432" type="curve" smooth="yes"/>
      <point x="318" y="0" type="line"/>
      <point x="386" y="0" type="line"/>
      <point x="386" y="438" type="line" smooth="yes"/>
      <point x="386" y="524"/>
      <point x="333" y="570"/>
      <point x="252" y="570" type="curve"/>
      <point x="205" y="570"/>
      <point x="159" y="552"/>
    </contour>
  </outline>
</glyph>
<glyph name="o" format="1">
  <advance width="442"/>
  <unicode hex="006F"/>
  <outline>
    <contour>
      <point x="60" y="423" type="curve" smooth="yes"/>
      <point x="60" y="144" type="line" smooth="yes"/>
      <point x="60" y="56"/>
      <point x="107" y="-10"/>
      <point x="221" y="-10" type="curve" smooth="yes"/>
      <point x="335" y="-10"/>
      <point x="382" y="56"/>
      <point x="382" y="144" type="curve" smooth="yes"/>
      <point x="382" y="423" type="line" smooth="yes"/>
      <point x="382" y="511"/>
      <point x="335" y="578"/>
      <point x="221" y="578" type="curve" smooth="yes"/>
      <point x="107" y="578"/>
      <point x="60" y="511"/>
    </contour>
    <contour>
      <point x="315" y="422" type="curve" smooth="yes"/>
      <point x="315" y="145" type="line" smooth="yes"/>
      <point x="315" y="89"/>
      <point x="291" y="50"/>
      <point x="221" y="50" type="curve" smooth="yes"/>
      <point x="151" y="50"/>
      <point x="127" y="89"/>
      <point x="127" y="145" type="curve" smooth="yes"/>
      <point x="127" y="422" type="line" smooth="yes"/>
      <point x="127" y="479"/>
      <point x="151" y="518"/>
      <point x="221" y="518" type="curve" smooth="yes"/>
      <point x="291" y="518"/>
      <point x="315" y="479"/>
    </contour>
  </outline>
</glyph>
<glyph name="p" format="1">
  <advance width="447"/>
  <unicode hex="0070"/>
  <outline>
    <contour>
      <point x="135" y="541" type="curve"/>
      <point x="135" y="568" type="line"/>
      <point x="70" y="568" type="line"/>
      <point x="70" y="-149" type="line"/>
      <point x="138" y="-149" type="line"/>
      <point x="138" y="0" type="line"/>
      <point x="240" y="0" type="line" smooth="yes"/>
      <point x="328" y="0"/>
      <point x="387" y="55"/>
      <point x="387" y="149" type="curve" smooth="yes"/>
      <point x="387" y="438" type="line" smooth="yes"/>
      <point x="387" y="524"/>
      <point x="334" y="570"/>
      <point x="253" y="570" type="curve" smooth="yes"/>
      <point x="206" y="570"/>
      <point x="158" y="551"/>
    </contour>
    <contour>
      <point x="319" y="432" type="curve" smooth="yes"/>
      <point x="319" y="154" type="line" smooth="yes"/>
      <point x="319" y="93"/>
      <point x="285" y="62"/>
      <point x="224" y="62" type="curve" smooth="yes"/>
      <point x="138" y="62" type="line"/>
      <point x="138" y="481" type="line"/>
      <point x="171" y="496"/>
      <point x="205" y="507"/>
      <point x="243" y="507" type="curve" smooth="yes"/>
      <point x="290" y="507"/>
      <point x="319" y="484"/>
    </contour>
  </outline>
</glyph>
<glyph name="q" format="1">
  <advance width="446"/>
  <unicode hex="0071"/>
  <outline>
    <contour>
      <point x="216" y="568" type="line"/>
      <point x="121" y="568"/>
      <point x="60" y="510"/>
      <point x="60" y="414" type="curve" smooth="yes"/>
      <point x="60" y="143" type="line" smooth="yes"/>
      <point x="60" y="49"/>
      <point x="107" y="-2"/>
      <point x="202" y="-2" type="curve" smooth="yes"/>
      <point x="257" y="-2"/>
      <point x="290" y="13"/>
      <point x="310" y="28" type="curve"/>
      <point x="310" y="-149" type="line"/>
      <point x="377" y="-149" type="line"/>
      <point x="377" y="568" type="line"/>
    </contour>
    <contour>
      <point x="309" y="93" type="line"/>
      <point x="291" y="76"/>
      <point x="257" y="58"/>
      <point x="211" y="58" type="curve" smooth="yes"/>
      <point x="155" y="58"/>
      <point x="128" y="87"/>
      <point x="128" y="145" type="curve" smooth="yes"/>
      <point x="128" y="413" type="line" smooth="yes"/>
      <point x="128" y="476"/>
      <point x="165" y="506"/>
      <point x="227" y="506" type="curve" smooth="yes"/>
      <point x="309" y="506" type="line"/>
    </contour>
  </outline>
</glyph>
<glyph name="r" format="1">
  <advance width="281"/>
  <unicode hex="0072"/>
  <outline>
    <contour>
      <point x="251" y="571" type="line"/>
      <point x="193" y="571"/>
      <point x="174" y="552"/>
      <point x="135" y="524" type="curve"/>
      <point x="135" y="568" type="line"/>
      <point x="70" y="568" type="line"/>
      <point x="70" y="0" type="line"/>
      <point x="138" y="0" type="line"/>
      <point x="138" y="460" type="line"/>
      <point x="182" y="491"/>
      <point x="200" y="506"/>
      <point x="242" y="506" type="curve"/>
      <point x="276" y="506" type="line"/>
      <point x="276" y="571" type="line"/>
    </contour>
  </outline>
</glyph>
<glyph name="s" format="1">
  <advance width="360"/>
  <unicode hex="0073"/>
  <outline>
    <contour>
      <point x="29" y="435" type="curve" smooth="yes"/>
      <point x="29" y="401" type="line" smooth="yes"/>
      <point x="29" y="335"/>
      <point x="59" y="299"/>
      <point x="113" y="274" type="curve" smooth="yes"/>
      <point x="200" y="233" type="line" smooth="yes"/>
      <point x="251" y="209"/>
      <point x="264" y="193"/>
      <point x="264" y="155" type="curve" smooth="yes"/>
      <point x="264" y="135" type="line" smooth="yes"/>
      <point x="264" y="86"/>
      <point x="238" y="57"/>
      <point x="148" y="57" type="curve" smooth="yes"/>
      <point x="101" y="57"/>
      <point x="61" y="65"/>
      <point x="32" y="75" type="curve"/>
      <point x="32" y="11" type="line"/>
      <point x="61" y="2"/>
      <point x="99" y="-5"/>
      <point x="152" y="-5" type="curve" smooth="yes"/>
      <point x="274" y="-5"/>
      <point x="332" y="44"/>
      <point x="332" y="134" type="curve" smooth="yes"/>
      <point x="332" y="160" type="line"/>
      <point x="332" y="222"/>
      <point x="296" y="256"/>
      <point x="241" y="282" type="curve" smooth="yes"/>
      <point x="155" y="324" type="line" smooth="yes"/>
      <point x="111" y="344"/>
      <point x="96" y="361"/>
      <point x="96" y="407" type="curve" smooth="yes"/>
      <point x="96" y="433" type="line" smooth="yes"/>
      <point x="96" y="485"/>
      <point x="113" y="511"/>
      <point x="199" y="511" type="curve" smooth="yes"/>
      <point x="241" y="511"/>
      <point x="280" y="503"/>
      <point x="308" y="493" type="curve"/>
      <point x="308" y="556" type="line"/>
      <point x="280" y="565"/>
      <point x="238" y="573"/>
      <point x="197" y="573" type="curve" smooth="yes"/>
      <point x="75" y="573"/>
      <point x="29" y="525"/>
    </contour>
  </outline>
</glyph>
<glyph name="t" format="1">
  <advance width="289"/>
  <unicode hex="0074"/>
  <outline>
    <contour>
      <point x="90" y="671" type="line"/>
      <point x="70" y="568" type="line"/>
      <point x="5" y="568" type="line"/>
      <point x="5" y="508" type="line"/>
      <point x="68" y="508" type="line"/>
      <point x="68" y="121" type="line" smooth="yes"/>
      <point x="68" y="40"/>
      <point x="112" y="-4"/>
      <point x="200" y="-4" type="curve" smooth="yes"/>
      <point x="231" y="-4"/>
      <point x="266" y="4"/>
      <point x="274" y="6" type="curve"/>
      <point x="274" y="68" type="line"/>
      <point x="265" y="64"/>
      <point x="234" y="57"/>
      <point x="206" y="57" type="curve" smooth="yes"/>
      <point x="160" y="57"/>
      <point x="136" y="75"/>
      <point x="136" y="124" type="curve" smooth="yes"/>
      <point x="136" y="508" type="line"/>
      <point x="264" y="508" type="line"/>
      <point x="264" y="568" type="line"/>
      <point x="136" y="568" type="line"/>
      <point x="136" y="671" type="line"/>
    </contour>
  </outline>
</glyph>
<glyph name="u" format="1">
  <advance width="451"/>
  <unicode hex="0075"/>
  <outline>
    <contour>
      <point x="314" y="568" type="line"/>
      <point x="314" y="90" type="line"/>
      <point x="312" y="89"/>
      <point x="273" y="58"/>
      <point x="216" y="58" type="curve" smooth="yes"/>
      <point x="161" y="58"/>
      <point x="133" y="88"/>
      <point x="133" y="146" type="curve" smooth="yes"/>
      <point x="133" y="568" type="line"/>
      <point x="65" y="568" type="line"/>
      <point x="65" y="140" type="line" smooth="yes"/>
      <point x="65" y="49"/>
      <point x="113" y="-2"/>
      <point x="206" y="-2" type="curve" smooth="yes"/>
      <point x="268" y="-2"/>
      <point x="313" y="25"/>
      <point x="316" y="27" type="curve"/>
      <point x="316" y="0" type="line"/>
      <point x="382" y="0" type="line"/>
      <point x="382" y="568" type="line"/>
    </contour>
  </outline>
</glyph>
<glyph name="v" format="1">
  <advance width="384"/>
  <unicode hex="0076"/>
  <outline>
    <contour>
      <point x="297" y="568" type="line"/>
      <point x="242" y="304" type="line" smooth="yes"/>
      <point x="217" y="181"/>
      <point x="192" y="47"/>
      <point x="192" y="47" type="curve"/>
      <point x="192" y="47"/>
      <point x="169" y="180"/>
      <point x="143" y="304" type="curve" smooth="yes"/>
      <point x="87" y="568" type="line"/>
      <point x="17" y="568" type="line"/>
      <point x="144" y="0" type="line"/>
      <point x="241" y="0" type="line"/>
      <point x="366" y="568" type="line"/>
    </contour>
  </outline>
</glyph>
<glyph name="w" format="1">
  <advance width="597"/>
  <unicode hex="0077"/>
  <outline>
    <contour>
      <point x="510" y="568" type="line"/>
      <point x="427" y="67" type="line"/>
      <point x="337" y="568" type="line"/>
      <point x="261" y="568" type="line"/>
      <point x="170" y="67" type="line"/>
      <point x="87" y="568" type="line"/>
      <point x="17" y="568" type="line"/>
      <point x="122" y="0" type="line"/>
      <point x="216" y="0" type="line"/>
      <point x="269" y="288" type="line"/>
      <point x="285" y="370"/>
      <point x="297" y="468"/>
      <point x="299" y="478" type="curve"/>
      <point x="300" y="468"/>
      <point x="316" y="358"/>
      <point x="329" y="288" type="curve" smooth="yes"/>
      <point x="381" y="0" type="line"/>
      <point x="476" y="0" type="line"/>
      <point x="579" y="568" type="line"/>
    </contour>
  </outline>
</glyph>
<glyph name="x" format="1">
  <advance width="360"/>
  <unicode hex="0078"/>
  <outline>
    <contour>
      <point x="280" y="568" type="line"/>
      <point x="180" y="352" type="line"/>
      <point x="80" y="568" type="line"/>
      <point x="9" y="568" type="line"/>
      <point x="145" y="284" type="line"/>
      <point x="9" y="0" type="line"/>
      <point x="80" y="0" type="line"/>
      <point x="180" y="217" type="line"/>
      <point x="280" y="0" type="line"/>
      <point x="351" y="0" type="line"/>
      <point x="214" y="284" type="line"/>
      <point x="351" y="568" type="line"/>
    </contour>
  </outline>
</glyph>
<glyph name="y" format="1">
  <advance width="385"/>
  <unicode hex="0079"/>
  <outline>
    <contour>
      <point x="299" y="568" type="line"/>
      <point x="237" y="281" type="line"/>
      <point x="213" y="165"/>
      <point x="192" y="47"/>
      <point x="192" y="47" type="curve"/>
      <point x="192" y="47"/>
      <point x="173" y="165"/>
      <point x="148" y="281" type="curve" smooth="yes"/>
      <point x="87" y="568" type="line"/>
      <point x="18" y="568" type="line"/>
      <point x="143" y="0" type="line"/>
      <point x="177" y="0" type="line"/>
      <point x="145" y="-149" type="line"/>
      <point x="211" y="-149" type="line"/>
      <point x="367" y="568" type="line"/>
    </contour>
  </outline>
</glyph>
<glyph name="z" format="1">
  <advance width="319"/>
  <unicode hex="007A"/>
  <outline>
    <contour>
      <point x="25" y="568" type="line"/>
      <point x="25" y="508" type="line"/>
      <point x="227" y="508" type="line"/>
      <point x="20" y="53" type="line"/>
      <point x="20" y="0" type="line"/>
      <point x="298" y="0" type="line"/>
      <point x="298" y="59" type="line"/>
      <point x="88" y="59" type="line"/>
      <point x="298" y="515" type="line"/>
      <point x="298" y="568" type="line"/>
    </contour>
  </outline>
</glyph>
<glyph name="braceleft" format="1">
  <advance width="349"/>
  <unicode hex="007B"/>
  <outline>
    <contour>
      <point x="198" y="654" type="line"/>
      <point x="198" y="695"/>
      <point x="219" y="722"/>
      <point x="281" y="722" type="curve" smooth="yes"/>
      <point x="295" y="722" type="line"/>
      <point x="295" y="780" type="line"/>
      <point x="279" y="780" type="line" smooth="yes"/>
      <point x="188" y="780"/>
      <point x="138" y="731"/>
      <point x="138" y="653" type="curve" smooth="yes"/>
      <point x="138" y="425" type="line" smooth="yes"/>
      <point x="138" y="381"/>
      <point x="112" y="353"/>
      <point x="61" y="353" type="curve" smooth="yes"/>
      <point x="59" y="353" type="line"/>
      <point x="59" y="296" type="line"/>
      <point x="61" y="296" type="line" smooth="yes"/>
      <point x="112" y="296"/>
      <point x="138" y="268"/>
      <point x="138" y="225" type="curve" smooth="yes"/>
      <point x="138" y="-4" type="line" smooth="yes"/>
      <point x="138" y="-82"/>
      <point x="188" y="-131"/>
      <point x="279" y="-131" type="curve" smooth="yes"/>
      <point x="295" y="-131" type="line"/>
      <point x="295" y="-73" type="line"/>
      <point x="281" y="-73" type="line" smooth="yes"/>
      <point x="219" y="-73"/>
      <point x="198" y="-46"/>
      <point x="198" y="-5" type="curve" smooth="yes"/>
      <point x="198" y="203" type="line" smooth="yes"/>
      <point x="198" y="274"/>
      <point x="181" y="316"/>
      <point x="112" y="325" type="curve"/>
      <point x="181" y="333"/>
      <point x="198" y="376"/>
      <point x="198" y="448" type="curve" smooth="yes"/>
    </contour>
  </outline>
</glyph>
<glyph name="bar" format="1">
  <advance width="207"/>
  <unicode hex="007C"/>
  <outline>
    <contour>
      <point x="77" y="801" type="line"/>
      <point x="77" y="-149" type="line"/>
      <point x="130" y="-149" type="line"/>
      <point x="130" y="801" type="line"/>
    </contour>
  </outline>
</glyph>
<glyph name="braceright" format="1">
  <advance width="348"/>
  <unicode hex="007D"/>
  <outline>
    <contour>
      <point x="286" y="353" type="line"/>
      <point x="236" y="353"/>
      <point x="210" y="381"/>
      <point x="210" y="425" type="curve" smooth="yes"/>
      <point x="210" y="653" type="line" smooth="yes"/>
      <point x="210" y="731"/>
      <point x="159" y="780"/>
      <point x="69" y="780" type="curve" smooth="yes"/>
      <point x="52" y="780" type="line"/>
      <point x="52" y="722" type="line"/>
      <point x="66" y="722" type="line" smooth="yes"/>
      <point x="129" y="722"/>
      <point x="150" y="695"/>
      <point x="150" y="654" type="curve" smooth="yes"/>
      <point x="150" y="448" type="line" smooth="yes"/>
      <point x="150" y="376"/>
      <point x="167" y="333"/>
      <point x="235" y="325" type="curve"/>
      <point x="167" y="316"/>
      <point x="150" y="274"/>
      <point x="150" y="203" type="curve" smooth="yes"/>
      <point x="150" y="-5" type="line" smooth="yes"/>
      <point x="150" y="-46"/>
      <point x="129" y="-73"/>
      <point x="66" y="-73" type="curve" smooth="yes"/>
      <point x="52" y="-73" type="line"/>
      <point x="52" y="-131" type="line"/>
      <point x="69" y="-131" type="line" smooth="yes"/>
      <point x="159" y="-131"/>
      <point x="210" y="-82"/>
      <point x="210" y="-4" type="curve" smooth="yes"/>
      <point x="210" y="225" type="line" smooth="yes"/>
      <point x="210" y="268"/>
      <point x="236" y="296"/>
      <point x="286" y="296" type="curve" smooth="yes"/>
      <point x="289" y="296" type="line"/>
      <point x="289" y="353" type="line"/>
    </contour>
  </outline>
</glyph>
<glyph name="asciitilde" format="1">
  <advance width="419"/>
  <unicode hex="007E"/>
  <outline>
    <contour>
      <point x="338" y="393" type="line"/>
      <point x="348" y="335"/>
      <point x="309" y="324"/>
      <point x="255" y="349" type="curve" smooth="yes"/>
      <point x="169" y="387" type="line" smooth="yes"/>
      <point x="100" y="418"/>
      <point x="23" y="394"/>
      <point x="23" y="312" type="curve"/>
      <point x="23" y="297"/>
      <point x="26" y="284"/>
      <point x="26" y="284" type="curve"/>
      <point x="80" y="284" type="line"/>
      <point x="70" y="342"/>
      <point x="113" y="351"/>
      <point x="163" y="328" type="curve"/>
      <point x="249" y="290" type="line"/>
      <point x="320" y="258"/>
      <point x="395" y="282"/>
      <point x="395" y="365" type="curve"/>
      <point x="395" y="380"/>
      <point x="393" y="393"/>
      <point x="393" y="393" type="curve"/>
    </contour>
  </outline>
</glyph>
<glyph name="cent" format="1">
  <advance width="400"/>
  <unicode hex="00A2"/>
  <outline>
    <contour>
      <point x="202" y="17" type="line"/>
      <point x="202" y="-78" type="line"/>
      <point x="263" y="-78" type="line"/>
      <point x="263" y="17" type="line"/>
    </contour>
    <contour>
      <point x="202" y="653" type="line"/>
      <point x="202" y="560" type="line"/>
      <point x="264" y="560" type="line"/>
      <point x="264" y="653" type="line"/>
    </contour>
    <component base="c" xOffset="9"/>
  </outline>
</glyph>
<glyph name="sterling" format="1">
  <advance width="457"/>
  <unicode hex="00A3"/>
  <outline>
    <contour>
      <point x="120" y="517" type="curve" smooth="yes"/>
      <point x="120" y="157" type="line" smooth="yes"/>
      <point x="120" y="61"/>
      <point x="52" y="64"/>
      <point x="45" y="62" type="curve"/>
      <point x="45" y="0" type="line"/>
      <point x="419" y="0" type="line"/>
      <point x="419" y="63" type="line"/>
      <point x="141" y="63" type="line"/>
      <point x="151" y="68"/>
      <point x="187" y="84"/>
      <point x="187" y="164" type="curve"/>
      <point x="187" y="515" type="line" smooth="yes"/>
      <point x="187" y="570"/>
      <point x="205" y="609"/>
      <point x="291" y="609" type="curve" smooth="yes"/>
      <point x="339" y="609"/>
      <point x="381" y="598"/>
      <point x="412" y="587" type="curve"/>
      <point x="412" y="653" type="line"/>
      <point x="386" y="662"/>
      <point x="341" y="672"/>
      <point x="289" y="672" type="curve" smooth="yes"/>
      <point x="169" y="672"/>
      <point x="120" y="611"/>
    </contour>
    <contour>
      <point x="58" y="375" type="line"/>
      <point x="58" y="317" type="line"/>
      <point x="360" y="317" type="line"/>
      <point x="360" y="375" type="line"/>
    </contour>
  </outline>
</glyph>
<glyph name="currency" format="1">
  <advance width="460"/>
  <unicode hex="00A4"/>
  <outline>
    <contour>
      <point x="75" y="374" type="curve" smooth="yes"/>
      <point x="75" y="296" type="line" smooth="yes"/>
      <point x="75" y="207"/>
      <point x="115" y="147"/>
      <point x="231" y="147" type="curve" smooth="yes"/>
      <point x="346" y="147"/>
      <point x="386" y="207"/>
      <point x="386" y="296" type="curve" smooth="yes"/>
      <point x="386" y="374" type="line" smooth="yes"/>
      <point x="386" y="464"/>
      <point x="346" y="524"/>
      <point x="231" y="524" type="curve" smooth="yes"/>
      <point x="115" y="524"/>
      <point x="75" y="464"/>
    </contour>
    <contour>
      <point x="44" y="177" type="line"/>
      <point x="88" y="133" type="line"/>
      <point x="164" y="208" type="line"/>
      <point x="118" y="250" type="line"/>
    </contour>
    <contour>
      <point x="308" y="198" type="line"/>
      <point x="373" y="133" type="line"/>
      <point x="417" y="177" type="line"/>
      <point x="349" y="243" type="line"/>
    </contour>
    <contour>
      <point x="320" y="373" type="curve" smooth="yes"/>
      <point x="320" y="297" type="line" smooth="yes"/>
      <point x="320" y="239"/>
      <point x="303" y="206"/>
      <point x="231" y="206" type="curve" smooth="yes"/>
      <point x="158" y="206"/>
      <point x="141" y="239"/>
      <point x="141" y="297" type="curve" smooth="yes"/>
      <point x="141" y="373" type="line" smooth="yes"/>
      <point x="141" y="432"/>
      <point x="158" y="464"/>
      <point x="231" y="464" type="curve" smooth="yes"/>
      <point x="303" y="464"/>
      <point x="320" y="432"/>
    </contour>
    <contour>
      <point x="44" y="493" type="line"/>
      <point x="118" y="421" type="line"/>
      <point x="163" y="464" type="line"/>
      <point x="88" y="537" type="line"/>
    </contour>
    <contour>
      <point x="306" y="472" type="line"/>
      <point x="343" y="421" type="line"/>
      <point x="417" y="493" type="line"/>
      <point x="373" y="537" type="line"/>
    </contour>
  </outline>
</glyph>
<glyph name="yen" format="1">
  <advance width="469"/>
  <unicode hex="00A5"/>
  <outline>
    <contour>
      <point x="379" y="653" type="line"/>
      <point x="273" y="373" type="line"/>
      <point x="243" y="292" type="line"/>
      <point x="214" y="373" type="line"/>
      <point x="107" y="653" type="line"/>
      <point x="40" y="653" type="line"/>
      <point x="134" y="412" type="line"/>
      <point x="41" y="412" type="line"/>
      <point x="41" y="358" type="line"/>
      <point x="154" y="358" type="line"/>
      <point x="195" y="257" type="line"/>
      <point x="41" y="257" type="line"/>
      <point x="41" y="204" type="line"/>
      <point x="211" y="204" type="line"/>
      <point x="211" y="0" type="line"/>
      <point x="275" y="0" type="line"/>
      <point x="275" y="204" type="line"/>
      <point x="443" y="204" type="line"/>
      <point x="443" y="257" type="line"/>
      <point x="290" y="257" type="line"/>
      <point x="330" y="358" type="line"/>
      <point x="443" y="358" type="line"/>
      <point x="443" y="412" type="line"/>
      <point x="350" y="412" type="line"/>
      <point x="445" y="653" type="line"/>
    </contour>
  </outline>
</glyph>
<glyph name="brokenbar" format="1">
  <advance width="207"/>
  <unicode hex="00A6"/>
  <outline>
    <contour>
      <point x="77" y="801" type="line"/>
      <point x="77" y="423" type="line"/>
      <point x="130" y="423" type="line"/>
      <point x="130" y="801" type="line"/>
    </contour>
    <contour>
      <point x="77" y="229" type="line"/>
      <point x="77" y="-149" type="line"/>
      <point x="130" y="-149" type="line"/>
      <point x="130" y="229" type="line"/>
    </contour>
  </outline>
</glyph>
<glyph name="section" format="1">
  <advance width="363"/>
  <unicode hex="00A7"/>
  <outline>
    <contour>
      <point x="30" y="534" type="curve" smooth="yes"/>
      <point x="30" y="519" type="line" smooth="yes"/>
      <point x="30" y="454"/>
      <point x="61" y="418"/>
      <point x="115" y="393" type="curve" smooth="yes"/>
      <point x="201" y="352" type="line" smooth="yes"/>
      <point x="253" y="328"/>
      <point x="267" y="312"/>
      <point x="267" y="274" type="curve" smooth="yes"/>
      <point x="267" y="260" type="line"/>
      <point x="334" y="260" type="line"/>
      <point x="334" y="279" type="line" smooth="yes"/>
      <point x="334" y="341"/>
      <point x="298" y="375"/>
      <point x="243" y="401" type="curve" smooth="yes"/>
      <point x="157" y="442" type="line" smooth="yes"/>
      <point x="112" y="462"/>
      <point x="97" y="475"/>
      <point x="97" y="528" type="curve" smooth="yes"/>
      <point x="97" y="584"/>
      <point x="114" y="610"/>
      <point x="201" y="610" type="curve" smooth="yes"/>
      <point x="242" y="610"/>
      <point x="281" y="604"/>
      <point x="310" y="594" type="curve"/>
      <point x="310" y="657" type="line"/>
      <point x="281" y="666"/>
      <point x="240" y="672"/>
      <point x="199" y="672" type="curve" smooth="yes"/>
      <point x="76" y="672"/>
      <point x="30" y="624"/>
    </contour>
    <contour>
      <point x="105" y="262" type="line"/>
      <point x="38" y="262" type="line"/>
      <point x="38" y="243" type="line" smooth="yes"/>
      <point x="38" y="178"/>
      <point x="68" y="141"/>
      <point x="122" y="116" type="curve" smooth="yes"/>
      <point x="209" y="75" type="line" smooth="yes"/>
      <point x="262" y="51"/>
      <point x="274" y="34"/>
      <point x="274" y="-7" type="curve" smooth="yes"/>
      <point x="274" y="-63"/>
      <point x="247" y="-88"/>
      <point x="157" y="-88" type="curve" smooth="yes"/>
      <point x="110" y="-88"/>
      <point x="71" y="-81"/>
      <point x="42" y="-71" type="curve"/>
      <point x="42" y="-135" type="line"/>
      <point x="71" y="-143"/>
      <point x="108" y="-149"/>
      <point x="161" y="-149" type="curve" smooth="yes"/>
      <point x="284" y="-149"/>
      <point x="341" y="-100"/>
      <point x="341" y="-10" type="curve" smooth="yes"/>
      <point x="341" y="3" type="line" smooth="yes"/>
      <point x="341" y="64"/>
      <point x="306" y="98"/>
      <point x="251" y="124" type="curve" smooth="yes"/>
      <point x="165" y="166" type="line" smooth="yes"/>
      <point x="120" y="186"/>
      <point x="105" y="203"/>
      <point x="105" y="249" type="curve" smooth="yes"/>
    </contour>
  </outline>
</glyph>
<glyph name="dieresis" format="1">
  <advance width="350"/>
  <unicode hex="00A8"/>
  <outline>
    <contour>
      <point x="71" y="664" type="curve" smooth="yes"/>
      <point x="71" y="643"/>
      <point x="80" y="628"/>
      <point x="108" y="628" type="curve" smooth="yes"/>
      <point x="136" y="628"/>
      <point x="146" y="643"/>
      <point x="146" y="664" type="curve" smooth="yes"/>
      <point x="146" y="686"/>
      <point x="136" y="701"/>
      <point x="108" y="701" type="curve" smooth="yes"/>
      <point x="80" y="701"/>
      <point x="71" y="686"/>
    </contour>
    <contour>
      <point x="204" y="664" type="curve" smooth="yes"/>
      <point x="204" y="643"/>
      <point x="214" y="628"/>
      <point x="241" y="628" type="curve" smooth="yes"/>
      <point x="269" y="628"/>
      <point x="279" y="643"/>
      <point x="279" y="664" type="curve" smooth="yes"/>
      <point x="279" y="686"/>
      <point x="269" y="701"/>
      <point x="241" y="701" type="curve" smooth="yes"/>
      <point x="214" y="701"/>
      <point x="204" y="686"/>
    </contour>
  </outline>
</glyph>
<glyph name="copyright" format="1">
  <advance width="686"/>
  <unicode hex="00A9"/>
  <outline>
    <contour>
      <point x="47" y="323" type="curve" smooth="yes"/>
      <point x="47" y="136"/>
      <point x="109" y="0"/>
      <point x="344" y="0" type="curve" smooth="yes"/>
      <point x="575" y="0"/>
      <point x="638" y="139"/>
      <point x="638" y="323" type="curve" smooth="yes"/>
      <point x="638" y="514"/>
      <point x="587" y="649"/>
      <point x="344" y="649" type="curve" smooth="yes"/>
      <point x="104" y="649"/>
      <point x="47" y="511"/>
    </contour>
    <contour>
      <point x="226" y="378" type="curve" smooth="yes"/>
      <point x="226" y="270" type="line" smooth="yes"/>
      <point x="226" y="193"/>
      <point x="258" y="145"/>
      <point x="357" y="145" type="curve" smooth="yes"/>
      <point x="384" y="145"/>
      <point x="414" y="149"/>
      <point x="432" y="152" type="curve"/>
      <point x="432" y="207" type="line"/>
      <point x="409" y="201"/>
      <point x="391" y="197"/>
      <point x="357" y="197" type="curve" smooth="yes"/>
      <point x="287" y="197"/>
      <point x="283" y="229"/>
      <point x="283" y="271" type="curve" smooth="yes"/>
      <point x="283" y="378" type="line" smooth="yes"/>
      <point x="283" y="419"/>
      <point x="287" y="452"/>
      <point x="357" y="452" type="curve" smooth="yes"/>
      <point x="390" y="452"/>
      <point x="409" y="448"/>
      <point x="431" y="442" type="curve"/>
      <point x="431" y="496" type="line"/>
      <point x="413" y="500"/>
      <point x="384" y="503"/>
      <point x="357" y="503" type="curve" smooth="yes"/>
      <point x="258" y="503"/>
      <point x="226" y="456"/>
    </contour>
    <contour>
      <point x="581" y="323" type="curve" smooth="yes"/>
      <point x="581" y="169"/>
      <point x="546" y="54"/>
      <point x="344" y="54" type="curve" smooth="yes"/>
      <point x="137" y="54"/>
      <point x="105" y="166"/>
      <point x="105" y="323" type="curve" smooth="yes"/>
      <point x="105" y="481"/>
      <point x="134" y="594"/>
      <point x="344" y="594" type="curve" smooth="yes"/>
      <point x="554" y="594"/>
      <point x="581" y="483"/>
    </contour>
  </outline>
</glyph>
<glyph name="ordfeminine" format="1">
  <advance width="339"/>
  <unicode hex="00AA"/>
  <outline>
    <contour>
      <point x="52" y="727" type="curve"/>
      <point x="52" y="679" type="line"/>
      <point x="79" y="688"/>
      <point x="135" y="698"/>
      <point x="168" y="698" type="curve" smooth="yes"/>
      <point x="226" y="698"/>
      <point x="243" y="679"/>
      <point x="245" y="644" type="curve"/>
      <point x="245" y="558" type="line"/>
      <point x="147" y="540" type="line" smooth="yes"/>
      <point x="80" y="527"/>
      <point x="34" y="499"/>
      <point x="34" y="434" type="curve" smooth="yes"/>
      <point x="34" y="398" type="line" smooth="yes"/>
      <point x="34" y="327"/>
      <point x="67" y="288"/>
      <point x="148" y="288" type="curve" smooth="yes"/>
      <point x="184" y="288"/>
      <point x="226" y="300"/>
      <point x="245" y="323" type="curve"/>
      <point x="245" y="288" type="line"/>
      <point x="295" y="288" type="line"/>
      <point x="295" y="641" type="line" smooth="yes"/>
      <point x="295" y="706"/>
      <point x="255" y="745"/>
      <point x="169" y="745" type="curve" smooth="yes"/>
      <point x="135" y="745"/>
      <point x="82" y="737"/>
    </contour>
    <contour>
      <point x="245" y="366" type="line"/>
      <point x="228" y="343"/>
      <point x="191" y="331"/>
      <point x="160" y="331" type="curve" smooth="yes"/>
      <point x="97" y="331"/>
      <point x="84" y="354"/>
      <point x="84" y="399" type="curve" smooth="yes"/>
      <point x="84" y="433" type="line" smooth="yes"/>
      <point x="84" y="471"/>
      <point x="111" y="488"/>
      <point x="156" y="497" type="curve" smooth="yes"/>
      <point x="245" y="512" type="line"/>
    </contour>
  </outline>
</glyph>
<glyph name="guillemotleft" format="1">
  <advance width="457"/>
  <unicode hex="00AB"/>
  <outline>
    <contour>
      <point x="358" y="505" type="line"/>
      <point x="237" y="322" type="line"/>
      <point x="358" y="139" type="line"/>
      <point x="428" y="139" type="line"/>
      <point x="306" y="322" type="line"/>
      <point x="428" y="505" type="line"/>
    </contour>
    <contour>
      <point x="182" y="505" type="line"/>
      <point x="61" y="322" type="line"/>
      <point x="182" y="139" type="line"/>
      <point x="252" y="139" type="line"/>
      <point x="130" y="322" type="line"/>
      <point x="252" y="505" type="line"/>
    </contour>
  </outline>
</glyph>
<glyph name="logicalnot" format="1">
  <advance width="452"/>
  <unicode hex="00AC"/>
  <outline>
    <contour>
      <point x="70" y="359" type="line"/>
      <point x="70" y="299" type="line"/>
      <point x="314" y="299" type="line"/>
      <point x="314" y="200" type="line"/>
      <point x="382" y="200" type="line"/>
      <point x="382" y="359" type="line"/>
    </contour>
  </outline>
</glyph>
<glyph name="softhyphen" format="1">
  <advance width="225"/>
  <unicode hex="00AD"/>
  <outline>
    <contour>
      <point x="40" y="353" type="line"/>
      <point x="40" y="297" type="line"/>
      <point x="190" y="297" type="line"/>
      <point x="190" y="353" type="line"/>
    </contour>
  </outline>
</glyph>
<glyph name="registered" format="1">
  <advance width="507"/>
  <unicode hex="00AE"/>
  <outline>
    <contour>
      <point x="69" y="517" type="curve" smooth="yes"/>
      <point x="69" y="380"/>
      <point x="112" y="309"/>
      <point x="265" y="309" type="curve" smooth="yes"/>
      <point x="425" y="309"/>
      <point x="465" y="383"/>
      <point x="465" y="517" type="curve" smooth="yes"/>
      <point x="465" y="658"/>
      <point x="423" y="730"/>
      <point x="267" y="730" type="curve" smooth="yes"/>
      <point x="113" y="730"/>
      <point x="69" y="657"/>
    </contour>
    <contour>
      <point x="272" y="506" type="line"/>
      <point x="317" y="391" type="line"/>
      <point x="364" y="391" type="line"/>
      <point x="314" y="506" type="line"/>
    </contour>
    <contour>
      <point x="420" y="517" type="curve" smooth="yes"/>
      <point x="420" y="398"/>
      <point x="402" y="348"/>
      <point x="265" y="348" type="curve" smooth="yes"/>
      <point x="133" y="348"/>
      <point x="114" y="398"/>
      <point x="114" y="517" type="curve" smooth="yes"/>
      <point x="114" y="642"/>
      <point x="133" y="691"/>
      <point x="267" y="691" type="curve" smooth="yes"/>
      <point x="399" y="691"/>
      <point x="420" y="642"/>
    </contour>
    <contour>
      <point x="193" y="649" type="line"/>
      <point x="193" y="391" type="line"/>
      <point x="236" y="391" type="line"/>
      <point x="236" y="487" type="line"/>
      <point x="263" y="487" type="line"/>
      <point x="322" y="487"/>
      <point x="352" y="511"/>
      <point x="352" y="570" type="curve" smooth="yes"/>
      <point x="352" y="626"/>
      <point x="322" y="649"/>
      <point x="264" y="649" type="curve" smooth="yes"/>
    </contour>
    <contour>
      <point x="313" y="570" type="curve" smooth="yes"/>
      <point x="313" y="532"/>
      <point x="297" y="523"/>
      <point x="260" y="523" type="curve" smooth="yes"/>
      <point x="236" y="523" type="line"/>
      <point x="236" y="612" type="line"/>
      <point x="267" y="612" type="line" smooth="yes"/>
      <point x="296" y="612"/>
      <point x="313" y="609"/>
    </contour>
  </outline>
</glyph>
<glyph name="degree" format="1">
  <advance width="368"/>
  <unicode hex="00B0"/>
  <outline>
    <contour>
      <point x="53" y="649" type="curve" smooth="yes"/>
      <point x="53" y="569"/>
      <point x="86" y="507"/>
      <point x="186" y="507" type="curve" smooth="yes"/>
      <point x="286" y="507"/>
      <point x="320" y="569"/>
      <point x="320" y="649" type="curve" smooth="yes"/>
      <point x="320" y="730"/>
      <point x="286" y="793"/>
      <point x="186" y="793" type="curve" smooth="yes"/>
      <point x="86" y="793"/>
      <point x="53" y="730"/>
    </contour>
    <contour>
      <point x="266" y="648" type="curve" smooth="yes"/>
      <point x="266" y="598"/>
      <point x="253" y="559"/>
      <point x="186" y="559" type="curve" smooth="yes"/>
      <point x="119" y="559"/>
      <point x="108" y="598"/>
      <point x="108" y="648" type="curve" smooth="yes"/>
      <point x="108" y="699"/>
      <point x="119" y="739"/>
      <point x="186" y="739" type="curve" smooth="yes"/>
      <point x="253" y="739"/>
      <point x="266" y="699"/>
    </contour>
  </outline>
</glyph>
<glyph name="plusminus" format="1">
  <advance width="435"/>
  <unicode hex="00B1"/>
  <outline>
    <contour>
      <point x="41" y="100" type="line"/>
      <point x="41" y="44" type="line"/>
      <point x="395" y="44" type="line"/>
      <point x="395" y="100" type="line"/>
    </contour>
    <contour>
      <point x="41" y="353" type="line"/>
      <point x="41" y="297" type="line"/>
      <point x="395" y="297" type="line"/>
      <point x="395" y="353" type="line"/>
    </contour>
    <contour>
      <point x="187" y="492" type="line"/>
      <point x="187" y="156" type="line"/>
      <point x="249" y="156" type="line"/>
      <point x="249" y="492" type="line"/>
    </contour>
  </outline>
</glyph>
<glyph name="twosuperior" format="1">
  <advance width="292"/>
  <unicode hex="00B2"/>
  <outline>
    <contour>
      <point x="42" y="735" type="curve"/>
      <point x="42" y="688" type="line"/>
      <point x="55" y="691"/>
      <point x="92" y="698"/>
      <point x="140" y="698" type="curve" smooth="yes"/>
      <point x="198" y="698"/>
      <point x="213" y="679"/>
      <point x="213" y="641" type="curve" smooth="yes"/>
      <point x="213" y="622" type="line" smooth="yes"/>
      <point x="213" y="588"/>
      <point x="210" y="564"/>
      <point x="175" y="542" type="curve" smooth="yes"/>
      <point x="109" y="498" type="line" smooth="yes"/>
      <point x="50" y="459"/>
      <point x="28" y="435"/>
      <point x="28" y="370" type="curve" smooth="yes"/>
      <point x="28" y="289" type="line"/>
      <point x="265" y="289" type="line"/>
      <point x="265" y="336" type="line"/>
      <point x="78" y="336" type="line"/>
      <point x="78" y="371" type="line" smooth="yes"/>
      <point x="78" y="415"/>
      <point x="82" y="423"/>
      <point x="140" y="462" type="curve" smooth="yes"/>
      <point x="203" y="505" type="line" smooth="yes"/>
      <point x="248" y="537"/>
      <point x="263" y="567"/>
      <point x="263" y="619" type="curve" smooth="yes"/>
      <point x="263" y="641" type="line" smooth="yes"/>
      <point x="263" y="707"/>
      <point x="224" y="745"/>
      <point x="141" y="745" type="curve" smooth="yes"/>
      <point x="97" y="745"/>
      <point x="52" y="738"/>
    </contour>
  </outline>
</glyph>
<glyph name="threesuperior" format="1">
  <advance width="306"/>
  <unicode hex="00B3"/>
  <outline>
    <contour>
      <point x="42" y="737" type="curve"/>
      <point x="42" y="689" type="line"/>
      <point x="64" y="694"/>
      <point x="86" y="698"/>
      <point x="134" y="698" type="curve" smooth="yes"/>
      <point x="191" y="698"/>
      <point x="208" y="679"/>
      <point x="208" y="641" type="curve" smooth="yes"/>
      <point x="208" y="604" type="line" smooth="yes"/>
      <point x="208" y="571"/>
      <point x="201" y="542"/>
      <point x="143" y="542" type="curve" smooth="yes"/>
      <point x="99" y="542" type="line"/>
      <point x="99" y="496" type="line"/>
      <point x="143" y="496" type="line" smooth="yes"/>
      <point x="201" y="495"/>
      <point x="208" y="469"/>
      <point x="208" y="437" type="curve" smooth="yes"/>
      <point x="208" y="389" type="line" smooth="yes"/>
      <point x="208" y="351"/>
      <point x="190" y="331"/>
      <point x="133" y="331" type="curve" smooth="yes"/>
      <point x="85" y="331"/>
      <point x="64" y="336"/>
      <point x="32" y="343" type="curve"/>
      <point x="32" y="296" type="line"/>
      <point x="58" y="289"/>
      <point x="89" y="285"/>
      <point x="134" y="285" type="curve" smooth="yes"/>
      <point x="217" y="285"/>
      <point x="258" y="322"/>
      <point x="258" y="388" type="curve" smooth="yes"/>
      <point x="258" y="437" type="line" smooth="yes"/>
      <point x="258" y="473"/>
      <point x="245" y="506"/>
      <point x="213" y="519" type="curve"/>
      <point x="245" y="532"/>
      <point x="258" y="569"/>
      <point x="258" y="604" type="curve" smooth="yes"/>
      <point x="258" y="646" type="line" smooth="yes"/>
      <point x="256" y="709"/>
      <point x="216" y="745"/>
      <point x="134" y="745" type="curve" smooth="yes"/>
      <point x="85" y="745"/>
      <point x="59" y="740"/>
    </contour>
  </outline>
</glyph>
<glyph name="acute" format="1">
  <advance width="350"/>
  <unicode hex="00B4"/>
  <outline>
    <contour>
      <point x="162" y="719" type="line"/>
      <point x="124" y="612" type="line"/>
      <point x="168" y="612" type="line"/>
      <point x="226" y="719" type="line"/>
    </contour>
  </outline>
</glyph>
<glyph name="mu.math" format="1">
  <advance width="455"/>
  <unicode hex="00B5"/>
  <outline>
    <contour>
      <point x="318" y="568" type="line"/>
      <point x="318" y="93" type="line"/>
      <point x="316" y="92"/>
      <point x="276" y="60"/>
      <point x="219" y="60" type="curve" smooth="yes"/>
      <point x="163" y="60"/>
      <point x="138" y="78"/>
      <point x="137" y="78" type="curve"/>
      <point x="137" y="568" type="line"/>
      <point x="68" y="568" type="line"/>
      <point x="68" y="-150" type="line"/>
      <point x="137" y="-150" type="line"/>
      <point x="137" y="12" type="line"/>
      <point x="153" y="5"/>
      <point x="184" y="-1"/>
      <point x="217" y="-1" type="curve" smooth="yes"/>
      <point x="276" y="0"/>
      <point x="317" y="26"/>
      <point x="320" y="27" type="curve"/>
      <point x="320" y="0" type="line"/>
      <point x="385" y="0" type="line"/>
      <point x="385" y="568" type="line"/>
    </contour>
  </outline>
</glyph>
<glyph name="paragraph" format="1">
  <advance width="401"/>
  <unicode hex="00B6"/>
  <outline>
    <contour>
      <point x="226" y="672" type="line"/>
      <point x="117" y="672"/>
      <point x="64" y="610"/>
      <point x="64" y="521" type="curve"/>
      <point x="64" y="432"/>
      <point x="117" y="370"/>
      <point x="226" y="370" type="curve" smooth="yes"/>
      <point x="261" y="370" type="line"/>
      <point x="261" y="1" type="line"/>
      <point x="329" y="1" type="line"/>
      <point x="329" y="672" type="line"/>
    </contour>
  </outline>
</glyph>
<glyph name="periodcentered" format="1">
  <advance width="212"/>
  <unicode hex="00B7"/>
  <outline>
    <contour>
      <point x="67" y="344" type="curve" smooth="yes"/>
      <point x="67" y="321"/>
      <point x="77" y="304"/>
      <point x="107" y="304" type="curve" smooth="yes"/>
      <point x="137" y="304"/>
      <point x="148" y="321"/>
      <point x="148" y="344" type="curve" smooth="yes"/>
      <point x="148" y="367"/>
      <point x="137" y="385"/>
      <point x="107" y="385" type="curve" smooth="yes"/>
      <point x="77" y="385"/>
      <point x="67" y="367"/>
    </contour>
  </outline>
</glyph>
<glyph name="cedilla" format="1">
  <advance width="350"/>
  <unicode hex="00B8"/>
  <outline>
    <contour>
      <point x="149" y="6" type="line"/>
      <point x="133" y="-69" type="line"/>
      <point x="147" y="-69" type="line" smooth="yes"/>
      <point x="183" y="-69"/>
      <point x="200" y="-80"/>
      <point x="200" y="-106" type="curve" smooth="yes"/>
      <point x="200" y="-131"/>
      <point x="178" y="-143"/>
      <point x="148" y="-143" type="curve" smooth="yes"/>
      <point x="132" y="-143"/>
      <point x="116" y="-140"/>
      <point x="105" y="-135" type="curve"/>
      <point x="105" y="-174" type="line"/>
      <point x="119" y="-179"/>
      <point x="139" y="-181"/>
      <point x="155" y="-181" type="curve" smooth="yes"/>
      <point x="204" y="-181"/>
      <point x="244" y="-156"/>
      <point x="244" y="-107" type="curve" smooth="yes"/>
      <point x="244" y="-64"/>
      <point x="214" y="-42"/>
      <point x="176" y="-40" type="curve"/>
      <point x="186" y="6" type="line"/>
    </contour>
  </outline>
</glyph>
<glyph name="onesuperior" format="1">
  <advance width="224"/>
  <unicode hex="00B9"/>
  <outline>
    <contour>
      <point x="111" y="740" type="line"/>
      <point x="23" y="673" type="line"/>
      <point x="23" y="614" type="line"/>
      <point x="120" y="690" type="line"/>
      <point x="120" y="289" type="line"/>
      <point x="170" y="289" type="line"/>
      <point x="170" y="740" type="line"/>
    </contour>
  </outline>
</glyph>
<glyph name="ordmasculine" format="1">
  <advance width="336"/>
  <unicode hex="00BA"/>
  <outline>
    <contour>
      <point x="47" y="641" type="curve" smooth="yes"/>
      <point x="47" y="389" type="line" smooth="yes"/>
      <point x="47" y="323"/>
      <point x="86" y="285"/>
      <point x="171" y="285" type="curve" smooth="yes"/>
      <point x="255" y="285"/>
      <point x="294" y="323"/>
      <point x="294" y="389" type="curve" smooth="yes"/>
      <point x="294" y="641" type="line" smooth="yes"/>
      <point x="294" y="707"/>
      <point x="255" y="745"/>
      <point x="171" y="745" type="curve" smooth="yes"/>
      <point x="86" y="745"/>
      <point x="47" y="707"/>
    </contour>
    <contour>
      <point x="245" y="645" type="curve" smooth="yes"/>
      <point x="245" y="389" type="line" smooth="yes"/>
      <point x="245" y="351"/>
      <point x="228" y="332"/>
      <point x="171" y="332" type="curve" smooth="yes"/>
      <point x="113" y="332"/>
      <point x="97" y="351"/>
      <point x="97" y="389" type="curve" smooth="yes"/>
      <point x="97" y="645" type="line" smooth="yes"/>
      <point x="97" y="679"/>
      <point x="115" y="698"/>
      <point x="171" y="698" type="curve" smooth="yes"/>
      <point x="226" y="698"/>
      <point x="243" y="679"/>
    </contour>
  </outline>
</glyph>
<glyph name="guillemotright" format="1">
  <advance width="457"/>
  <unicode hex="00BB"/>
  <outline>
    <contour>
      <point x="203" y="505" type="line"/>
      <point x="325" y="322" type="line"/>
      <point x="203" y="139" type="line"/>
      <point x="273" y="139" type="line"/>
      <point x="394" y="322" type="line"/>
      <point x="273" y="505" type="line"/>
    </contour>
    <contour>
      <point x="26" y="505" type="line"/>
      <point x="148" y="322" type="line"/>
      <point x="26" y="139" type="line"/>
      <point x="96" y="139" type="line"/>
      <point x="217" y="322" type="line"/>
      <point x="96" y="505" type="line"/>
    </contour>
  </outline>
</glyph>
<glyph name="onequarter" format="1">
  <advance width="785"/>
  <unicode hex="00BC"/>
  <outline>
    <contour>
      <point x="128" y="671" type="line"/>
      <point x="40" y="604" type="line"/>
      <point x="40" y="545" type="line"/>
      <point x="137" y="621" type="line"/>
      <point x="137" y="219" type="line"/>
      <point x="187" y="219" type="line"/>
      <point x="187" y="671" type="line"/>
    </contour>
    <contour>
      <point x="602" y="451" type="line"/>
      <point x="444" y="145" type="line"/>
      <point x="444" y="99" type="line"/>
      <point x="630" y="99" type="line"/>
      <point x="630" y="0" type="line"/>
      <point x="678" y="0" type="line"/>
      <point x="678" y="99" type="line"/>
      <point x="727" y="99" type="line"/>
      <point x="727" y="144" type="line"/>
      <point x="678" y="144" type="line"/>
      <point x="678" y="451" type="line"/>
    </contour>
    <contour>
      <point x="630" y="144" type="line"/>
      <point x="493" y="144" type="line"/>
      <point x="630" y="412" type="line"/>
    </contour>
    <contour>
      <point x="487" y="671" type="line"/>
      <point x="156" y="0" type="line"/>
      <point x="207" y="0" type="line"/>
      <point x="538" y="671" type="line"/>
    </contour>
  </outline>
</glyph>
<glyph name="threequarters" format="1">
  <advance width="825"/>
  <unicode hex="00BE"/>
  <outline>
    <contour>
      <point x="642" y="451" type="line"/>
      <point x="485" y="145" type="line"/>
      <point x="485" y="99" type="line"/>
      <point x="670" y="99" type="line"/>
      <point x="670" y="0" type="line"/>
      <point x="718" y="0" type="line"/>
      <point x="718" y="99" type="line"/>
      <point x="767" y="99" type="line"/>
      <point x="767" y="144" type="line"/>
      <point x="718" y="144" type="line"/>
      <point x="718" y="451" type="line"/>
    </contour>
    <contour>
      <point x="670" y="144" type="line"/>
      <point x="533" y="144" type="line"/>
      <point x="670" y="412" type="line"/>
    </contour>
    <contour>
      <point x="543" y="671" type="line"/>
      <point x="212" y="0" type="line"/>
      <point x="264" y="0" type="line"/>
      <point x="594" y="671" type="line"/>
    </contour>
    <contour>
      <point x="50" y="668" type="curve"/>
      <point x="50" y="621" type="line"/>
      <point x="71" y="625"/>
      <point x="93" y="629"/>
      <point x="141" y="629" type="curve" smooth="yes"/>
      <point x="199" y="629"/>
      <point x="216" y="610"/>
      <point x="216" y="572" type="curve" smooth="yes"/>
      <point x="216" y="535" type="line" smooth="yes"/>
      <point x="216" y="503"/>
      <point x="208" y="473"/>
      <point x="151" y="473" type="curve" smooth="yes"/>
      <point x="107" y="473" type="line"/>
      <point x="107" y="427" type="line"/>
      <point x="151" y="427" type="line" smooth="yes"/>
      <point x="208" y="426"/>
      <point x="216" y="400"/>
      <point x="216" y="368" type="curve" smooth="yes"/>
      <point x="216" y="320" type="line" smooth="yes"/>
      <point x="216" y="282"/>
      <point x="198" y="262"/>
      <point x="140" y="262" type="curve" smooth="yes"/>
      <point x="93" y="262"/>
      <point x="72" y="267"/>
      <point x="40" y="275" type="curve"/>
      <point x="40" y="227" type="line"/>
      <point x="66" y="220"/>
      <point x="97" y="216"/>
      <point x="141" y="216" type="curve" smooth="yes"/>
      <point x="224" y="216"/>
      <point x="265" y="253"/>
      <point x="265" y="319" type="curve" smooth="yes"/>
      <point x="265" y="368" type="line" smooth="yes"/>
      <point x="265" y="404"/>
      <point x="253" y="437"/>
      <point x="221" y="450" type="curve"/>
      <point x="252" y="464"/>
      <point x="265" y="500"/>
      <point x="265" y="535" type="curve" smooth="yes"/>
      <point x="265" y="577" type="line" smooth="yes"/>
      <point x="264" y="640"/>
      <point x="223" y="676"/>
      <point x="142" y="676" type="curve" smooth="yes"/>
      <point x="93" y="676"/>
      <point x="67" y="671"/>
    </contour>
  </outline>
</glyph>
<glyph name="AE" format="1">
  <advance width="657"/>
  <unicode hex="00C6"/>
  <outline>
    <contour>
      <point x="313" y="671" type="line"/>
      <point x="8" y="0" type="line"/>
      <point x="79" y="0" type="line"/>
      <point x="376" y="671" type="line"/>
    </contour>
    <contour>
      <point x="141" y="248" type="line"/>
      <point x="141" y="189" type="line"/>
      <point x="394" y="189" type="line"/>
      <point x="394" y="248" type="line"/>
    </contour>
    <contour>
      <point x="354" y="671" type="line"/>
      <point x="354" y="0" type="line"/>
      <point x="642" y="0" type="line"/>
      <point x="642" y="60" type="line"/>
      <point x="420" y="60" type="line"/>
      <point x="420" y="308" type="line"/>
      <point x="613" y="308" type="line"/>
      <point x="613" y="368" type="line"/>
      <point x="420" y="368" type="line"/>
      <point x="420" y="611" type="line"/>
      <point x="642" y="611" type="line"/>
      <point x="642" y="671" type="line"/>
    </contour>
  </outline>
</glyph>
<glyph name="Eth" format="1">
  <advance width="465"/>
  <unicode hex="00D0"/>
  <outline>
    <contour>
      <point x="-2" y="359" type="line"/>
      <point x="-2" y="300" type="line"/>
      <point x="249" y="300" type="line"/>
      <point x="249" y="359" type="line"/>
    </contour>
    <component base="D" xOffset="2"/>
  </outline>
</glyph>
<glyph name="multiply" format="1">
  <advance width="370"/>
  <unicode hex="00D7"/>
  <outline>
    <contour>
      <point x="30" y="440" type="line"/>
      <point x="300" y="170" type="line"/>
      <point x="340" y="209" type="line"/>
      <point x="69" y="479" type="line"/>
    </contour>
    <contour>
      <point x="30" y="209" type="line"/>
      <point x="69" y="170" type="line"/>
      <point x="339" y="440" type="line"/>
      <point x="300" y="479" type="line"/>
    </contour>
  </outline>
</glyph>
<glyph name="Oslash" format="1">
  <advance width="455"/>
  <unicode hex="00D8"/>
  <outline>
    <contour>
      <point x="344" y="671" type="line"/>
      <point x="59" y="0" type="line"/>
      <point x="111" y="0" type="line"/>
      <point x="396" y="671" type="line"/>
    </contour>
    <component base="O"/>
  </outline>
</glyph>
<glyph name="Thorn" format="1">
  <advance width="428"/>
  <unicode hex="00DE"/>
  <outline>
    <contour>
      <point x="130" y="549" type="line"/>
      <point x="130" y="489" type="line"/>
      <point x="236" y="489" type="line" smooth="yes"/>
      <point x="307" y="489"/>
      <point x="334" y="453"/>
      <point x="334" y="395" type="curve" smooth="yes"/>
      <point x="334" y="276" type="line" smooth="yes"/>
      <point x="334" y="218"/>
      <point x="307" y="183"/>
      <point x="236" y="183" type="curve" smooth="yes"/>
      <point x="134" y="183" type="line"/>
      <point x="134" y="122" type="line"/>
      <point x="239" y="122" type="line" smooth="yes"/>
      <point x="348" y="122"/>
      <point x="400" y="184"/>
      <point x="400" y="273" type="curve" smooth="yes"/>
      <point x="400" y="398" type="line" smooth="yes"/>
      <point x="400" y="487"/>
      <point x="348" y="549"/>
      <point x="239" y="549" type="curve" smooth="yes"/>
    </contour>
    <contour>
      <point x="80" y="671" type="line"/>
      <point x="80" y="0" type="line"/>
      <point x="146" y="0" type="line"/>
      <point x="146" y="671" type="line"/>
    </contour>
  </outline>
</glyph>
<glyph name="germandbls" format="1">
  <advance width="535"/>
  <unicode hex="00DF"/>
  <outline>
    <contour>
      <point x="70" y="551" type="curve" smooth="yes"/>
      <point x="70" y="0" type="line"/>
      <point x="136" y="0" type="line"/>
      <point x="136" y="549" type="line" smooth="yes"/>
      <point x="136" y="620"/>
      <point x="171" y="654"/>
      <point x="254" y="654" type="curve" smooth="yes"/>
      <point x="327" y="654"/>
      <point x="358" y="621"/>
      <point x="358" y="565" type="curve" smooth="yes"/>
      <point x="358" y="480"/>
      <point x="269" y="462"/>
      <point x="269" y="379" type="curve" smooth="yes"/>
      <point x="269" y="367" type="line" smooth="yes"/>
      <point x="269" y="311"/>
      <point x="298" y="284"/>
      <point x="381" y="241" type="curve" smooth="yes"/>
      <point x="431" y="214"/>
      <point x="448" y="195"/>
      <point x="448" y="157" type="curve" smooth="yes"/>
      <point x="448" y="138" type="line" smooth="yes"/>
      <point x="448" y="91"/>
      <point x="422" y="58"/>
      <point x="334" y="58" type="curve" smooth="yes"/>
      <point x="287" y="58"/>
      <point x="250" y="66"/>
      <point x="221" y="76" type="curve"/>
      <point x="221" y="11" type="line"/>
      <point x="250" y="3"/>
      <point x="284" y="-5"/>
      <point x="337" y="-5" type="curve" smooth="yes"/>
      <point x="458" y="-5"/>
      <point x="514" y="51"/>
      <point x="514" y="136" type="curve" smooth="yes"/>
      <point x="514" y="162" type="line" smooth="yes"/>
      <point x="514" y="220"/>
      <point x="480" y="251"/>
      <point x="419" y="284" type="curve" smooth="yes"/>
      <point x="347" y="322"/>
      <point x="337" y="344"/>
      <point x="337" y="371" type="curve" smooth="yes"/>
      <point x="337" y="381" type="line" smooth="yes"/>
      <point x="337" y="437"/>
      <point x="425" y="465"/>
      <point x="425" y="566" type="curve" smooth="yes"/>
      <point x="425" y="660"/>
      <point x="358" y="715"/>
      <point x="254" y="715" type="curve" smooth="yes"/>
      <point x="134" y="715"/>
      <point x="70" y="659"/>
    </contour>
  </outline>
</glyph>
<glyph name="ae" format="1">
  <advance width="649"/>
  <unicode hex="00E6"/>
  <outline>
    <contour>
      <point x="329" y="523" type="curve"/>
      <point x="303" y="555"/>
      <point x="258" y="573"/>
      <point x="190" y="573" type="curve" smooth="yes"/>
      <point x="137" y="573"/>
      <point x="86" y="563"/>
      <point x="59" y="554" type="curve"/>
      <point x="59" y="490" type="line"/>
      <point x="88" y="500"/>
      <point x="139" y="510"/>
      <point x="188" y="510" type="curve" smooth="yes"/>
      <point x="274" y="510"/>
      <point x="294" y="481"/>
      <point x="294" y="431" type="curve" smooth="yes"/>
      <point x="294" y="343" type="line"/>
      <point x="153" y="302" type="line" smooth="yes"/>
      <point x="69" y="278"/>
      <point x="33" y="233"/>
      <point x="33" y="165" type="curve" smooth="yes"/>
      <point x="33" y="132" type="line" smooth="yes"/>
      <point x="33" y="47"/>
      <point x="77" y="-4"/>
      <point x="175" y="-4" type="curve" smooth="yes"/>
      <point x="237" y="-4"/>
      <point x="296" y="15"/>
      <point x="331" y="44" type="curve"/>
      <point x="360" y="12"/>
      <point x="411" y="-5"/>
      <point x="484" y="-5" type="curve" smooth="yes"/>
      <point x="537" y="-5"/>
      <point x="574" y="2"/>
      <point x="602" y="11" type="curve"/>
      <point x="602" y="74" type="line"/>
      <point x="573" y="66"/>
      <point x="533" y="57"/>
      <point x="486" y="57" type="curve" smooth="yes"/>
      <point x="398" y="57"/>
      <point x="360" y="87"/>
      <point x="360" y="146" type="curve" smooth="yes"/>
      <point x="360" y="249" type="line"/>
      <point x="619" y="249" type="line"/>
      <point x="619" y="423" type="line" smooth="yes"/>
      <point x="619" y="511"/>
      <point x="572" y="578"/>
      <point x="458" y="578" type="curve" smooth="yes"/>
      <point x="396" y="578"/>
      <point x="352" y="551"/>
    </contour>
    <contour>
      <point x="295" y="88" type="line"/>
      <point x="269" y="67"/>
      <point x="228" y="52"/>
      <point x="182" y="52" type="curve" smooth="yes"/>
      <point x="121" y="52"/>
      <point x="99" y="78"/>
      <point x="99" y="131" type="curve"/>
      <point x="99" y="162" type="line" smooth="yes"/>
      <point x="99" y="207"/>
      <point x="115" y="231"/>
      <point x="177" y="249" type="curve" smooth="yes"/>
      <point x="295" y="282" type="line"/>
    </contour>
    <contour>
      <point x="553" y="422" type="curve" smooth="yes"/>
      <point x="553" y="307" type="line"/>
      <point x="360" y="307" type="line"/>
      <point x="360" y="422" type="line"/>
      <point x="360" y="479"/>
      <point x="388" y="519"/>
      <point x="458" y="519" type="curve" smooth="yes"/>
      <point x="528" y="519"/>
      <point x="553" y="479"/>
    </contour>
  </outline>
</glyph>
<glyph name="iacute" format="1">
  <advance width="207"/>
  <unicode hex="00ED"/>
  <outline>
    <contour>
      <point x="70" y="565" type="line"/>
      <point x="70" y="0" type="line"/>
      <point x="138" y="0" type="line"/>
      <point x="138" y="565" type="line"/>
    </contour>
    <component base="acute" xOffset="-42"/>
  </outline>
</glyph>
<glyph name="icircumflex" format="1">
  <advance width="207"/>
  <unicode hex="00EE"/>
  <outline>
    <contour>
      <point x="70" y="565" type="line"/>
      <point x="70" y="0" type="line"/>
      <point x="138" y="0" type="line"/>
      <point x="138" y="565" type="line"/>
    </contour>
    <component base="circumflex" xOffset="-70"/>
  </outline>
</glyph>
<glyph name="idieresis" format="1">
  <advance width="207"/>
  <unicode hex="00EF"/>
  <outline>
    <contour>
      <point x="70" y="565" type="line"/>
      <point x="70" y="0" type="line"/>
      <point x="138" y="0" type="line"/>
      <point x="138" y="565" type="line"/>
    </contour>
    <component base="dieresis" xOffset="-71"/>
  </outline>
</glyph>
<glyph name="eth" format="1">
  <advance width="453"/>
  <unicode hex="00F0"/>
  <outline>
    <contour>
      <point x="157" y="671" type="line"/>
      <point x="219" y="610"/>
      <point x="280" y="516"/>
      <point x="306" y="413" type="curve"/>
      <point x="289" y="429"/>
      <point x="258" y="443"/>
      <point x="217" y="443" type="curve" smooth="yes"/>
      <point x="109" y="443"/>
      <point x="65" y="379"/>
      <point x="65" y="291" type="curve" smooth="yes"/>
      <point x="65" y="146" type="line" smooth="yes"/>
      <point x="65" y="57"/>
      <point x="113" y="-9"/>
      <point x="226" y="-9" type="curve" smooth="yes"/>
      <point x="339" y="-9"/>
      <point x="387" y="57"/>
      <point x="387" y="146" type="curve"/>
      <point x="387" y="307" type="line" smooth="yes"/>
      <point x="387" y="478"/>
      <point x="291" y="620"/>
      <point x="244" y="671" type="curve"/>
    </contour>
    <contour>
      <point x="320" y="352" type="curve"/>
      <point x="320" y="147" type="line"/>
      <point x="320" y="90"/>
      <point x="297" y="51"/>
      <point x="226" y="51" type="curve" smooth="yes"/>
      <point x="154" y="51"/>
      <point x="131" y="91"/>
      <point x="131" y="147" type="curve" smooth="yes"/>
      <point x="131" y="290" type="line" smooth="yes"/>
      <point x="131" y="348"/>
      <point x="155" y="386"/>
      <point x="226" y="386" type="curve"/>
      <point x="267" y="386"/>
      <point x="303" y="370"/>
    </contour>
    <contour>
      <point x="138" y="550" type="line"/>
      <point x="138" y="500" type="line"/>
      <point x="383" y="625" type="line"/>
      <point x="383" y="674" type="line"/>
    </contour>
  </outline>
</glyph>
<glyph name="divide" format="1">
  <advance width="435"/>
  <unicode hex="00F7"/>
  <outline>
    <contour>
      <point x="40" y="351" type="line"/>
      <point x="40" y="295" type="line"/>
      <point x="394" y="295" type="line"/>
      <point x="394" y="351" type="line"/>
    </contour>
    <contour>
      <point x="179" y="150" type="curve" smooth="yes"/>
      <point x="179" y="127"/>
      <point x="190" y="110"/>
      <point x="220" y="110" type="curve" smooth="yes"/>
      <point x="250" y="110"/>
      <point x="260" y="127"/>
      <point x="260" y="150" type="curve" smooth="yes"/>
      <point x="260" y="173"/>
      <point x="250" y="191"/>
      <point x="220" y="191" type="curve" smooth="yes"/>
      <point x="190" y="191"/>
      <point x="179" y="173"/>
    </contour>
    <contour>
      <point x="179" y="493" type="curve" smooth="yes"/>
      <point x="179" y="470"/>
      <point x="190" y="453"/>
      <point x="220" y="453" type="curve" smooth="yes"/>
      <point x="250" y="453"/>
      <point x="260" y="470"/>
      <point x="260" y="493" type="curve" smooth="yes"/>
      <point x="260" y="516"/>
      <point x="250" y="534"/>
      <point x="220" y="534" type="curve" smooth="yes"/>
      <point x="190" y="534"/>
      <point x="179" y="516"/>
    </contour>
  </outline>
</glyph>
<glyph name="oslash" format="1">
  <advance width="442"/>
  <unicode hex="00F8"/>
  <outline>
    <contour>
      <point x="338" y="568" type="line"/>
      <point x="64" y="0" type="line"/>
      <point x="112" y="0" type="line"/>
      <point x="386" y="568" type="line"/>
    </contour>
    <component base="o"/>
  </outline>
</glyph>
<glyph name="thorn" format="1">
  <advance width="455"/>
  <unicode hex="00FE"/>
  <outline>
    <contour>
      <point x="70" y="719" type="line"/>
      <point x="70" y="-175" type="line"/>
      <point x="138" y="-175" type="line"/>
      <point x="138" y="0" type="line"/>
      <point x="240" y="0" type="line" smooth="yes"/>
      <point x="328" y="0"/>
      <point x="387" y="55"/>
      <point x="387" y="149" type="curve" smooth="yes"/>
      <point x="387" y="438" type="line" smooth="yes"/>
      <point x="387" y="524"/>
      <point x="334" y="570"/>
      <point x="253" y="570" type="curve" smooth="yes"/>
      <point x="206" y="570"/>
      <point x="161" y="553"/>
      <point x="137" y="542" type="curve"/>
      <point x="137" y="719" type="line"/>
    </contour>
    <contour>
      <point x="319" y="432" type="curve" smooth="yes"/>
      <point x="319" y="153" type="line" smooth="yes"/>
      <point x="319" y="92"/>
      <point x="285" y="61"/>
      <point x="224" y="61" type="curve" smooth="yes"/>
      <point x="138" y="61" type="line"/>
      <point x="138" y="481" type="line"/>
      <point x="171" y="497"/>
      <point x="205" y="508"/>
      <point x="243" y="508" type="curve" smooth="yes"/>
      <point x="290" y="508"/>
      <point x="319" y="484"/>
    </contour>
  </outline>
</glyph>
<glyph name="Dcroat" format="1">
  <advance width="465"/>
  <unicode hex="0110"/>
  <outline>
    <contour>
      <point x="11" y="364" type="line"/>
      <point x="11" y="305" type="line"/>
      <point x="242" y="305" type="line"/>
      <point x="242" y="364" type="line"/>
    </contour>
    <component base="D" xOffset="2"/>
  </outline>
</glyph>
<glyph name="dcroat" format="1">
  <advance width="447"/>
  <unicode hex="0111"/>
  <outline>
    <contour>
      <point x="185" y="672" type="line"/>
      <point x="185" y="627" type="line"/>
      <point x="417" y="627" type="line"/>
      <point x="417" y="672" type="line"/>
    </contour>
    <component base="d" xOffset="1"/>
  </outline>
</glyph>
<glyph name="Gcommaaccent" format="1">
  <advance width="447"/>
  <unicode hex="0122"/>
  <outline>
    <contour>
      <point x="60" y="529" type="curve" smooth="yes"/>
      <point x="60" y="136" type="line" smooth="yes"/>
      <point x="60" y="33"/>
      <point x="131" y="-5"/>
      <point x="225" y="-5" type="curve" smooth="yes"/>
      <point x="314" y="-5"/>
      <point x="355" y="18"/>
      <point x="385" y="35" type="curve"/>
      <point x="385" y="328" type="line"/>
      <point x="318" y="328" type="line"/>
      <point x="318" y="77" type="line"/>
      <point x="308" y="71"/>
      <point x="273" y="56"/>
      <point x="225" y="56" type="curve" smooth="yes"/>
      <point x="163" y="56"/>
      <point x="128" y="79"/>
      <point x="128" y="139" type="curve" smooth="yes"/>
      <point x="128" y="526" type="line" smooth="yes"/>
      <point x="128" y="581"/>
      <point x="157" y="613"/>
      <point x="245" y="613" type="curve" smooth="yes"/>
      <point x="292" y="613"/>
      <point x="333" y="604"/>
      <point x="365" y="594" type="curve"/>
      <point x="365" y="659" type="line"/>
      <point x="337" y="667"/>
      <point x="292" y="676"/>
      <point x="244" y="676" type="curve" smooth="yes"/>
      <point x="113" y="676"/>
      <point x="60" y="617"/>
    </contour>
    <contour>
      <point x="214" y="-61" type="line"/>
      <point x="188" y="-181" type="line"/>
      <point x="222" y="-181" type="line"/>
      <point x="236" y="-161"/>
      <point x="268" y="-109"/>
      <point x="268" y="-86" type="curve" smooth="yes"/>
      <point x="268" y="-69"/>
      <point x="256" y="-61"/>
      <point x="241" y="-61" type="curve" smooth="yes"/>
    </contour>
  </outline>
</glyph>
<glyph name="dotlessi" format="1">
  <advance width="207"/>
  <unicode hex="0131"/>
  <outline>
    <contour>
      <point x="70" y="565" type="line"/>
      <point x="70" y="0" type="line"/>
      <point x="138" y="0" type="line"/>
      <point x="138" y="565" type="line"/>
    </contour>
  </outline>
</glyph>
<glyph name="Kcommaaccent" format="1">
  <advance width="431"/>
  <unicode hex="0136"/>
  <outline>
    <contour>
      <point x="332" y="671" type="line"/>
      <point x="191" y="335" type="line"/>
      <point x="338" y="0" type="line"/>
      <point x="414" y="0" type="line"/>
      <point x="264" y="337" type="line"/>
      <point x="406" y="671" type="line"/>
    </contour>
    <contour>
      <point x="70" y="671" type="line"/>
      <point x="70" y="0" type="line"/>
      <point x="137" y="0" type="line"/>
      <point x="137" y="671" type="line"/>
    </contour>
    <contour>
      <point x="206" y="-61" type="line"/>
      <point x="180" y="-181" type="line"/>
      <point x="214" y="-181" type="line"/>
      <point x="228" y="-161"/>
      <point x="260" y="-109"/>
      <point x="260" y="-86" type="curve" smooth="yes"/>
      <point x="260" y="-69"/>
      <point x="249" y="-61"/>
      <point x="233" y="-61" type="curve" smooth="yes"/>
    </contour>
  </outline>
</glyph>
<glyph name="kcommaaccent" format="1">
  <advance width="401"/>
  <unicode hex="0137"/>
  <outline>
    <contour>
      <point x="302" y="568" type="line"/>
      <point x="175" y="294" type="line"/>
      <point x="309" y="0" type="line"/>
      <point x="384" y="0" type="line"/>
      <point x="248" y="295" type="line"/>
      <point x="374" y="568" type="line"/>
    </contour>
    <contour>
      <point x="70" y="719" type="line"/>
      <point x="70" y="0" type="line"/>
      <point x="137" y="0" type="line"/>
      <point x="137" y="719" type="line"/>
    </contour>
    <contour>
      <point x="187" y="-61" type="line"/>
      <point x="161" y="-181" type="line"/>
      <point x="195" y="-181" type="line"/>
      <point x="209" y="-161"/>
      <point x="241" y="-109"/>
      <point x="241" y="-86" type="curve" smooth="yes"/>
      <point x="241" y="-69"/>
      <point x="229" y="-61"/>
      <point x="214" y="-61" type="curve" smooth="yes"/>
    </contour>
  </outline>
</glyph>
<glyph name="Lcommaaccent" format="1">
  <advance width="347"/>
  <unicode hex="013B"/>
  <outline>
    <contour>
      <point x="70" y="671" type="line"/>
      <point x="70" y="0" type="line"/>
      <point x="342" y="0" type="line"/>
      <point x="342" y="59" type="line"/>
      <point x="138" y="59" type="line"/>
      <point x="138" y="671" type="line"/>
    </contour>
    <contour>
      <point x="180" y="-61" type="line"/>
      <point x="154" y="-181" type="line"/>
      <point x="188" y="-181" type="line"/>
      <point x="201" y="-161"/>
      <point x="234" y="-109"/>
      <point x="234" y="-86" type="curve" smooth="yes"/>
      <point x="234" y="-69"/>
      <point x="222" y="-61"/>
      <point x="207" y="-61" type="curve" smooth="yes"/>
    </contour>
  </outline>
</glyph>
<glyph name="lcommaaccent" format="1">
  <advance width="207"/>
  <unicode hex="013C"/>
  <outline>
    <contour>
      <point x="70" y="719" type="line"/>
      <point x="70" y="0" type="line"/>
      <point x="138" y="0" type="line"/>
      <point x="138" y="719" type="line"/>
    </contour>
    <contour>
      <point x="80" y="-61" type="line"/>
      <point x="53" y="-181" type="line"/>
      <point x="87" y="-181" type="line"/>
      <point x="101" y="-161"/>
      <point x="133" y="-109"/>
      <point x="133" y="-86" type="curve" smooth="yes"/>
      <point x="133" y="-69"/>
      <point x="122" y="-61"/>
      <point x="107" y="-61" type="curve" smooth="yes"/>
    </contour>
  </outline>
</glyph>
<glyph name="lcaron" format="1">
  <advance width="207"/>
  <unicode hex="013E"/>
  <outline>
    <contour>
      <point x="70" y="719" type="line"/>
      <point x="70" y="0" type="line"/>
      <point x="138" y="0" type="line"/>
      <point x="138" y="719" type="line"/>
    </contour>
    <contour>
      <point x="205" y="717" type="line"/>
      <point x="179" y="597" type="line"/>
      <point x="213" y="597" type="line"/>
      <point x="226" y="617"/>
      <point x="259" y="670"/>
      <point x="259" y="692" type="curve" smooth="yes"/>
      <point x="259" y="709"/>
      <point x="247" y="717"/>
      <point x="232" y="717" type="curve" smooth="yes"/>
    </contour>
  </outline>
</glyph>
<glyph name="Lslash" format="1">
  <advance width="348"/>
  <unicode hex="0141"/>
  <outline>
    <contour>
      <point x="16" y="306" type="line"/>
      <point x="16" y="251" type="line"/>
      <point x="237" y="366" type="line"/>
      <point x="237" y="421" type="line"/>
    </contour>
    <component base="L" xOffset="2"/>
  </outline>
</glyph>
<glyph name="lslash" format="1">
  <advance width="208"/>
  <unicode hex="0142"/>
  <outline>
    <contour>
      <point x="14" y="463" type="line"/>
      <point x="14" y="408" type="line"/>
      <point x="194" y="511" type="line"/>
      <point x="194" y="566" type="line"/>
    </contour>
    <component base="l"/>
  </outline>
</glyph>
<glyph name="Ncommaaccent" format="1">
  <advance width="498"/>
  <unicode hex="0145"/>
  <outline>
    <contour>
      <point x="361" y="671" type="line"/>
      <point x="361" y="327" type="line"/>
      <point x="362" y="236"/>
      <point x="366" y="164"/>
      <point x="367" y="109" type="curve"/>
      <point x="346" y="165"/>
      <point x="320" y="234"/>
      <point x="288" y="318" type="curve"/>
      <point x="149" y="671" type="line"/>
      <point x="70" y="671" type="line"/>
      <point x="70" y="0" type="line"/>
      <point x="136" y="0" type="line"/>
      <point x="136" y="344" type="line"/>
      <point x="135" y="435"/>
      <point x="131" y="506"/>
      <point x="130" y="561" type="curve"/>
      <point x="152" y="505"/>
      <point x="177" y="436"/>
      <point x="210" y="352" type="curve"/>
      <point x="349" y="0" type="line"/>
      <point x="429" y="0" type="line"/>
      <point x="429" y="671" type="line"/>
    </contour>
    <contour>
      <point x="213" y="-61" type="line"/>
      <point x="187" y="-181" type="line"/>
      <point x="221" y="-181" type="line"/>
      <point x="235" y="-161"/>
      <point x="267" y="-109"/>
      <point x="267" y="-86" type="curve" smooth="yes"/>
      <point x="267" y="-69"/>
      <point x="255" y="-61"/>
      <point x="240" y="-61" type="curve" smooth="yes"/>
    </contour>
  </outline>
</glyph>
<glyph name="ncommaaccent" format="1">
  <advance width="451"/>
  <unicode hex="0146"/>
  <outline>
    <contour>
      <point x="135" y="542" type="curve"/>
      <point x="135" y="568" type="line"/>
      <point x="70" y="568" type="line"/>
      <point x="70" y="0" type="line"/>
      <point x="138" y="0" type="line"/>
      <point x="138" y="481" type="line"/>
      <point x="171" y="496"/>
      <point x="204" y="507"/>
      <point x="242" y="507" type="curve"/>
      <point x="289" y="507"/>
      <point x="318" y="484"/>
      <point x="318" y="432" type="curve" smooth="yes"/>
      <point x="318" y="0" type="line"/>
      <point x="386" y="0" type="line"/>
      <point x="386" y="438" type="line" smooth="yes"/>
      <point x="386" y="524"/>
      <point x="333" y="570"/>
      <point x="252" y="570" type="curve"/>
      <point x="205" y="570"/>
      <point x="159" y="552"/>
    </contour>
    <contour>
      <point x="195" y="-61" type="line"/>
      <point x="169" y="-181" type="line"/>
      <point x="203" y="-181" type="line"/>
      <point x="216" y="-161"/>
      <point x="249" y="-109"/>
      <point x="249" y="-86" type="curve" smooth="yes"/>
      <point x="249" y="-69"/>
      <point x="237" y="-61"/>
      <point x="222" y="-61" type="curve" smooth="yes"/>
    </contour>
  </outline>
</glyph>
<glyph name="OE" format="1">
  <advance width="668"/>
  <unicode hex="0152"/>
  <outline>
    <contour>
      <point x="241" y="671" type="line"/>
      <point x="131" y="671"/>
      <point x="80" y="609"/>
      <point x="80" y="520" type="curve" smooth="yes"/>
      <point x="80" y="152" type="line" smooth="yes"/>
      <point x="80" y="63"/>
      <point x="128" y="0"/>
      <point x="239" y="0" type="curve" smooth="yes"/>
      <point x="366" y="0" type="line"/>
      <point x="366" y="60" type="line"/>
      <point x="244" y="60" type="line" smooth="yes"/>
      <point x="173" y="60"/>
      <point x="147" y="98"/>
      <point x="147" y="154" type="curve" smooth="yes"/>
      <point x="147" y="519" type="line" smooth="yes"/>
      <point x="147" y="575"/>
      <point x="173" y="612"/>
      <point x="244" y="612" type="curve" smooth="yes"/>
      <point x="376" y="612" type="line"/>
      <point x="376" y="671" type="line"/>
    </contour>
    <component base="E" xOffset="280"/>
  </outline>
</glyph>
<glyph name="oe" format="1">
  <advance width="705"/>
  <unicode hex="0153"/>
  <outline>
    <contour>
      <point x="68" y="423" type="curve" smooth="yes"/>
      <point x="68" y="144" type="line" smooth="yes"/>
      <point x="68" y="56"/>
      <point x="115" y="-10"/>
      <point x="229" y="-10" type="curve" smooth="yes"/>
      <point x="343" y="-10"/>
      <point x="390" y="56"/>
      <point x="390" y="144" type="curve" smooth="yes"/>
      <point x="390" y="423" type="line" smooth="yes"/>
      <point x="390" y="511"/>
      <point x="343" y="578"/>
      <point x="229" y="578" type="curve" smooth="yes"/>
      <point x="115" y="578"/>
      <point x="68" y="511"/>
    </contour>
    <contour>
      <point x="323" y="422" type="curve" smooth="yes"/>
      <point x="323" y="145" type="line" smooth="yes"/>
      <point x="323" y="89"/>
      <point x="299" y="50"/>
      <point x="229" y="50" type="curve" smooth="yes"/>
      <point x="159" y="50"/>
      <point x="135" y="89"/>
      <point x="135" y="145" type="curve" smooth="yes"/>
      <point x="135" y="422" type="line" smooth="yes"/>
      <point x="135" y="479"/>
      <point x="159" y="518"/>
      <point x="229" y="518" type="curve" smooth="yes"/>
      <point x="299" y="518"/>
      <point x="323" y="479"/>
    </contour>
    <component base="e" xOffset="264"/>
  </outline>
</glyph>
<glyph name="Rcommaaccent" format="1">
  <advance width="456"/>
  <unicode hex="0156"/>
  <outline>
    <contour>
      <point x="70" y="671" type="line"/>
      <point x="70" y="0" type="line"/>
      <point x="137" y="0" type="line"/>
      <point x="137" y="271" type="line"/>
      <point x="233" y="271" type="line" smooth="yes"/>
      <point x="344" y="271"/>
      <point x="392" y="333"/>
      <point x="392" y="423" type="curve" smooth="yes"/>
      <point x="392" y="520" type="line" smooth="yes"/>
      <point x="392" y="609"/>
      <point x="340" y="671"/>
      <point x="231" y="671" type="curve" smooth="yes"/>
    </contour>
    <contour>
      <point x="231" y="296" type="line"/>
      <point x="338" y="0" type="line"/>
      <point x="413" y="0" type="line"/>
      <point x="301" y="296" type="line"/>
    </contour>
    <contour>
      <point x="325" y="518" type="curve" smooth="yes"/>
      <point x="325" y="423" type="line" smooth="yes"/>
      <point x="325" y="364"/>
      <point x="298" y="330"/>
      <point x="228" y="330" type="curve" smooth="yes"/>
      <point x="137" y="330" type="line"/>
      <point x="137" y="611" type="line"/>
      <point x="228" y="611" type="line" smooth="yes"/>
      <point x="297" y="611"/>
      <point x="325" y="576"/>
    </contour>
    <contour>
      <point x="202" y="-61" type="line"/>
      <point x="176" y="-181" type="line"/>
      <point x="210" y="-181" type="line"/>
      <point x="224" y="-161"/>
      <point x="256" y="-109"/>
      <point x="256" y="-86" type="curve" smooth="yes"/>
      <point x="256" y="-69"/>
      <point x="244" y="-61"/>
      <point x="229" y="-61" type="curve" smooth="yes"/>
    </contour>
  </outline>
</glyph>
<glyph name="rcommaaccent" format="1">
  <advance width="281"/>
  <unicode hex="0157"/>
  <outline>
    <contour>
      <point x="251" y="571" type="line"/>
      <point x="193" y="571"/>
      <point x="174" y="552"/>
      <point x="135" y="524" type="curve"/>
      <point x="135" y="568" type="line"/>
      <point x="70" y="568" type="line"/>
      <point x="70" y="0" type="line"/>
      <point x="138" y="0" type="line"/>
      <point x="138" y="460" type="line"/>
      <point x="182" y="491"/>
      <point x="200" y="506"/>
      <point x="242" y="506" type="curve"/>
      <point x="276" y="506" type="line"/>
      <point x="276" y="571" type="line"/>
    </contour>
    <contour>
      <point x="80" y="-61" type="line"/>
      <point x="53" y="-181" type="line"/>
      <point x="87" y="-181" type="line"/>
      <point x="101" y="-161"/>
      <point x="133" y="-109"/>
      <point x="133" y="-86" type="curve" smooth="yes"/>
      <point x="133" y="-69"/>
      <point x="122" y="-61"/>
      <point x="107" y="-61" type="curve" smooth="yes"/>
    </contour>
  </outline>
</glyph>
<glyph name="Tcedilla" format="1">
  <advance width="348"/>
  <unicode hex="0162"/>
  <outline>
    <contour>
      <point x="140" y="671" type="line"/>
      <point x="140" y="0" type="line"/>
      <point x="208" y="0" type="line"/>
      <point x="208" y="671" type="line"/>
    </contour>
    <contour>
      <point x="9" y="671" type="line"/>
      <point x="9" y="611" type="line"/>
      <point x="339" y="611" type="line"/>
      <point x="339" y="671" type="line"/>
    </contour>
    <contour>
      <point x="151" y="-61" type="line"/>
      <point x="124" y="-181" type="line"/>
      <point x="158" y="-181" type="line"/>
      <point x="172" y="-161"/>
      <point x="205" y="-109"/>
      <point x="205" y="-86" type="curve" smooth="yes"/>
      <point x="205" y="-69"/>
      <point x="193" y="-61"/>
      <point x="178" y="-61" type="curve" smooth="yes"/>
    </contour>
  </outline>
</glyph>
<glyph name="florin" format="1">
  <advance width="303"/>
  <unicode hex="0192"/>
  <outline>
    <contour>
      <point x="146" y="586" type="curve" smooth="yes"/>
      <point x="71" y="130" type="line" smooth="yes"/>
      <point x="62" y="76"/>
      <point x="43" y="54"/>
      <point x="-3" y="54" type="curve" smooth="yes"/>
      <point x="-10" y="54"/>
      <point x="-17" y="55"/>
      <point x="-24" y="55" type="curve"/>
      <point x="-24" y="-2" type="line"/>
      <point x="-15" y="-3"/>
      <point x="-6" y="-4"/>
      <point x="2" y="-4" type="curve" smooth="yes"/>
      <point x="93" y="-4"/>
      <point x="125" y="46"/>
      <point x="139" y="130" type="curve" smooth="yes"/>
      <point x="214" y="587" type="line" smooth="yes"/>
      <point x="223" y="641"/>
      <point x="241" y="663"/>
      <point x="287" y="663" type="curve" smooth="yes"/>
      <point x="297" y="663"/>
      <point x="305" y="662"/>
      <point x="313" y="661" type="curve"/>
      <point x="313" y="719" type="line"/>
      <point x="303" y="720"/>
      <point x="293" y="721"/>
      <point x="283" y="721" type="curve" smooth="yes"/>
      <point x="192" y="721"/>
      <point x="160" y="670"/>
    </contour>
    <contour>
      <point x="40" y="483" type="line"/>
      <point x="40" y="425" type="line"/>
      <point x="270" y="425" type="line"/>
      <point x="270" y="483" type="line"/>
    </contour>
  </outline>
</glyph>
<glyph name="Scommaaccent" format="1">
  <advance width="386"/>
  <unicode hex="0218"/>
  <outline>
    <contour>
      <point x="28" y="536" type="curve" smooth="yes"/>
      <point x="28" y="477" type="line" smooth="yes"/>
      <point x="28" y="409"/>
      <point x="59" y="368"/>
      <point x="115" y="337" type="curve" smooth="yes"/>
      <point x="230" y="274" type="line"/>
      <point x="272" y="252"/>
      <point x="285" y="230"/>
      <point x="285" y="186" type="curve" smooth="yes"/>
      <point x="285" y="143" type="line" smooth="yes"/>
      <point x="285" y="93"/>
      <point x="253" y="57"/>
      <point x="166" y="57" type="curve" smooth="yes"/>
      <point x="116" y="57"/>
      <point x="65" y="68"/>
      <point x="33" y="80" type="curve"/>
      <point x="33" y="15" type="line"/>
      <point x="60" y="5"/>
      <point x="112" y="-5"/>
      <point x="167" y="-5" type="curve" smooth="yes"/>
      <point x="294" y="-5"/>
      <point x="354" y="50"/>
      <point x="354" y="139" type="curve" smooth="yes"/>
      <point x="354" y="193" type="line"/>
      <point x="354" y="256"/>
      <point x="327" y="296"/>
      <point x="272" y="325" type="curve" smooth="yes"/>
      <point x="156" y="390" type="line" smooth="yes"/>
      <point x="114" y="413"/>
      <point x="97" y="438"/>
      <point x="97" y="484" type="curve" smooth="yes"/>
      <point x="97" y="534" type="line" smooth="yes"/>
      <point x="97" y="586"/>
      <point x="130" y="613"/>
      <point x="201" y="613" type="curve" smooth="yes"/>
      <point x="251" y="613"/>
      <point x="298" y="606"/>
      <point x="328" y="595" type="curve"/>
      <point x="328" y="660" type="line"/>
      <point x="301" y="668"/>
      <point x="255" y="676"/>
      <point x="200" y="676" type="curve" smooth="yes"/>
      <point x="85" y="676"/>
      <point x="28" y="622"/>
    </contour>
    <contour>
      <point x="159" y="-61" type="line"/>
      <point x="132" y="-181" type="line"/>
      <point x="166" y="-181" type="line"/>
      <point x="180" y="-161"/>
      <point x="213" y="-109"/>
      <point x="213" y="-86" type="curve" smooth="yes"/>
      <point x="213" y="-69"/>
      <point x="201" y="-61"/>
      <point x="186" y="-61" type="curve" smooth="yes"/>
    </contour>
  </outline>
</glyph>
<glyph name="Tcommaaccent" format="1">
  <advance width="348"/>
  <unicode hex="021A"/>
  <outline>
    <contour>
      <point x="140" y="671" type="line"/>
      <point x="140" y="0" type="line"/>
      <point x="208" y="0" type="line"/>
      <point x="208" y="671" type="line"/>
    </contour>
    <contour>
      <point x="9" y="671" type="line"/>
      <point x="9" y="611" type="line"/>
      <point x="339" y="611" type="line"/>
      <point x="339" y="671" type="line"/>
    </contour>
    <contour>
      <point x="147" y="-61" type="line"/>
      <point x="120" y="-181" type="line"/>
      <point x="154" y="-181" type="line"/>
      <point x="168" y="-161"/>
      <point x="201" y="-109"/>
      <point x="201" y="-86" type="curve" smooth="yes"/>
      <point x="201" y="-69"/>
      <point x="189" y="-61"/>
      <point x="174" y="-61" type="curve" smooth="yes"/>
    </contour>
  </outline>
</glyph>
<glyph name="tcommaaccent" format="1">
  <advance width="289"/>
  <unicode hex="021B"/>
  <outline>
    <contour>
      <point x="90" y="671" type="line"/>
      <point x="70" y="568" type="line"/>
      <point x="5" y="568" type="line"/>
      <point x="5" y="508" type="line"/>
      <point x="68" y="508" type="line"/>
      <point x="68" y="121" type="line" smooth="yes"/>
      <point x="68" y="40"/>
      <point x="112" y="-4"/>
      <point x="200" y="-4" type="curve" smooth="yes"/>
      <point x="231" y="-4"/>
      <point x="266" y="4"/>
      <point x="274" y="6" type="curve"/>
      <point x="274" y="68" type="line"/>
      <point x="265" y="64"/>
      <point x="234" y="57"/>
      <point x="206" y="57" type="curve" smooth="yes"/>
      <point x="160" y="57"/>
      <point x="136" y="75"/>
      <point x="136" y="124" type="curve" smooth="yes"/>
      <point x="136" y="508" type="line"/>
      <point x="264" y="508" type="line"/>
      <point x="264" y="568" type="line"/>
      <point x="136" y="568" type="line"/>
      <point x="136" y="671" type="line"/>
    </contour>
    <contour>
      <point x="152" y="-61" type="line"/>
      <point x="125" y="-181" type="line"/>
      <point x="159" y="-181" type="line"/>
      <point x="173" y="-161"/>
      <point x="206" y="-109"/>
      <point x="206" y="-86" type="curve" smooth="yes"/>
      <point x="206" y="-69"/>
      <point x="194" y="-61"/>
      <point x="179" y="-61" type="curve" smooth="yes"/>
    </contour>
  </outline>
</glyph>
<glyph name="circumflex" format="1">
  <advance width="350"/>
  <unicode hex="02C6"/>
  <outline>
    <contour>
      <point x="151" y="719" type="line"/>
      <point x="211" y="612" type="line"/>
      <point x="253" y="612" type="line"/>
      <point x="203" y="719" type="line"/>
    </contour>
    <contour>
      <point x="147" y="719" type="line"/>
      <point x="96" y="612" type="line"/>
      <point x="139" y="612" type="line"/>
      <point x="199" y="719" type="line"/>
    </contour>
  </outline>
</glyph>
<glyph name="caron" format="1">
  <advance width="350"/>
  <unicode hex="02C7"/>
  <outline>
    <contour>
      <point x="211" y="719" type="line"/>
      <point x="151" y="612" type="line"/>
      <point x="203" y="612" type="line"/>
      <point x="253" y="719" type="line"/>
    </contour>
    <contour>
      <point x="96" y="719" type="line"/>
      <point x="147" y="612" type="line"/>
      <point x="199" y="612" type="line"/>
      <point x="139" y="719" type="line"/>
    </contour>
  </outline>
</glyph>
<glyph name="macronmod" format="1">
  <advance width="350"/>
  <unicode hex="02C9"/>
  <outline>
    <contour>
      <point x="65" y="688" type="line"/>
      <point x="65" y="643" type="line"/>
      <point x="285" y="643" type="line"/>
      <point x="285" y="688" type="line"/>
    </contour>
  </outline>
</glyph>
<glyph name="breve" format="1">
  <advance width="350"/>
  <unicode hex="02D8"/>
  <outline>
    <contour>
      <point x="235" y="719" type="line"/>
      <point x="234" y="682"/>
      <point x="213" y="657"/>
      <point x="175" y="657" type="curve" smooth="yes"/>
      <point x="137" y="657"/>
      <point x="116" y="682"/>
      <point x="115" y="719" type="curve"/>
      <point x="66" y="719" type="line"/>
      <point x="67" y="659"/>
      <point x="106" y="612"/>
      <point x="175" y="612" type="curve" smooth="yes"/>
      <point x="244" y="612"/>
      <point x="283" y="659"/>
      <point x="284" y="719" type="curve"/>
    </contour>
  </outline>
</glyph>
<glyph name="dotaccent" format="1">
  <advance width="350"/>
  <unicode hex="02D9"/>
  <outline>
    <contour>
      <point x="136" y="688" type="curve" smooth="yes"/>
      <point x="136" y="667"/>
      <point x="146" y="651"/>
      <point x="173" y="651" type="curve" smooth="yes"/>
      <point x="201" y="651"/>
      <point x="211" y="667"/>
      <point x="211" y="688" type="curve" smooth="yes"/>
      <point x="211" y="710"/>
      <point x="201" y="725"/>
      <point x="173" y="725" type="curve" smooth="yes"/>
      <point x="146" y="725"/>
      <point x="136" y="710"/>
    </contour>
  </outline>
</glyph>
<glyph name="ring" format="1">
  <advance width="350"/>
  <unicode hex="02DA"/>
  <outline>
    <contour>
      <point x="101" y="666" type="curve" smooth="yes"/>
      <point x="101" y="626"/>
      <point x="128" y="593"/>
      <point x="175" y="593" type="curve" smooth="yes"/>
      <point x="223" y="593"/>
      <point x="249" y="626"/>
      <point x="249" y="666" type="curve" smooth="yes"/>
      <point x="249" y="706"/>
      <point x="223" y="738"/>
      <point x="175" y="738" type="curve" smooth="yes"/>
      <point x="128" y="738"/>
      <point x="101" y="706"/>
    </contour>
    <contour>
      <point x="210" y="666" type="curve" smooth="yes"/>
      <point x="210" y="644"/>
      <point x="197" y="630"/>
      <point x="175" y="630" type="curve" smooth="yes"/>
      <point x="153" y="630"/>
      <point x="140" y="644"/>
      <point x="140" y="666" type="curve" smooth="yes"/>
      <point x="140" y="687"/>
      <point x="153" y="701"/>
      <point x="175" y="701" type="curve" smooth="yes"/>
      <point x="197" y="701"/>
      <point x="210" y="687"/>
    </contour>
  </outline>
</glyph>
<glyph name="ogonek" format="1">
  <advance width="350"/>
  <unicode hex="02DB"/>
  <outline>
    <contour>
      <point x="187" y="0" type="line"/>
      <point x="153" y="-27"/>
      <point x="128" y="-67"/>
      <point x="128" y="-108" type="curve" smooth="yes"/>
      <point x="128" y="-152"/>
      <point x="155" y="-175"/>
      <point x="209" y="-175" type="curve" smooth="yes"/>
      <point x="223" y="-175" type="line"/>
      <point x="223" y="-129" type="line"/>
      <point x="211" y="-129" type="line" smooth="yes"/>
      <point x="186" y="-129"/>
      <point x="174" y="-119"/>
      <point x="174" y="-93" type="curve" smooth="yes"/>
      <point x="174" y="-60"/>
      <point x="193" y="-24"/>
      <point x="223" y="0" type="curve"/>
    </contour>
  </outline>
</glyph>
<glyph name="tilde" format="1">
  <advance width="350"/>
  <unicode hex="02DC"/>
  <outline>
    <contour>
      <point x="248" y="710" type="line"/>
      <point x="248" y="699" type="line" smooth="yes"/>
      <point x="248" y="679"/>
      <point x="243" y="668"/>
      <point x="226" y="668" type="curve" smooth="yes"/>
      <point x="198" y="669"/>
      <point x="166" y="708"/>
      <point x="119" y="708" type="curve" smooth="yes"/>
      <point x="72" y="708"/>
      <point x="52" y="676"/>
      <point x="52" y="635" type="curve" smooth="yes"/>
      <point x="52" y="621" type="line"/>
      <point x="101" y="621" type="line"/>
      <point x="101" y="633" type="line" smooth="yes"/>
      <point x="101" y="653"/>
      <point x="108" y="664"/>
      <point x="124" y="664" type="curve" smooth="yes"/>
      <point x="157" y="664"/>
      <point x="186" y="623"/>
      <point x="232" y="623" type="curve" smooth="yes"/>
      <point x="274" y="623"/>
      <point x="297" y="650"/>
      <point x="297" y="696" type="curve" smooth="yes"/>
      <point x="297" y="710" type="line"/>
    </contour>
  </outline>
</glyph>
<glyph name="hungarumlaut" format="1">
  <advance width="350"/>
  <unicode hex="02DD"/>
  <outline>
    <contour>
      <point x="206" y="719" type="line"/>
      <point x="167" y="612" type="line"/>
      <point x="208" y="612" type="line"/>
      <point x="267" y="719" type="line"/>
    </contour>
    <contour>
      <point x="121" y="719" type="line"/>
      <point x="82" y="612" type="line"/>
      <point x="123" y="612" type="line"/>
      <point x="182" y="719" type="line"/>
    </contour>
  </outline>
</glyph>
<glyph name="pi" format="1">
  <advance width="451"/>
  <unicode hex="03C0"/>
  <outline>
    <contour>
      <point x="69" y="568" type="line"/>
      <point x="70" y="0" type="line"/>
      <point x="138" y="0" type="line"/>
      <point x="138" y="508" type="line"/>
      <point x="318" y="508" type="line"/>
      <point x="318" y="0" type="line"/>
      <point x="386" y="0" type="line"/>
      <point x="386" y="508" type="line"/>
      <point x="454" y="508" type="line"/>
      <point x="454" y="568" type="line"/>
    </contour>
  </outline>
</glyph>
<glyph name="dvCandrabindu" format="1">
  <advance width="0"/>
  <unicode hex="0901"/>
  <outline>
    <contour>
      <point x="-73" y="649" type="move" name="_abvm.bindu"/>
    </contour>
    <contour>
      <point x="-144" y="870" type="curve" smooth="yes"/>
      <point x="-144" y="847"/>
      <point x="-134" y="830"/>
      <point x="-104" y="830" type="curve" smooth="yes"/>
      <point x="-75" y="830"/>
      <point x="-65" y="847"/>
      <point x="-65" y="870" type="curve" smooth="yes"/>
      <point x="-65" y="892"/>
      <point x="-75" y="909"/>
      <point x="-104" y="909" type="curve" smooth="yes"/>
      <point x="-134" y="909"/>
      <point x="-144" y="892"/>
    </contour>
    <contour>
      <point x="-6" y="834" type="line"/>
      <point x="-6" y="783"/>
      <point x="-34" y="768"/>
      <point x="-104" y="768" type="curve" smooth="yes"/>
      <point x="-175" y="768"/>
      <point x="-203" y="783"/>
      <point x="-203" y="834" type="curve"/>
      <point x="-263" y="834" type="line"/>
      <point x="-263" y="833" type="line"/>
      <point x="-263" y="744"/>
      <point x="-207" y="713"/>
      <point x="-104" y="713" type="curve" smooth="yes"/>
      <point x="-3" y="713"/>
      <point x="54" y="744"/>
      <point x="54" y="833" type="curve"/>
      <point x="54" y="834" type="line"/>
    </contour>
  </outline>
</glyph>
<glyph name="dvAnusvara" format="1">
  <advance width="0"/>
  <unicode hex="0902"/>
  <outline>
    <contour>
      <point x="-73" y="649" type="move" name="_abvm.bindu"/>
    </contour>
    <contour>
      <point x="-145" y="767" type="curve" smooth="yes"/>
      <point x="-145" y="744"/>
      <point x="-135" y="727"/>
      <point x="-105" y="727" type="curve" smooth="yes"/>
      <point x="-75" y="727"/>
      <point x="-64" y="744"/>
      <point x="-64" y="767" type="curve" smooth="yes"/>
      <point x="-64" y="791"/>
      <point x="-75" y="808"/>
      <point x="-105" y="808" type="curve" smooth="yes"/>
      <point x="-135" y="808"/>
      <point x="-145" y="791"/>
    </contour>
  </outline>
</glyph>
<glyph name="dvVisarga" format="1">
  <advance width="199"/>
  <unicode hex="0903"/>
  <outline>
    <contour>
      <point x="43" y="383" type="curve" smooth="yes"/>
      <point x="43" y="360"/>
      <point x="53" y="343"/>
      <point x="84" y="343" type="curve" smooth="yes"/>
      <point x="114" y="343"/>
      <point x="124" y="360"/>
      <point x="124" y="383" type="curve" smooth="yes"/>
      <point x="124" y="407"/>
      <point x="114" y="424"/>
      <point x="84" y="424" type="curve" smooth="yes"/>
      <point x="53" y="424"/>
      <point x="43" y="407"/>
    </contour>
    <contour>
      <point x="43" y="40" type="curve" smooth="yes"/>
      <point x="43" y="17"/>
      <point x="54" y="0"/>
      <point x="84" y="0" type="curve" smooth="yes"/>
      <point x="114" y="0"/>
      <point x="124" y="17"/>
      <point x="124" y="40" type="curve" smooth="yes"/>
      <point x="124" y="64"/>
      <point x="114" y="81"/>
      <point x="84" y="81" type="curve" smooth="yes"/>
      <point x="53" y="81"/>
      <point x="43" y="64"/>
    </contour>
  </outline>
</glyph>
<glyph name="dvA" format="1">
  <advance width="560"/>
  <unicode hex="0905"/>
  <outline>
    <contour>
      <point x="245" y="169" type="line"/>
      <point x="244" y="123"/>
      <point x="218" y="91"/>
      <point x="148" y="91" type="curve" smooth="yes"/>
      <point x="109" y="91"/>
      <point x="68" y="99"/>
      <point x="36" y="108" type="curve"/>
      <point x="36" y="49" type="line"/>
      <point x="69" y="40"/>
      <point x="108" y="34"/>
      <point x="148" y="34" type="curve" smooth="yes"/>
      <point x="254" y="34"/>
      <point x="306" y="86"/>
      <point x="306" y="168" type="curve"/>
      <point x="306" y="242" type="line" smooth="yes"/>
      <point x="306" y="289"/>
      <point x="295" y="333"/>
      <point x="254" y="350" type="curve"/>
      <point x="295" y="366"/>
      <point x="306" y="411"/>
      <point x="306" y="457" type="curve" smooth="yes"/>
      <point x="306" y="520" type="line" smooth="yes"/>
      <point x="306" y="603"/>
      <point x="254" y="654"/>
      <point x="149" y="654" type="curve" smooth="yes"/>
      <point x="104" y="654"/>
      <point x="72" y="647"/>
      <point x="47" y="639" type="curve"/>
      <point x="47" y="579" type="line"/>
      <point x="76" y="589"/>
      <point x="109" y="597"/>
      <point x="148" y="597" type="curve" smooth="yes"/>
      <point x="218" y="597"/>
      <point x="245" y="565"/>
      <point x="245" y="519" type="curve" smooth="yes"/>
      <point x="245" y="457" type="line" smooth="yes"/>
      <point x="245" y="414"/>
      <point x="234" y="379"/>
      <point x="160" y="379" type="curve" smooth="yes"/>
      <point x="100" y="379" type="line"/>
      <point x="100" y="321" type="line"/>
      <point x="160" y="321" type="line" smooth="yes"/>
      <point x="234" y="320"/>
      <point x="245" y="285"/>
      <point x="245" y="242" type="curve" smooth="yes"/>
    </contour>
    <contour>
      <point x="425" y="649" type="line"/>
      <point x="425" y="0" type="line"/>
      <point x="487" y="0" type="line"/>
      <point x="487" y="595" type="line"/>
      <point x="584" y="595" type="line"/>
      <point x="584" y="649" type="line"/>
    </contour>
    <contour>
      <point x="277" y="213" type="line"/>
      <point x="436" y="213" type="line"/>
      <point x="436" y="267" type="line"/>
      <point x="277" y="267" type="line"/>
    </contour>
  </outline>
</glyph>
<glyph name="dvI" format="1">
  <advance width="398"/>
  <unicode hex="0907"/>
  <outline>
    <contour>
      <point x="328" y="649" type="move" name="abvm.bindu"/>
    </contour>
    <contour>
      <point x="110" y="171" type="line"/>
      <point x="51" y="171" type="line"/>
      <point x="51" y="-65" type="line"/>
      <point x="110" y="-65" type="line"/>
      <point x="110" y="36" type="line"/>
      <point x="133" y="31"/>
      <point x="165" y="28"/>
      <point x="202" y="28" type="curve" smooth="yes"/>
      <point x="311" y="28"/>
      <point x="356" y="69"/>
      <point x="356" y="151" type="curve" smooth="yes"/>
      <point x="356" y="191" type="line" smooth="yes"/>
      <point x="356" y="270"/>
      <point x="309" y="312"/>
      <point x="209" y="312" type="curve" smooth="yes"/>
      <point x="187" y="312" type="line" smooth="yes"/>
      <point x="121" y="312"/>
      <point x="103" y="338"/>
      <point x="103" y="378" type="curve" smooth="yes"/>
      <point x="103" y="383" type="line" smooth="yes"/>
      <point x="103" y="424"/>
      <point x="121" y="448"/>
      <point x="187" y="448" type="curve" smooth="yes"/>
      <point x="328" y="448" type="line"/>
      <point x="328" y="595" type="line"/>
      <point x="421" y="595" type="line"/>
      <point x="421" y="649" type="line"/>
      <point x="-24" y="649" type="line"/>
      <point x="-24" y="595" type="line"/>
      <point x="266" y="595" type="line"/>
      <point x="266" y="504" type="line"/>
      <point x="187" y="504" type="line" smooth="yes"/>
      <point x="89" y="504"/>
      <point x="42" y="464"/>
      <point x="42" y="384" type="curve" smooth="yes"/>
      <point x="42" y="378" type="line" smooth="yes"/>
      <point x="42" y="298"/>
      <point x="89" y="257"/>
      <point x="187" y="257" type="curve" smooth="yes"/>
      <point x="209" y="257" type="line" smooth="yes"/>
      <point x="277" y="257"/>
      <point x="295" y="230"/>
      <point x="295" y="190" type="curve" smooth="yes"/>
      <point x="295" y="152" type="line" smooth="yes"/>
      <point x="295" y="108"/>
      <point x="267" y="84"/>
      <point x="199" y="84" type="curve" smooth="yes"/>
      <point x="163" y="84"/>
      <point x="135" y="87"/>
      <point x="110" y="92" type="curve"/>
    </contour>
  </outline>
</glyph>
<glyph name="dvII" format="1">
  <advance width="398"/>
  <unicode hex="0908"/>
  <outline>
    <contour>
      <point x="323" y="649" type="line"/>
      <point x="307" y="681"/>
      <point x="288" y="725"/>
      <point x="288" y="758" type="curve" smooth="yes"/>
      <point x="288" y="810"/>
      <point x="325" y="826"/>
      <point x="367" y="826" type="curve" smooth="yes"/>
      <point x="380" y="826"/>
      <point x="393" y="825"/>
      <point x="404" y="823" type="curve"/>
      <point x="404" y="878" type="line"/>
      <point x="392" y="879"/>
      <point x="377" y="882"/>
      <point x="355" y="882" type="curve" smooth="yes"/>
      <point x="289" y="882"/>
      <point x="226" y="851"/>
      <point x="226" y="763" type="curve" smooth="yes"/>
      <point x="226" y="721"/>
      <point x="244" y="681"/>
      <point x="261" y="649" type="curve"/>
    </contour>
    <contour>
      <point x="110" y="171" type="line"/>
      <point x="51" y="171" type="line"/>
      <point x="51" y="-65" type="line"/>
      <point x="110" y="-65" type="line"/>
      <point x="110" y="36" type="line"/>
      <point x="133" y="31"/>
      <point x="165" y="28"/>
      <point x="202" y="28" type="curve" smooth="yes"/>
      <point x="311" y="28"/>
      <point x="356" y="69"/>
      <point x="356" y="151" type="curve" smooth="yes"/>
      <point x="356" y="191" type="line" smooth="yes"/>
      <point x="356" y="270"/>
      <point x="309" y="312"/>
      <point x="209" y="312" type="curve" smooth="yes"/>
      <point x="187" y="312" type="line" smooth="yes"/>
      <point x="121" y="312"/>
      <point x="103" y="338"/>
      <point x="103" y="378" type="curve" smooth="yes"/>
      <point x="103" y="383" type="line" smooth="yes"/>
      <point x="103" y="424"/>
      <point x="121" y="448"/>
      <point x="187" y="448" type="curve" smooth="yes"/>
      <point x="328" y="448" type="line"/>
      <point x="328" y="595" type="line"/>
      <point x="421" y="595" type="line"/>
      <point x="421" y="649" type="line"/>
      <point x="-24" y="649" type="line"/>
      <point x="-24" y="595" type="line"/>
      <point x="266" y="595" type="line"/>
      <point x="266" y="504" type="line"/>
      <point x="187" y="504" type="line" smooth="yes"/>
      <point x="89" y="504"/>
      <point x="42" y="464"/>
      <point x="42" y="384" type="curve" smooth="yes"/>
      <point x="42" y="378" type="line" smooth="yes"/>
      <point x="42" y="298"/>
      <point x="89" y="257"/>
      <point x="187" y="257" type="curve" smooth="yes"/>
      <point x="209" y="257" type="line" smooth="yes"/>
      <point x="277" y="257"/>
      <point x="295" y="230"/>
      <point x="295" y="190" type="curve" smooth="yes"/>
      <point x="295" y="152" type="line" smooth="yes"/>
      <point x="295" y="108"/>
      <point x="267" y="84"/>
      <point x="199" y="84" type="curve" smooth="yes"/>
      <point x="163" y="84"/>
      <point x="135" y="87"/>
      <point x="110" y="92" type="curve"/>
    </contour>
  </outline>
</glyph>
<glyph name="dvU" format="1">
  <advance width="400"/>
  <unicode hex="0909"/>
  <outline>
    <contour>
      <point x="297" y="649" type="move" name="abvm.bindu"/>
    </contour>
    <contour>
      <point x="330" y="231" type="line"/>
      <point x="330" y="277"/>
      <point x="318" y="323"/>
      <point x="279" y="337" type="curve"/>
      <point x="317" y="349"/>
      <point x="330" y="395"/>
      <point x="330" y="442" type="curve" smooth="yes"/>
      <point x="330" y="527" type="line" smooth="yes"/>
      <point x="330" y="576"/>
      <point x="319" y="595"/>
      <point x="319" y="595" type="curve"/>
      <point x="423" y="595" type="line"/>
      <point x="423" y="649" type="line"/>
      <point x="-24" y="649" type="line"/>
      <point x="-24" y="595" type="line"/>
      <point x="255" y="595" type="line"/>
      <point x="255" y="595"/>
      <point x="269" y="572"/>
      <point x="269" y="526" type="curve" smooth="yes"/>
      <point x="269" y="442" type="line" smooth="yes"/>
      <point x="269" y="401"/>
      <point x="259" y="366"/>
      <point x="187" y="366" type="curve" smooth="yes"/>
      <point x="124" y="366" type="line"/>
      <point x="124" y="308" type="line"/>
      <point x="185" y="308" type="line" smooth="yes"/>
      <point x="258" y="307"/>
      <point x="269" y="272"/>
      <point x="269" y="230" type="curve" smooth="yes"/>
      <point x="269" y="131" type="line" smooth="yes"/>
      <point x="269" y="82"/>
      <point x="238" y="54"/>
      <point x="155" y="54" type="curve" smooth="yes"/>
      <point x="116" y="54"/>
      <point x="83" y="61"/>
      <point x="48" y="72" type="curve"/>
      <point x="48" y="12" type="line"/>
      <point x="83" y="2"/>
      <point x="113" y="-3"/>
      <point x="155" y="-3" type="curve" smooth="yes"/>
      <point x="274" y="-3"/>
      <point x="330" y="44"/>
      <point x="330" y="131" type="curve"/>
    </contour>
  </outline>
</glyph>
<glyph name="dvUU" format="1">
  <advance width="565"/>
  <unicode hex="090A"/>
  <outline>
    <contour>
      <point x="296" y="649" type="move" name="abvm.bindu"/>
    </contour>
    <contour>
      <point x="382" y="-1" type="line"/>
      <point x="382" y="-1"/>
      <point x="400" y="-1"/>
      <point x="402" y="-1" type="curve" smooth="yes"/>
      <point x="487" y="-1"/>
      <point x="529" y="47"/>
      <point x="529" y="123" type="curve" smooth="yes"/>
      <point x="529" y="223" type="line" smooth="yes"/>
      <point x="529" y="303"/>
      <point x="482" y="352"/>
      <point x="386" y="352" type="curve" smooth="yes"/>
      <point x="329" y="352"/>
      <point x="263" y="337"/>
      <point x="263" y="337" type="curve"/>
      <point x="265" y="295" type="line"/>
      <point x="265" y="295"/>
      <point x="374" y="295"/>
      <point x="381" y="295" type="curve" smooth="yes"/>
      <point x="447" y="295"/>
      <point x="467" y="261"/>
      <point x="467" y="218" type="curve" smooth="yes"/>
      <point x="467" y="124" type="line" smooth="yes"/>
      <point x="467" y="83"/>
      <point x="450" y="57"/>
      <point x="389" y="57" type="curve"/>
      <point x="382" y="57" type="line"/>
    </contour>
    <contour>
      <point x="330" y="231" type="line"/>
      <point x="330" y="277"/>
      <point x="318" y="323"/>
      <point x="279" y="337" type="curve"/>
      <point x="317" y="349"/>
      <point x="330" y="395"/>
      <point x="330" y="442" type="curve" smooth="yes"/>
      <point x="330" y="527" type="line" smooth="yes"/>
      <point x="330" y="576"/>
      <point x="319" y="595"/>
      <point x="319" y="595" type="curve"/>
      <point x="588" y="595" type="line"/>
      <point x="588" y="649" type="line"/>
      <point x="-24" y="649" type="line"/>
      <point x="-24" y="595" type="line"/>
      <point x="255" y="595" type="line"/>
      <point x="255" y="595"/>
      <point x="269" y="572"/>
      <point x="269" y="526" type="curve" smooth="yes"/>
      <point x="269" y="442" type="line" smooth="yes"/>
      <point x="269" y="401"/>
      <point x="259" y="366"/>
      <point x="187" y="366" type="curve" smooth="yes"/>
      <point x="124" y="366" type="line"/>
      <point x="124" y="308" type="line"/>
      <point x="185" y="308" type="line" smooth="yes"/>
      <point x="258" y="307"/>
      <point x="269" y="272"/>
      <point x="269" y="230" type="curve" smooth="yes"/>
      <point x="269" y="131" type="line" smooth="yes"/>
      <point x="269" y="82"/>
      <point x="238" y="54"/>
      <point x="155" y="54" type="curve" smooth="yes"/>
      <point x="116" y="54"/>
      <point x="83" y="61"/>
      <point x="48" y="72" type="curve"/>
      <point x="48" y="12" type="line"/>
      <point x="83" y="2"/>
      <point x="113" y="-3"/>
      <point x="155" y="-3" type="curve" smooth="yes"/>
      <point x="274" y="-3"/>
      <point x="330" y="44"/>
      <point x="330" y="131" type="curve" smooth="yes"/>
    </contour>
  </outline>
</glyph>
<glyph name="dvvR" format="1">
  <advance width="674"/>
  <unicode hex="090B"/>
  <outline>
    <contour>
      <point x="445" y="137" type="curve" smooth="yes"/>
      <point x="445" y="39"/>
      <point x="513" y="-1"/>
      <point x="594" y="-1" type="curve" smooth="yes"/>
      <point x="615" y="-1"/>
      <point x="634" y="0"/>
      <point x="654" y="4" type="curve"/>
      <point x="654" y="59" type="line"/>
      <point x="632" y="54"/>
      <point x="615" y="53"/>
      <point x="597" y="53" type="curve" smooth="yes"/>
      <point x="553" y="53"/>
      <point x="506" y="70"/>
      <point x="506" y="139" type="curve" smooth="yes"/>
      <point x="506" y="205"/>
      <point x="530" y="230"/>
      <point x="583" y="230" type="curve" smooth="yes"/>
      <point x="624" y="230" type="line"/>
      <point x="624" y="504" type="line"/>
      <point x="564" y="504" type="line"/>
      <point x="564" y="495" type="line" smooth="yes"/>
      <point x="564" y="447"/>
      <point x="537" y="419"/>
      <point x="468" y="419" type="curve" smooth="yes"/>
      <point x="432" y="419"/>
      <point x="393" y="423"/>
      <point x="351" y="434" type="curve"/>
      <point x="351" y="375" type="line"/>
      <point x="390" y="366"/>
      <point x="431" y="361"/>
      <point x="467" y="361" type="curve" smooth="yes"/>
      <point x="512" y="361"/>
      <point x="546" y="372"/>
      <point x="566" y="393" type="curve"/>
      <point x="566" y="278" type="line"/>
      <point x="486" y="276"/>
      <point x="445" y="229"/>
    </contour>
    <contour>
      <point x="315" y="264" type="curve"/>
      <point x="319" y="264" type="line"/>
      <point x="318" y="257"/>
      <point x="314" y="198"/>
      <point x="314" y="97" type="curve"/>
      <point x="314" y="0" type="line"/>
      <point x="374" y="0" type="line"/>
      <point x="374" y="595" type="line"/>
      <point x="698" y="595" type="line"/>
      <point x="698" y="649" type="line"/>
      <point x="-24" y="649" type="line"/>
      <point x="-24" y="595" type="line"/>
      <point x="312" y="595" type="line"/>
      <point x="312" y="484" type="line"/>
      <point x="287" y="491"/>
      <point x="253" y="498"/>
      <point x="211" y="498" type="curve" smooth="yes"/>
      <point x="99" y="498"/>
      <point x="44" y="447"/>
      <point x="44" y="357" type="curve" smooth="yes"/>
      <point x="44" y="296" type="line"/>
      <point x="105" y="296" type="line"/>
      <point x="105" y="355" type="line" smooth="yes"/>
      <point x="105" y="408"/>
      <point x="134" y="440"/>
      <point x="215" y="440" type="curve" smooth="yes"/>
      <point x="253" y="440"/>
      <point x="287" y="434"/>
      <point x="312" y="426" type="curve"/>
      <point x="312" y="335" type="line"/>
      <point x="40" y="53" type="line"/>
      <point x="40" y="49" type="line"/>
      <point x="118" y="49" type="line"/>
      <point x="248" y="183" type="line" smooth="yes"/>
      <point x="295" y="232"/>
      <point x="312" y="257"/>
    </contour>
  </outline>
</glyph>
<glyph name="dvvL" format="1">
  <advance width="617"/>
  <unicode hex="090C"/>
  <outline>
    <contour>
      <point x="543" y="137" type="curve"/>
      <point x="543" y="192" type="line"/>
      <point x="543" y="192"/>
      <point x="490" y="194"/>
      <point x="482" y="194" type="curve" smooth="yes"/>
      <point x="396" y="194"/>
      <point x="352" y="152"/>
      <point x="352" y="62" type="curve" smooth="yes"/>
      <point x="352" y="-29"/>
      <point x="405" y="-69"/>
      <point x="489" y="-69" type="curve" smooth="yes"/>
      <point x="520" y="-69"/>
      <point x="542" y="-62"/>
      <point x="547" y="-61" type="curve"/>
      <point x="547" y="-2" type="line"/>
      <point x="540" y="-3"/>
      <point x="523" y="-10"/>
      <point x="489" y="-10" type="curve" smooth="yes"/>
      <point x="447" y="-10"/>
      <point x="413" y="-1"/>
      <point x="413" y="62" type="curve" smooth="yes"/>
      <point x="413" y="117"/>
      <point x="433" y="139"/>
      <point x="488" y="139" type="curve" smooth="yes"/>
      <point x="494" y="139"/>
      <point x="536" y="138"/>
    </contour>
    <contour>
      <point x="51" y="152" type="line"/>
      <point x="51" y="57"/>
      <point x="98" y="0"/>
      <point x="213" y="0" type="curve" smooth="yes"/>
      <point x="235" y="0"/>
      <point x="253" y="2"/>
      <point x="268" y="5" type="curve"/>
      <point x="268" y="60" type="line"/>
      <point x="255" y="58"/>
      <point x="233" y="56"/>
      <point x="214" y="56" type="curve" smooth="yes"/>
      <point x="131" y="56"/>
      <point x="112" y="98"/>
      <point x="112" y="153" type="curve" smooth="yes"/>
      <point x="112" y="349" type="line" smooth="yes"/>
      <point x="112" y="390"/>
      <point x="126" y="422"/>
      <point x="189" y="422" type="curve" smooth="yes"/>
      <point x="250" y="422"/>
      <point x="266" y="391"/>
      <point x="266" y="352" type="curve" smooth="yes"/>
      <point x="266" y="209" type="line"/>
      <point x="328" y="209" type="line"/>
      <point x="328" y="352" type="line" smooth="yes"/>
      <point x="328" y="391"/>
      <point x="349" y="422"/>
      <point x="410" y="422" type="curve" smooth="yes"/>
      <point x="435" y="422"/>
      <point x="460" y="417"/>
      <point x="482" y="408" type="curve"/>
      <point x="482" y="159" type="line"/>
      <point x="543" y="159" type="line"/>
      <point x="543" y="595" type="line"/>
      <point x="640" y="595" type="line"/>
      <point x="640" y="649" type="line"/>
      <point x="-24" y="649" type="line"/>
      <point x="-24" y="595" type="line"/>
      <point x="482" y="595" type="line"/>
      <point x="482" y="465" type="line"/>
      <point x="457" y="475"/>
      <point x="436" y="479"/>
      <point x="407" y="479" type="curve" smooth="yes"/>
      <point x="354" y="479"/>
      <point x="317" y="462"/>
      <point x="296" y="434" type="curve"/>
      <point x="277" y="461"/>
      <point x="242" y="479"/>
      <point x="188" y="479" type="curve" smooth="yes"/>
      <point x="94" y="479"/>
      <point x="51" y="430"/>
      <point x="51" y="350" type="curve" smooth="yes"/>
    </contour>
  </outline>
</glyph>
<glyph name="dvEcandra" format="1">
  <advance width="426"/>
  <unicode hex="090D"/>
  <outline>
    <contour>
      <point x="319" y="844" type="line"/>
      <point x="319" y="793"/>
      <point x="290" y="778"/>
      <point x="220" y="778" type="curve" smooth="yes"/>
      <point x="149" y="778"/>
      <point x="121" y="793"/>
      <point x="121" y="844" type="curve"/>
      <point x="62" y="844" type="line"/>
      <point x="62" y="843" type="line"/>
      <point x="62" y="753"/>
      <point x="117" y="723"/>
      <point x="220" y="723" type="curve" smooth="yes"/>
      <point x="322" y="723"/>
      <point x="378" y="753"/>
      <point x="378" y="843" type="curve"/>
      <point x="378" y="844" type="line"/>
    </contour>
    <contour>
      <point x="348" y="72" type="line"/>
      <point x="322" y="64"/>
      <point x="276" y="52"/>
      <point x="226" y="52" type="curve" smooth="yes"/>
      <point x="157" y="52"/>
      <point x="131" y="81"/>
      <point x="131" y="126" type="curve" smooth="yes"/>
      <point x="131" y="595" type="line"/>
      <point x="302" y="595" type="line"/>
      <point x="302" y="398" type="line" smooth="yes"/>
      <point x="302" y="359"/>
      <point x="290" y="330"/>
      <point x="235" y="330" type="curve" smooth="yes"/>
      <point x="230" y="330"/>
      <point x="223" y="330"/>
      <point x="217" y="331" type="curve"/>
      <point x="217" y="274" type="line"/>
      <point x="225" y="273"/>
      <point x="233" y="272"/>
      <point x="241" y="272" type="curve" smooth="yes"/>
      <point x="330" y="272"/>
      <point x="364" y="326"/>
      <point x="364" y="397" type="curve" smooth="yes"/>
      <point x="364" y="595" type="line"/>
      <point x="450" y="595" type="line"/>
      <point x="450" y="649" type="line"/>
      <point x="-24" y="649" type="line"/>
      <point x="-24" y="595" type="line"/>
      <point x="69" y="595" type="line"/>
      <point x="69" y="125" type="line" smooth="yes"/>
      <point x="69" y="41"/>
      <point x="121" y="-5"/>
      <point x="225" y="-5" type="curve" smooth="yes"/>
      <point x="278" y="-5"/>
      <point x="324" y="5"/>
      <point x="348" y="15" type="curve"/>
    </contour>
  </outline>
</glyph>
<glyph name="dvE" format="1">
  <advance width="426"/>
  <unicode hex="090F"/>
  <outline>
    <contour>
      <point x="352" y="72" type="line"/>
      <point x="326" y="64"/>
      <point x="281" y="52"/>
      <point x="231" y="52" type="curve" smooth="yes"/>
      <point x="155" y="52"/>
      <point x="131" y="82"/>
      <point x="131" y="131" type="curve" smooth="yes"/>
      <point x="131" y="595" type="line"/>
      <point x="302" y="595" type="line"/>
      <point x="302" y="398" type="line" smooth="yes"/>
      <point x="302" y="359"/>
      <point x="290" y="330"/>
      <point x="235" y="330" type="curve" smooth="yes"/>
      <point x="230" y="330"/>
      <point x="223" y="330"/>
      <point x="217" y="331" type="curve"/>
      <point x="217" y="274" type="line"/>
      <point x="225" y="273"/>
      <point x="233" y="272"/>
      <point x="241" y="272" type="curve" smooth="yes"/>
      <point x="330" y="272"/>
      <point x="364" y="326"/>
      <point x="364" y="397" type="curve" smooth="yes"/>
      <point x="364" y="595" type="line"/>
      <point x="450" y="595" type="line"/>
      <point x="450" y="649" type="line"/>
      <point x="-24" y="649" type="line"/>
      <point x="-24" y="595" type="line"/>
      <point x="69" y="595" type="line"/>
      <point x="69" y="131" type="line" smooth="yes"/>
      <point x="69" y="38"/>
      <point x="123" y="-5"/>
      <point x="230" y="-5" type="curve" smooth="yes"/>
      <point x="282" y="-5"/>
      <point x="329" y="5"/>
      <point x="352" y="15" type="curve"/>
    </contour>
  </outline>
</glyph>
<glyph name="dvOcandra" format="1">
  <advance width="793"/>
  <unicode hex="0911"/>
  <outline>
    <contour>
      <point x="658" y="595" type="line"/>
      <point x="658" y="0" type="line"/>
      <point x="720" y="0" type="line"/>
      <point x="720" y="595" type="line"/>
      <point x="817" y="595" type="line"/>
      <point x="817" y="649" type="line"/>
      <point x="562" y="649" type="line"/>
      <point x="562" y="595" type="line"/>
    </contour>
    <contour>
      <point x="687" y="838" type="line"/>
      <point x="687" y="787"/>
      <point x="658" y="772"/>
      <point x="588" y="772" type="curve" smooth="yes"/>
      <point x="517" y="772"/>
      <point x="489" y="787"/>
      <point x="489" y="838" type="curve"/>
      <point x="430" y="838" type="line"/>
      <point x="430" y="837" type="line"/>
      <point x="430" y="747"/>
      <point x="486" y="717"/>
      <point x="588" y="717" type="curve" smooth="yes"/>
      <point x="691" y="717"/>
      <point x="746" y="746"/>
      <point x="746" y="837" type="curve"/>
      <point x="746" y="838" type="line"/>
    </contour>
    <component base="dvA" xOffset="25"/>
  </outline>
</glyph>
<glyph name="dvKA" format="1">
  <advance width="580"/>
  <unicode hex="0915"/>
  <outline>
    <contour>
      <point x="323" y="649" type="move" name="abvm.bindu"/>
    </contour>
    <contour>
      <point x="323" y="0" type="move" name="blwm.virama"/>
    </contour>
    <contour>
      <point x="323" y="649" type="move" name="abvm.e"/>
    </contour>
    <contour>
      <point x="323" y="0" type="move" name="blwm.u"/>
    </contour>
    <contour>
      <point x="262" y="595" type="line"/>
      <point x="-24" y="595" type="line"/>
      <point x="-24" y="649" type="line"/>
      <point x="604" y="649" type="line"/>
      <point x="604" y="595" type="line"/>
      <point x="323" y="595" type="line"/>
      <point x="323" y="495" type="line"/>
      <point x="340" y="501"/>
      <point x="364" y="505"/>
      <point x="393" y="505" type="curve" smooth="yes"/>
      <point x="487" y="505"/>
      <point x="533" y="461"/>
      <point x="533" y="381" type="curve" smooth="yes"/>
      <point x="533" y="198" type="line" smooth="yes"/>
      <point x="533" y="127"/>
      <point x="498" y="74"/>
      <point x="411" y="74" type="curve" smooth="yes"/>
      <point x="403" y="74"/>
      <point x="394" y="74"/>
      <point x="387" y="75" type="curve"/>
      <point x="387" y="133" type="line"/>
      <point x="393" y="132"/>
      <point x="400" y="132"/>
      <point x="406" y="132" type="curve" smooth="yes"/>
      <point x="461" y="132"/>
      <point x="473" y="161"/>
      <point x="473" y="200" type="curve" smooth="yes"/>
      <point x="473" y="380" type="line" smooth="yes"/>
      <point x="473" y="421"/>
      <point x="453" y="449"/>
      <point x="390" y="449" type="curve" smooth="yes"/>
      <point x="365" y="449"/>
      <point x="344" y="447"/>
      <point x="323" y="440" type="curve"/>
      <point x="323" y="0" type="line"/>
      <point x="262" y="0" type="line"/>
      <point x="262" y="79" type="line"/>
      <point x="245" y="75"/>
      <point x="217" y="69"/>
      <point x="187" y="69" type="curve" smooth="yes"/>
      <point x="93" y="69"/>
      <point x="46" y="112"/>
      <point x="46" y="192" type="curve" smooth="yes"/>
      <point x="46" y="380" type="line" smooth="yes"/>
      <point x="46" y="460"/>
      <point x="93" y="504"/>
      <point x="187" y="504" type="curve" smooth="yes"/>
      <point x="197" y="504"/>
      <point x="209" y="503"/>
      <point x="217" y="501" type="curve"/>
      <point x="217" y="447" type="line"/>
      <point x="209" y="447"/>
      <point x="198" y="448"/>
      <point x="190" y="448" type="curve" smooth="yes"/>
      <point x="126" y="448"/>
      <point x="107" y="421"/>
      <point x="107" y="379" type="curve" smooth="yes"/>
      <point x="107" y="193" type="line" smooth="yes"/>
      <point x="107" y="152"/>
      <point x="126" y="124"/>
      <point x="190" y="124" type="curve" smooth="yes"/>
      <point x="219" y="124"/>
      <point x="245" y="129"/>
      <point x="262" y="134" type="curve"/>
    </contour>
  </outline>
</glyph>
<glyph name="dvKHA" format="1">
  <advance width="728"/>
  <unicode hex="0916"/>
  <outline>
    <contour>
      <point x="108" y="442" type="line"/>
      <point x="47" y="442" type="line"/>
      <point x="47" y="176" type="line" smooth="yes"/>
      <point x="47" y="45"/>
      <point x="142" y="-4"/>
      <point x="272" y="-4" type="curve" smooth="yes"/>
      <point x="324" y="-4"/>
      <point x="378" y="3"/>
      <point x="412" y="12" type="curve"/>
      <point x="412" y="71" type="line"/>
      <point x="381" y="62"/>
      <point x="333" y="54"/>
      <point x="274" y="54" type="curve" smooth="yes"/>
      <point x="174" y="54"/>
      <point x="108" y="86"/>
      <point x="108" y="176" type="curve" smooth="yes"/>
    </contour>
    <contour>
      <point x="92" y="270" type="line"/>
      <point x="114" y="265"/>
      <point x="140" y="260"/>
      <point x="176" y="260" type="curve"/>
      <point x="273" y="260"/>
      <point x="320" y="307"/>
      <point x="320" y="403" type="curve" smooth="yes"/>
      <point x="320" y="525" type="line" smooth="yes"/>
      <point x="320" y="572"/>
      <point x="309" y="595"/>
      <point x="309" y="595" type="curve"/>
      <point x="422" y="595" type="line"/>
      <point x="422" y="649" type="line"/>
      <point x="-24" y="649" type="line"/>
      <point x="-24" y="595" type="line"/>
      <point x="248" y="595" type="line"/>
      <point x="248" y="595"/>
      <point x="261" y="570"/>
      <point x="261" y="525" type="curve" smooth="yes"/>
      <point x="261" y="404" type="line"/>
      <point x="261" y="349"/>
      <point x="239" y="316"/>
      <point x="174" y="316" type="curve"/>
      <point x="144" y="316"/>
      <point x="109" y="321"/>
      <point x="92" y="325" type="curve"/>
    </contour>
    <contour>
      <point x="379" y="378" type="curve"/>
      <point x="379" y="252" type="line"/>
      <point x="379" y="172"/>
      <point x="418" y="128"/>
      <point x="514" y="128" type="curve"/>
      <point x="548" y="128"/>
      <point x="572" y="131"/>
      <point x="593" y="137" type="curve"/>
      <point x="593" y="0" type="line"/>
      <point x="654" y="0" type="line"/>
      <point x="654" y="595" type="line"/>
      <point x="751" y="595" type="line"/>
      <point x="751" y="649" type="line"/>
      <point x="369" y="649" type="line"/>
      <point x="369" y="595" type="line"/>
      <point x="593" y="595" type="line"/>
      <point x="593" y="493" type="line"/>
      <point x="570" y="498"/>
      <point x="542" y="503"/>
      <point x="513" y="503" type="curve"/>
      <point x="417" y="503"/>
      <point x="379" y="458"/>
    </contour>
    <contour>
      <point x="593" y="192" type="line"/>
      <point x="580" y="187"/>
      <point x="549" y="183"/>
      <point x="516" y="183" type="curve"/>
      <point x="452" y="183"/>
      <point x="438" y="210"/>
      <point x="438" y="252" type="curve" smooth="yes"/>
      <point x="438" y="378" type="line" smooth="yes"/>
      <point x="438" y="419"/>
      <point x="452" y="447"/>
      <point x="516" y="447" type="curve" smooth="yes"/>
      <point x="547" y="447"/>
      <point x="573" y="442"/>
      <point x="593" y="437" type="curve"/>
    </contour>
  </outline>
</glyph>
<glyph name="dvGA" format="1">
  <advance width="479"/>
  <unicode hex="0917"/>
  <outline>
    <contour>
      <point x="298" y="595" type="line"/>
      <point x="344" y="595" type="line"/>
      <point x="344" y="0" type="line"/>
      <point x="406" y="0" type="line"/>
      <point x="406" y="595" type="line"/>
      <point x="503" y="595" type="line"/>
      <point x="503" y="649" type="line"/>
      <point x="298" y="649" type="line"/>
    </contour>
    <contour>
      <point x="190" y="595" type="line"/>
      <point x="298" y="595" type="line"/>
      <point x="298" y="649" type="line"/>
      <point x="-24" y="649" type="line"/>
      <point x="-24" y="595" type="line"/>
      <point x="129" y="595" type="line"/>
      <point x="129" y="321" type="line" smooth="yes"/>
      <point x="129" y="281"/>
      <point x="114" y="251"/>
      <point x="58" y="251" type="curve" smooth="yes"/>
      <point x="50" y="251"/>
      <point x="36" y="253"/>
      <point x="30" y="253" type="curve"/>
      <point x="30" y="196" type="line"/>
      <point x="36" y="194"/>
      <point x="55" y="193"/>
      <point x="65" y="193" type="curve" smooth="yes"/>
      <point x="151" y="193"/>
      <point x="190" y="246"/>
      <point x="190" y="319" type="curve"/>
    </contour>
  </outline>
</glyph>
<glyph name="dvNGA" format="1">
  <advance width="444"/>
  <unicode hex="0919"/>
  <outline>
    <contour>
      <point x="333" y="649" type="move" name="abvm.bindu"/>
    </contour>
    <contour>
      <point x="236" y="-5" type="move" name="blwm.virama"/>
    </contour>
    <contour>
      <point x="333" y="649" type="move" name="abvm.e"/>
    </contour>
    <contour>
      <point x="238" y="-60" type="move" name="blwm.u"/>
    </contour>
    <contour>
      <point x="362" y="168" type="line"/>
      <point x="362" y="248"/>
      <point x="315" y="290"/>
      <point x="215" y="290" type="curve" smooth="yes"/>
      <point x="197" y="290" type="line" smooth="yes"/>
      <point x="131" y="290"/>
      <point x="113" y="316"/>
      <point x="113" y="356" type="curve" smooth="yes"/>
      <point x="113" y="383" type="line" smooth="yes"/>
      <point x="113" y="424"/>
      <point x="131" y="449"/>
      <point x="197" y="449" type="curve" smooth="yes"/>
      <point x="333" y="449" type="line"/>
      <point x="333" y="595" type="line"/>
      <point x="467" y="595" type="line"/>
      <point x="467" y="649" type="line"/>
      <point x="-24" y="649" type="line"/>
      <point x="-24" y="595" type="line"/>
      <point x="271" y="595" type="line"/>
      <point x="271" y="505" type="line"/>
      <point x="197" y="505" type="line" smooth="yes"/>
      <point x="98" y="505"/>
      <point x="51" y="465"/>
      <point x="51" y="385" type="curve" smooth="yes"/>
      <point x="51" y="355" type="line" smooth="yes"/>
      <point x="51" y="275"/>
      <point x="99" y="235"/>
      <point x="197" y="235" type="curve" smooth="yes"/>
      <point x="215" y="235" type="line" smooth="yes"/>
      <point x="283" y="235"/>
      <point x="300" y="208"/>
      <point x="300" y="167" type="curve" smooth="yes"/>
      <point x="300" y="123" type="line" smooth="yes"/>
      <point x="300" y="72"/>
      <point x="263" y="51"/>
      <point x="193" y="51" type="curve" smooth="yes"/>
      <point x="143" y="51"/>
      <point x="92" y="57"/>
      <point x="55" y="66" type="curve"/>
      <point x="55" y="9" type="line"/>
      <point x="95" y="0"/>
      <point x="138" y="-6"/>
      <point x="193" y="-6" type="curve" smooth="yes"/>
      <point x="306" y="-6"/>
      <point x="362" y="39"/>
      <point x="362" y="123" type="curve"/>
    </contour>
    <contour>
      <point x="366" y="356" type="curve" smooth="yes"/>
      <point x="366" y="333"/>
      <point x="376" y="315"/>
      <point x="406" y="315" type="curve" smooth="yes"/>
      <point x="436" y="315"/>
      <point x="446" y="333"/>
      <point x="446" y="356" type="curve" smooth="yes"/>
      <point x="446" y="379"/>
      <point x="436" y="396"/>
      <point x="406" y="396" type="curve" smooth="yes"/>
      <point x="376" y="396"/>
      <point x="366" y="379"/>
    </contour>
  </outline>
</glyph>
